<svg width="236" height="80" viewBox="0 0 236 80" fill="none" xmlns="http://www.w3.org/2000/svg">
<path d="M0 8.99668C0 4.02795 4.02795 0 8.99668 0H21.4985C23.5941 0 25.624 0.731537 27.2378 2.06836L36.2466 9.53102C37.8604 10.8679 39.8903 11.5994 41.9858 11.5994H60.5166C62.6121 11.5994 64.642 10.8679 66.2558 9.53103L75.2646 2.06837C76.8784 0.731538 78.9082 0 81.0038 0H89.1911V68H81.1978C78.9849 68 76.8496 68.8156 75.2002 70.2908L66.9275 77.6896C65.2781 79.1648 63.1428 79.9803 60.9299 79.9803H42.0791C39.9269 79.9803 37.8461 79.2089 36.2141 77.8059L27.337 70.1744C25.7051 68.7715 23.6242 68 21.4721 68H8.99667C4.02794 68 0 63.972 0 59.0033V8.99668Z" fill="#FFAB19"/>
<path d="M8.99707 1H21.499C23.3615 1.00011 25.1653 1.65073 26.5996 2.83887L35.6084 10.3008C37.4014 11.7861 39.657 12.5995 41.9854 12.5996H60.5166C62.8451 12.5996 65.1004 11.7862 66.8936 10.3008L75.9023 2.83887C77.3368 1.65063 79.1413 1 81.0039 1H88.1914V67H81.1982C78.7394 67 76.366 67.9058 74.5332 69.5449L66.2607 76.9443C64.7947 78.2555 62.8965 78.9805 60.9297 78.9805H42.0791C40.1663 78.9805 38.3167 78.2948 36.8662 77.0479L27.9893 69.416C26.1759 67.8571 23.863 67 21.4717 67H8.99707C4.58063 67 1 63.4194 1 59.0029V8.99707C1 4.71872 4.35986 1.22503 8.58496 1.01074L8.99707 1Z" stroke="#CF8B17" stroke-width="2"/>
<g clip-path="url(#clip0_1_5580)">
<path d="M227.003 0H87V68H227.003C231.972 68 236 63.972 236 59.0033V8.99668C236 4.02795 231.972 0 227.003 0Z" fill="#FFAB19"/>
<path d="M227.003 1C231.419 1 235 4.58062 235 8.99707V59.0029C235 63.4194 231.419 67 227.003 67H88V1H227.003Z" stroke="#CF8B17" stroke-width="2"/>
</g>
<rect x="86" y="2" width="4" height="64" fill="#FFAB19"/>
<path d="M28.8672 39.0117L31.3047 29.3203H33.4727L29.7812 42H28.0234L24.9414 32.3906L21.9414 42H20.1836L16.5039 29.3203H18.6602L21.1562 38.8125L24.1094 29.3203H25.8555L28.8672 39.0117ZM43.5156 42C43.3906 41.75 43.2891 41.3047 43.2109 40.6641C42.2031 41.7109 41 42.2344 39.6016 42.2344C38.3516 42.2344 37.3242 41.8828 36.5195 41.1797C35.7227 40.4688 35.3242 39.5703 35.3242 38.4844C35.3242 37.1641 35.8242 36.1406 36.8242 35.4141C37.832 34.6797 39.2461 34.3125 41.0664 34.3125H43.1758V33.3164C43.1758 32.5586 42.9492 31.957 42.4961 31.5117C42.043 31.0586 41.375 30.832 40.4922 30.832C39.7188 30.832 39.0703 31.0273 38.5469 31.418C38.0234 31.8086 37.7617 32.2812 37.7617 32.8359H35.582C35.582 32.2031 35.8047 31.5938 36.25 31.0078C36.7031 30.4141 37.3125 29.9453 38.0781 29.6016C38.8516 29.2578 39.6992 29.0859 40.6211 29.0859C42.082 29.0859 43.2266 29.4531 44.0547 30.1875C44.8828 30.9141 45.3125 31.918 45.3438 33.1992V39.0352C45.3438 40.1992 45.4922 41.125 45.7891 41.8125V42H43.5156ZM39.918 40.3477C40.5977 40.3477 41.2422 40.1719 41.8516 39.8203C42.4609 39.4688 42.9023 39.0117 43.1758 38.4492V35.8477H41.4766C38.8203 35.8477 37.4922 36.625 37.4922 38.1797C37.4922 38.8594 37.7188 39.3906 38.1719 39.7734C38.625 40.1562 39.207 40.3477 39.918 40.3477ZM51.0977 42H48.9297V29.3203H51.0977V42ZM48.7539 25.957C48.7539 25.6055 48.8594 25.3086 49.0703 25.0664C49.2891 24.8242 49.6094 24.7031 50.0312 24.7031C50.4531 24.7031 50.7734 24.8242 50.9922 25.0664C51.2109 25.3086 51.3203 25.6055 51.3203 25.957C51.3203 26.3086 51.2109 26.6016 50.9922 26.8359C50.7734 27.0703 50.4531 27.1875 50.0312 27.1875C49.6094 27.1875 49.2891 27.0703 49.0703 26.8359C48.8594 26.6016 48.7539 26.3086 48.7539 25.957ZM57.5195 26.25V29.3203H59.8867V30.9961H57.5195V38.8594C57.5195 39.3672 57.625 39.75 57.8359 40.0078C58.0469 40.2578 58.4062 40.3828 58.9141 40.3828C59.1641 40.3828 59.5078 40.3359 59.9453 40.2422V42C59.375 42.1562 58.8203 42.2344 58.2812 42.2344C57.3125 42.2344 56.582 41.9414 56.0898 41.3555C55.5977 40.7695 55.3516 39.9375 55.3516 38.8594V30.9961H53.043V29.3203H55.3516V26.25H57.5195Z" fill="white"/>
<rect x="69.5" y="12.5" width="53" height="43" rx="19.5" fill="white"/>
<rect x="69.5" y="12.5" width="53" height="43" rx="19.5" stroke="#CF8B17"/>
<path d="M140.023 38.6367C140.023 38.0508 139.801 37.5977 139.355 37.2773C138.918 36.9492 138.148 36.668 137.047 36.4336C135.953 36.1992 135.082 35.918 134.434 35.5898C133.793 35.2617 133.316 34.8711 133.004 34.418C132.699 33.9648 132.547 33.4258 132.547 32.8008C132.547 31.7617 132.984 30.8828 133.859 30.1641C134.742 29.4453 135.867 29.0859 137.234 29.0859C138.672 29.0859 139.836 29.457 140.727 30.1992C141.625 30.9414 142.074 31.8906 142.074 33.0469H139.895C139.895 32.4531 139.641 31.9414 139.133 31.5117C138.633 31.082 138 30.8672 137.234 30.8672C136.445 30.8672 135.828 31.0391 135.383 31.3828C134.938 31.7266 134.715 32.1758 134.715 32.7305C134.715 33.2539 134.922 33.6484 135.336 33.9141C135.75 34.1797 136.496 34.4336 137.574 34.6758C138.66 34.918 139.539 35.207 140.211 35.543C140.883 35.8789 141.379 36.2852 141.699 36.7617C142.027 37.2305 142.191 37.8047 142.191 38.4844C142.191 39.6172 141.738 40.5273 140.832 41.2148C139.926 41.8945 138.75 42.2344 137.305 42.2344C136.289 42.2344 135.391 42.0547 134.609 41.6953C133.828 41.3359 133.215 40.8359 132.77 40.1953C132.332 39.5469 132.113 38.8477 132.113 38.0977H134.281C134.32 38.8242 134.609 39.4023 135.148 39.832C135.695 40.2539 136.414 40.4648 137.305 40.4648C138.125 40.4648 138.781 40.3008 139.273 39.9727C139.773 39.6367 140.023 39.1914 140.023 38.6367ZM150.277 42.2344C148.559 42.2344 147.16 41.6719 146.082 40.5469C145.004 39.4141 144.465 37.9023 144.465 36.0117V35.6133C144.465 34.3555 144.703 33.2344 145.18 32.25C145.664 31.2578 146.336 30.4844 147.195 29.9297C148.062 29.3672 149 29.0859 150.008 29.0859C151.656 29.0859 152.938 29.6289 153.852 30.7148C154.766 31.8008 155.223 33.3555 155.223 35.3789V36.2812H146.633C146.664 37.5312 147.027 38.543 147.723 39.3164C148.426 40.082 149.316 40.4648 150.395 40.4648C151.16 40.4648 151.809 40.3086 152.34 39.9961C152.871 39.6836 153.336 39.2695 153.734 38.7539L155.059 39.7852C153.996 41.418 152.402 42.2344 150.277 42.2344ZM150.008 30.8672C149.133 30.8672 148.398 31.1875 147.805 31.8281C147.211 32.4609 146.844 33.3516 146.703 34.5H153.055V34.3359C152.992 33.2344 152.695 32.3828 152.164 31.7812C151.633 31.1719 150.914 30.8672 150.008 30.8672ZM162.828 40.4648C163.602 40.4648 164.277 40.2305 164.855 39.7617C165.434 39.293 165.754 38.707 165.816 38.0039H167.867C167.828 38.7305 167.578 39.4219 167.117 40.0781C166.656 40.7344 166.039 41.2578 165.266 41.6484C164.5 42.0391 163.688 42.2344 162.828 42.2344C161.102 42.2344 159.727 41.6602 158.703 40.5117C157.688 39.3555 157.18 37.7773 157.18 35.7773V35.4141C157.18 34.1797 157.406 33.082 157.859 32.1211C158.312 31.1602 158.961 30.4141 159.805 29.8828C160.656 29.3516 161.66 29.0859 162.816 29.0859C164.238 29.0859 165.418 29.5117 166.355 30.3633C167.301 31.2148 167.805 32.3203 167.867 33.6797H165.816C165.754 32.8594 165.441 32.1875 164.879 31.6641C164.324 31.1328 163.637 30.8672 162.816 30.8672C161.715 30.8672 160.859 31.2656 160.25 32.0625C159.648 32.8516 159.348 33.9961 159.348 35.4961V35.9062C159.348 37.3672 159.648 38.4922 160.25 39.2812C160.852 40.0703 161.711 40.4648 162.828 40.4648ZM169.73 35.543C169.73 34.3008 169.973 33.1836 170.457 32.1914C170.949 31.1992 171.629 30.4336 172.496 29.8945C173.371 29.3555 174.367 29.0859 175.484 29.0859C177.211 29.0859 178.605 29.6836 179.668 30.8789C180.738 32.0742 181.273 33.6641 181.273 35.6484V35.8008C181.273 37.0352 181.035 38.1445 180.559 39.1289C180.09 40.1055 179.414 40.8672 178.531 41.4141C177.656 41.9609 176.648 42.2344 175.508 42.2344C173.789 42.2344 172.395 41.6367 171.324 40.4414C170.262 39.2461 169.73 37.6641 169.73 35.6953V35.543ZM171.91 35.8008C171.91 37.207 172.234 38.3359 172.883 39.1875C173.539 40.0391 174.414 40.4648 175.508 40.4648C176.609 40.4648 177.484 40.0352 178.133 39.1758C178.781 38.3086 179.105 37.0977 179.105 35.543C179.105 34.1523 178.773 33.0273 178.109 32.168C177.453 31.3008 176.578 30.8672 175.484 30.8672C174.414 30.8672 173.551 31.293 172.895 32.1445C172.238 32.9961 171.91 34.2148 171.91 35.8008ZM186.043 29.3203L186.113 30.9141C187.082 29.6953 188.348 29.0859 189.91 29.0859C192.59 29.0859 193.941 30.5977 193.965 33.6211V42H191.797V33.6094C191.789 32.6953 191.578 32.0195 191.164 31.582C190.758 31.1445 190.121 30.9258 189.254 30.9258C188.551 30.9258 187.934 31.1133 187.402 31.4883C186.871 31.8633 186.457 32.3555 186.16 32.9648V42H183.992V29.3203H186.043ZM196.707 35.5547C196.707 33.6094 197.168 32.0469 198.09 30.8672C199.012 29.6797 200.219 29.0859 201.711 29.0859C203.195 29.0859 204.371 29.5938 205.238 30.6094V24H207.406V42H205.414L205.309 40.6406C204.441 41.7031 203.234 42.2344 201.688 42.2344C200.219 42.2344 199.02 41.6328 198.09 40.4297C197.168 39.2266 196.707 37.6562 196.707 35.7188V35.5547ZM198.875 35.8008C198.875 37.2383 199.172 38.3633 199.766 39.1758C200.359 39.9883 201.18 40.3945 202.227 40.3945C203.602 40.3945 204.605 39.7773 205.238 38.543V32.7188C204.59 31.5234 203.594 30.9258 202.25 30.9258C201.188 30.9258 200.359 31.3359 199.766 32.1562C199.172 32.9766 198.875 34.1914 198.875 35.8008ZM218.164 38.6367C218.164 38.0508 217.941 37.5977 217.496 37.2773C217.059 36.9492 216.289 36.668 215.188 36.4336C214.094 36.1992 213.223 35.918 212.574 35.5898C211.934 35.2617 211.457 34.8711 211.145 34.418C210.84 33.9648 210.688 33.4258 210.688 32.8008C210.688 31.7617 211.125 30.8828 212 30.1641C212.883 29.4453 214.008 29.0859 215.375 29.0859C216.812 29.0859 217.977 29.457 218.867 30.1992C219.766 30.9414 220.215 31.8906 220.215 33.0469H218.035C218.035 32.4531 217.781 31.9414 217.273 31.5117C216.773 31.082 216.141 30.8672 215.375 30.8672C214.586 30.8672 213.969 31.0391 213.523 31.3828C213.078 31.7266 212.855 32.1758 212.855 32.7305C212.855 33.2539 213.062 33.6484 213.477 33.9141C213.891 34.1797 214.637 34.4336 215.715 34.6758C216.801 34.918 217.68 35.207 218.352 35.543C219.023 35.8789 219.52 36.2852 219.84 36.7617C220.168 37.2305 220.332 37.8047 220.332 38.4844C220.332 39.6172 219.879 40.5273 218.973 41.2148C218.066 41.8945 216.891 42.2344 215.445 42.2344C214.43 42.2344 213.531 42.0547 212.75 41.6953C211.969 41.3359 211.355 40.8359 210.91 40.1953C210.473 39.5469 210.254 38.8477 210.254 38.0977H212.422C212.461 38.8242 212.75 39.4023 213.289 39.832C213.836 40.2539 214.555 40.4648 215.445 40.4648C216.266 40.4648 216.922 40.3008 217.414 39.9727C217.914 39.6367 218.164 39.1914 218.164 38.6367Z" fill="white"/>
<defs>
<clipPath id="clip0_1_5580">
<rect width="149" height="68" fill="white" transform="translate(87)"/>
</clipPath>
</defs>
</svg>
