<svg width="236" height="184" viewBox="0 0 236 184" fill="none" xmlns="http://www.w3.org/2000/svg">
<g clip-path="url(#clip0_1_5582)">
<path d="M124.191 0L124.191 68H116.198C113.985 68 111.85 68.8156 110.2 70.2908L101.928 77.6896C100.278 79.1648 98.1428 79.9803 95.9299 79.9803H77.0791C74.9269 79.9803 72.8461 79.2089 71.2141 77.8059L62.337 70.1744C60.7051 68.7715 58.6242 68 56.4721 68H44.4038C42.6486 68 41.036 68.6108 39.7671 69.6314C37.9144 71.2597 37 73.953 37 77V85H0V8.99668C0 4.02795 4.02795 0 8.99668 0H21.4985C23.5941 0 25.624 0.731537 27.2378 2.06836L36.2466 9.53102C37.8604 10.8679 39.8903 11.5994 41.9858 11.5994H60.5166C62.6121 11.5994 64.642 10.8679 66.2558 9.53103L75.2646 2.06837C76.8784 0.731539 78.9083 0 81.0038 0H124.191Z" fill="#FFAB19"/>
<path d="M8.99707 1H21.499C23.3615 1.00011 25.1653 1.65073 26.5996 2.83887L35.6084 10.3008C37.4014 11.7861 39.657 12.5995 41.9854 12.5996H60.5166C62.8451 12.5996 65.1004 11.7862 66.8936 10.3008L75.9023 2.83887C77.3368 1.65063 79.1413 1 81.0039 1H123.191V67H116.198C113.739 67 111.366 67.9058 109.533 69.5449L101.261 76.9443C99.7947 78.2555 97.8965 78.9805 95.9297 78.9805H77.0791C75.1663 78.9805 73.3168 78.2947 71.8662 77.0479L62.9893 69.416C61.1759 67.8571 58.863 67 56.4717 67H44.4043C42.413 67 40.5808 67.6942 39.1406 68.8525L39.123 68.8662L39.1064 68.8799C36.963 70.7637 36 73.7827 36 77V84H1V8.99707C1 4.71872 4.35986 1.22503 8.58496 1.01074L8.99707 1Z" stroke="#CF8B17" stroke-width="2"/>
<g clip-path="url(#clip1_1_5582)">
<path d="M227.003 0H124V68H227.003C231.972 68 236 63.972 236 59.0033V8.99668C236 4.02795 231.972 0 227.003 0Z" fill="#FFAB19"/>
<path d="M227.003 1C231.419 1 235 4.58062 235 8.99707V59.0029C235 63.4194 231.419 67 227.003 67H125V1H227.003Z" stroke="#CF8B17" stroke-width="2"/>
</g>
<rect x="122.191" y="2" width="4" height="64" fill="#FFAB19"/>
</g>
<g clip-path="url(#clip2_1_5582)">
<path d="M77.0791 143.961H95.93C98.1428 143.961 100.278 143.145 101.928 141.67L110.2 134.271C111.85 132.796 113.985 131.98 116.198 131.98H124.191L124.191 183.98H97.1978H37.4721H16.4038H9.20437C9.05176 183.984 8.89997 183.984 8.74908 183.98C3.90984 183.938 0 180.002 0 175.152V114.98H37V122.98C37 126.027 37.9144 128.721 39.7671 130.349C41.0361 131.37 42.6486 131.98 44.4038 131.98H56.4721C58.6242 131.98 60.7051 132.752 62.337 134.155L71.2142 141.786C72.8461 143.189 74.9269 143.961 77.0791 143.961Z" fill="#FFAB19"/>
<path d="M36 115.98V122.98C36 126.198 36.9639 129.217 39.1074 131.101L39.123 131.114L39.1406 131.128C40.5808 132.286 42.413 132.98 44.4043 132.98H56.4717C58.3846 132.98 60.235 133.666 61.6855 134.913L70.5625 142.545C72.3758 144.104 74.6879 144.961 77.0791 144.961H95.9297C98.3885 144.961 100.761 144.054 102.594 142.415L110.867 135.017C112.333 133.705 114.231 132.98 116.198 132.98H123.191V182.98H8.75781C4.46695 182.943 1 179.452 1 175.152V115.98H36Z" stroke="#CF8B17" stroke-width="2"/>
<g clip-path="url(#clip3_1_5582)">
<path d="M227.003 132H124V184H227.003C231.972 184 236 179.972 236 175.003V140.997C236 136.028 231.972 132 227.003 132Z" fill="#FFAB19"/>
<path d="M227.003 133C231.419 133 235 136.581 235 140.997V175.003C235 179.419 231.419 183 227.003 183H125V133H227.003Z" stroke="#CF8B17" stroke-width="2"/>
</g>
<rect x="122.191" y="133.983" width="4" height="48" fill="#FFAB19"/>
</g>
<path d="M0 85H37V115H0V85Z" fill="#FFAB19"/>
<path d="M36 86V114H1V86H36Z" stroke="#CF8B17" stroke-width="2"/>
<path d="M2 83H35V117H2V83Z" fill="#FFAB19"/>
<path d="M223.125 157.75C222.75 158.5 222 159 221.25 159H219.25C219.125 160.625 218.625 162.125 217.875 163.5C216.75 165.625 215 167.5 212.75 168.625C210.625 169.75 208.25 170.125 205.875 169.75C203.625 169.375 201.5 168.375 199.75 166.875C198.875 166 198.875 164.5 199.75 163.625C200.5 162.875 201.75 162.75 202.625 163.375H202.75C203.875 164.125 205.125 164.5 206.375 164.5C207.625 164.5 208.75 164.125 209.75 163.375C211.125 162.375 212 160.75 212 159H210.125C209 159 208 158.125 208 156.875C208 156.375 208.25 155.75 208.625 155.375L214.125 149.875C215 149.125 216.25 149.125 217.125 149.875L222.75 155.5C223.375 156.125 223.5 157 223.125 157.75Z" fill="#CF8B17"/>
<path d="M221.25 157.75H218C218 159.625 217.625 161.375 216.75 163C215.75 165 214.125 166.5 212.125 167.5C210.25 168.5 208 168.875 206 168.5C204 168.25 202 167.25 200.5 165.875C200 165.5 200 164.75 200.375 164.375C200.75 163.875 201.5 163.875 201.875 164.25C203.125 165.125 204.625 165.625 206.125 165.625C207.625 165.625 209 165.25 210.25 164.375C211.375 163.625 212.25 162.5 212.75 161.125C213.125 160 213.25 158.875 213 157.625H210C209.5 157.625 209.125 157.25 209.125 156.75C209.125 156.5 209.25 156.375 209.375 156.25L214.875 150.75C215.25 150.375 215.75 150.375 216 150.75L221.5 156.25C221.875 156.625 222 157 221.875 157.375C221.75 157.75 221.5 157.75 221.25 157.75Z" fill="white"/>
<path d="M18.707 42V30.9961H16.7031V29.3203H18.707V28.0195C18.707 26.6602 19.0703 25.6094 19.7969 24.8672C20.5234 24.125 21.5508 23.7539 22.8789 23.7539C23.3789 23.7539 23.875 23.8203 24.3672 23.9531L24.25 25.7109C23.8828 25.6406 23.4922 25.6055 23.0781 25.6055C22.375 25.6055 21.832 25.8125 21.4492 26.2266C21.0664 26.6328 20.875 27.2188 20.875 27.9844V29.3203H23.582V30.9961H20.875V42H18.707ZM25.4102 35.543C25.4102 34.3008 25.6523 33.1836 26.1367 32.1914C26.6289 31.1992 27.3086 30.4336 28.1758 29.8945C29.0508 29.3555 30.0469 29.0859 31.1641 29.0859C32.8906 29.0859 34.2852 29.6836 35.3477 30.8789C36.418 32.0742 36.9531 33.6641 36.9531 35.6484V35.8008C36.9531 37.0352 36.7148 38.1445 36.2383 39.1289C35.7695 40.1055 35.0938 40.8672 34.2109 41.4141C33.3359 41.9609 32.3281 42.2344 31.1875 42.2344C29.4688 42.2344 28.0742 41.6367 27.0039 40.4414C25.9414 39.2461 25.4102 37.6641 25.4102 35.6953V35.543ZM27.5898 35.8008C27.5898 37.207 27.9141 38.3359 28.5625 39.1875C29.2188 40.0391 30.0938 40.4648 31.1875 40.4648C32.2891 40.4648 33.1641 40.0352 33.8125 39.1758C34.4609 38.3086 34.7852 37.0977 34.7852 35.543C34.7852 34.1523 34.4531 33.0273 33.7891 32.168C33.1328 31.3008 32.2578 30.8672 31.1641 30.8672C30.0938 30.8672 29.2305 31.293 28.5742 32.1445C27.918 32.9961 27.5898 34.2148 27.5898 35.8008ZM45.8008 31.2656C45.4727 31.2109 45.1172 31.1836 44.7344 31.1836C43.3125 31.1836 42.3477 31.7891 41.8398 33V42H39.6719V29.3203H41.7812L41.8164 30.7852C42.5273 29.6523 43.5352 29.0859 44.8398 29.0859C45.2617 29.0859 45.582 29.1406 45.8008 29.25V31.2656ZM52.832 42.2344C51.1133 42.2344 49.7148 41.6719 48.6367 40.5469C47.5586 39.4141 47.0195 37.9023 47.0195 36.0117V35.6133C47.0195 34.3555 47.2578 33.2344 47.7344 32.25C48.2188 31.2578 48.8906 30.4844 49.75 29.9297C50.6172 29.3672 51.5547 29.0859 52.5625 29.0859C54.2109 29.0859 55.4922 29.6289 56.4062 30.7148C57.3203 31.8008 57.7773 33.3555 57.7773 35.3789V36.2812H49.1875C49.2188 37.5312 49.582 38.543 50.2773 39.3164C50.9805 40.082 51.8711 40.4648 52.9492 40.4648C53.7148 40.4648 54.3633 40.3086 54.8945 39.9961C55.4258 39.6836 55.8906 39.2695 56.2891 38.7539L57.6133 39.7852C56.5508 41.418 54.957 42.2344 52.832 42.2344ZM52.5625 30.8672C51.6875 30.8672 50.9531 31.1875 50.3594 31.8281C49.7656 32.4609 49.3984 33.3516 49.2578 34.5H55.6094V34.3359C55.5469 33.2344 55.25 32.3828 54.7188 31.7812C54.1875 31.1719 53.4688 30.8672 52.5625 30.8672ZM64.3164 39.0586L67.457 29.3203H69.6719L65.125 42H63.4727L58.8789 29.3203H61.0938L64.3164 39.0586ZM76.8555 42.2344C75.1367 42.2344 73.7383 41.6719 72.6602 40.5469C71.582 39.4141 71.043 37.9023 71.043 36.0117V35.6133C71.043 34.3555 71.2812 33.2344 71.7578 32.25C72.2422 31.2578 72.9141 30.4844 73.7734 29.9297C74.6406 29.3672 75.5781 29.0859 76.5859 29.0859C78.2344 29.0859 79.5156 29.6289 80.4297 30.7148C81.3438 31.8008 81.8008 33.3555 81.8008 35.3789V36.2812H73.2109C73.2422 37.5312 73.6055 38.543 74.3008 39.3164C75.0039 40.082 75.8945 40.4648 76.9727 40.4648C77.7383 40.4648 78.3867 40.3086 78.918 39.9961C79.4492 39.6836 79.9141 39.2695 80.3125 38.7539L81.6367 39.7852C80.5742 41.418 78.9805 42.2344 76.8555 42.2344ZM76.5859 30.8672C75.7109 30.8672 74.9766 31.1875 74.3828 31.8281C73.7891 32.4609 73.4219 33.3516 73.2812 34.5H79.6328V34.3359C79.5703 33.2344 79.2734 32.3828 78.7422 31.7812C78.2109 31.1719 77.4922 30.8672 76.5859 30.8672ZM90.4492 31.2656C90.1211 31.2109 89.7656 31.1836 89.3828 31.1836C87.9609 31.1836 86.9961 31.7891 86.4883 33V42H84.3203V29.3203H86.4297L86.4648 30.7852C87.1758 29.6523 88.1836 29.0859 89.4883 29.0859C89.9102 29.0859 90.2305 29.1406 90.4492 29.25V31.2656Z" fill="white"/>
<defs>
<clipPath id="clip0_1_5582">
<rect width="236" height="85" fill="white"/>
</clipPath>
<clipPath id="clip1_1_5582">
<rect width="112" height="68" fill="white" transform="translate(124)"/>
</clipPath>
<clipPath id="clip2_1_5582">
<rect width="236" height="69" fill="white" transform="translate(0 115)"/>
</clipPath>
<clipPath id="clip3_1_5582">
<rect width="112" height="52" fill="white" transform="translate(124 132)"/>
</clipPath>
</defs>
</svg>
