<svg width="236" height="196" viewBox="0 0 236 196" fill="none" xmlns="http://www.w3.org/2000/svg">
<g clip-path="url(#clip0_1_5583)">
<path d="M124.191 0L124.191 68H116.198C113.985 68 111.85 68.8156 110.2 70.2908L101.928 77.6896C100.278 79.1648 98.1428 79.9803 95.9299 79.9803H77.0791C74.9269 79.9803 72.8461 79.2089 71.2141 77.8059L62.337 70.1744C60.7051 68.7715 58.6242 68 56.4721 68H44.4038C42.6486 68 41.036 68.6108 39.7671 69.6314C37.9144 71.2597 37 73.953 37 77V85H0V8.99668C0 4.02795 4.02795 0 8.99668 0H21.4985C23.5941 0 25.624 0.731537 27.2378 2.06836L36.2466 9.53102C37.8604 10.8679 39.8903 11.5994 41.9858 11.5994H60.5166C62.6121 11.5994 64.642 10.8679 66.2558 9.53103L75.2646 2.06837C76.8784 0.731539 78.9083 0 81.0038 0H124.191Z" fill="#FFAB19"/>
<path d="M8.99707 1H21.499C23.3615 1.00011 25.1653 1.65073 26.5996 2.83887L35.6084 10.3008C37.4014 11.7861 39.657 12.5995 41.9854 12.5996H60.5166C62.8451 12.5996 65.1004 11.7862 66.8936 10.3008L75.9023 2.83887C77.3368 1.65063 79.1413 1 81.0039 1H123.191V67H116.198C113.739 67 111.366 67.9058 109.533 69.5449L101.261 76.9443C99.7947 78.2555 97.8965 78.9805 95.9297 78.9805H77.0791C75.1663 78.9805 73.3168 78.2947 71.8662 77.0479L62.9893 69.416C61.1759 67.8571 58.863 67 56.4717 67H44.4043C42.413 67 40.5808 67.6942 39.1406 68.8525L39.123 68.8662L39.1064 68.8799C36.963 70.7637 36 73.7827 36 77V84H1V8.99707C1 4.71872 4.35986 1.22503 8.58496 1.01074L8.99707 1Z" stroke="#CF8B17" stroke-width="2"/>
<g clip-path="url(#clip1_1_5583)">
<path d="M227.003 0H124V68H227.003C231.972 68 236 63.972 236 59.0033V8.99668C236 4.02795 231.972 0 227.003 0Z" fill="#FFAB19"/>
<path d="M227.003 1C231.419 1 235 4.58062 235 8.99707V59.0029C235 63.4194 231.419 67 227.003 67H125V1H227.003Z" stroke="#CF8B17" stroke-width="2"/>
</g>
<rect x="122.191" y="2" width="4" height="64" fill="#FFAB19"/>
</g>
<g clip-path="url(#clip2_1_5583)">
<path d="M77.0791 143.98H95.93C98.1428 143.98 100.278 143.165 101.928 141.69L110.2 134.291C111.85 132.816 113.985 132 116.198 132H124.191L124.191 184H81.1978C78.9849 184 76.8496 184.816 75.2002 186.291L66.9275 193.69C65.2781 195.165 63.1428 195.98 60.93 195.98H42.0791C39.9269 195.98 37.8461 195.209 36.2142 193.806L27.337 186.174C25.7051 184.771 23.6242 184 21.4721 184H16.4038L9.20437 184.166C4.15567 184.283 0 180.222 0 175.172V115H37.0017V123C37.0017 126.047 37.9153 128.74 39.7673 130.368C41.0361 131.389 42.6486 132 44.4038 132H56.4721C58.6242 132 60.7051 132.771 62.337 134.174L71.2142 141.806C72.8461 143.209 74.9269 143.98 77.0791 143.98Z" fill="#FFAB19"/>
<path d="M36.002 116V123C36.002 126.217 36.9647 129.235 39.1074 131.119L39.123 131.134L39.1406 131.147C40.5806 132.306 42.413 133 44.4043 133H56.4717C58.3846 133 60.235 133.686 61.6855 134.933L70.5625 142.564C72.3758 144.123 74.6879 144.98 77.0791 144.98H95.9297C98.3885 144.98 100.761 144.074 102.594 142.435L110.867 135.036C112.333 133.725 114.231 133 116.198 133H123.191V183H81.1982C78.7394 183 76.366 183.906 74.5332 185.545L66.2607 192.944C64.7947 194.255 62.8965 194.98 60.9297 194.98H42.0791C40.1663 194.98 38.3168 194.295 36.8662 193.048L27.9893 185.416C26.1759 183.857 23.863 183 21.4717 183H16.3809L9.18164 183.167C4.69412 183.271 1 179.661 1 175.172V116H36.002Z" stroke="#CF8B17" stroke-width="2"/>
</g>
<g clip-path="url(#clip3_1_5583)">
<path d="M227.003 132H124V184H227.003C231.972 184 236 179.972 236 175.003V140.997C236 136.028 231.972 132 227.003 132Z" fill="#FFAB19"/>
<path d="M227.003 133C231.419 133 235 136.581 235 140.997V175.003C235 179.419 231.419 183 227.003 183H125V133H227.003Z" stroke="#CF8B17" stroke-width="2"/>
</g>
<rect x="122.191" y="134" width="4" height="48" fill="#FFAB19"/>
<path d="M0 85H37V115H0V85Z" fill="#FFAB19"/>
<path d="M36 86V114H1V86H36Z" stroke="#CF8B17" stroke-width="2"/>
<path d="M2 83H35V117H2V83Z" fill="#FFAB19"/>
<path d="M19.9961 42H17.8281V29.3203H19.9961V42ZM17.6523 25.957C17.6523 25.6055 17.7578 25.3086 17.9688 25.0664C18.1875 24.8242 18.5078 24.7031 18.9297 24.7031C19.3516 24.7031 19.6719 24.8242 19.8906 25.0664C20.1094 25.3086 20.2188 25.6055 20.2188 25.957C20.2188 26.3086 20.1094 26.6016 19.8906 26.8359C19.6719 27.0703 19.3516 27.1875 18.9297 27.1875C18.5078 27.1875 18.1875 27.0703 17.9688 26.8359C17.7578 26.6016 17.6523 26.3086 17.6523 25.957ZM24.543 42V30.9961H22.5391V29.3203H24.543V28.0195C24.543 26.6602 24.9062 25.6094 25.6328 24.8672C26.3594 24.125 27.3867 23.7539 28.7148 23.7539C29.2148 23.7539 29.7109 23.8203 30.2031 23.9531L30.0859 25.7109C29.7188 25.6406 29.3281 25.6055 28.9141 25.6055C28.2109 25.6055 27.668 25.8125 27.2852 26.2266C26.9023 26.6328 26.7109 27.2188 26.7109 27.9844V29.3203H29.418V30.9961H26.7109V42H24.543Z" fill="white"/>
<path d="M74.6163 34L96.6163 10V58L74.6163 34Z" fill="#CF8B17"/>
<rect x="96.6163" y="10" width="24" height="48" fill="#CF8B17"/>
<path d="M142.616 34L120.616 10V58L142.616 34Z" fill="#CF8B17"/>
<path d="M155.198 26.25V29.3203H157.566V30.9961H155.198V38.8594C155.198 39.3672 155.304 39.75 155.515 40.0078C155.726 40.2578 156.085 40.3828 156.593 40.3828C156.843 40.3828 157.187 40.3359 157.624 40.2422V42C157.054 42.1562 156.499 42.2344 155.96 42.2344C154.991 42.2344 154.261 41.9414 153.769 41.3555C153.276 40.7695 153.03 39.9375 153.03 38.8594V30.9961H150.722V29.3203H153.03V26.25H155.198ZM162.276 30.8555C163.237 29.6758 164.487 29.0859 166.026 29.0859C168.706 29.0859 170.058 30.5977 170.081 33.6211V42H167.913V33.6094C167.905 32.6953 167.694 32.0195 167.28 31.582C166.874 31.1445 166.237 30.9258 165.37 30.9258C164.667 30.9258 164.05 31.1133 163.519 31.4883C162.987 31.8633 162.573 32.3555 162.276 32.9648V42H160.108V24H162.276V30.8555ZM178.589 42.2344C176.87 42.2344 175.472 41.6719 174.394 40.5469C173.316 39.4141 172.776 37.9023 172.776 36.0117V35.6133C172.776 34.3555 173.015 33.2344 173.491 32.25C173.976 31.2578 174.648 30.4844 175.507 29.9297C176.374 29.3672 177.312 29.0859 178.319 29.0859C179.968 29.0859 181.249 29.6289 182.163 30.7148C183.077 31.8008 183.534 33.3555 183.534 35.3789V36.2812H174.944C174.976 37.5312 175.339 38.543 176.034 39.3164C176.737 40.082 177.628 40.4648 178.706 40.4648C179.472 40.4648 180.12 40.3086 180.651 39.9961C181.183 39.6836 181.648 39.2695 182.046 38.7539L183.37 39.7852C182.308 41.418 180.714 42.2344 178.589 42.2344ZM178.319 30.8672C177.444 30.8672 176.71 31.1875 176.116 31.8281C175.523 32.4609 175.155 33.3516 175.015 34.5H181.366V34.3359C181.304 33.2344 181.007 32.3828 180.476 31.7812C179.944 31.1719 179.226 30.8672 178.319 30.8672ZM188.105 29.3203L188.175 30.9141C189.144 29.6953 190.409 29.0859 191.972 29.0859C194.651 29.0859 196.003 30.5977 196.026 33.6211V42H193.858V33.6094C193.851 32.6953 193.64 32.0195 193.226 31.582C192.819 31.1445 192.183 30.9258 191.316 30.9258C190.612 30.9258 189.995 31.1133 189.464 31.4883C188.933 31.8633 188.519 32.3555 188.222 32.9648V42H186.054V29.3203H188.105Z" fill="white"/>
<defs>
<clipPath id="clip0_1_5583">
<rect width="236" height="85" fill="white"/>
</clipPath>
<clipPath id="clip1_1_5583">
<rect width="112" height="68" fill="white" transform="translate(124)"/>
</clipPath>
<clipPath id="clip2_1_5583">
<rect width="125" height="81" fill="white" transform="translate(0 115)"/>
</clipPath>
<clipPath id="clip3_1_5583">
<rect width="112" height="52" fill="white" transform="translate(124 132)"/>
</clipPath>
</defs>
</svg>
