<svg width="241" height="312" viewBox="0 0 241 312" fill="none" xmlns="http://www.w3.org/2000/svg">
<g clip-path="url(#clip0_1_5584)">
<path d="M124.191 0L124.191 68H116.198C113.985 68 111.85 68.8156 110.2 70.2908L101.928 77.6896C100.278 79.1648 98.1428 79.9803 95.9299 79.9803H77.0791C74.9269 79.9803 72.8461 79.2089 71.2141 77.8059L62.337 70.1744C60.7051 68.7715 58.6242 68 56.4721 68H44.4038C42.6486 68 41.036 68.6108 39.7671 69.6314C37.9144 71.2597 37 73.953 37 77V85H0V8.99668C0 4.02795 4.02795 0 8.99668 0H21.4985C23.5941 0 25.624 0.731537 27.2378 2.06836L36.2466 9.53102C37.8604 10.8679 39.8903 11.5994 41.9858 11.5994H60.5166C62.6121 11.5994 64.642 10.8679 66.2558 9.53103L75.2646 2.06837C76.8784 0.731539 78.9083 0 81.0038 0H124.191Z" fill="#FFAB19"/>
<path d="M8.99707 1H21.499C23.3615 1.00011 25.1653 1.65073 26.5996 2.83887L35.6084 10.3008C37.4014 11.7861 39.657 12.5995 41.9854 12.5996H60.5166C62.8451 12.5996 65.1004 11.7862 66.8936 10.3008L75.9023 2.83887C77.3368 1.65063 79.1413 1 81.0039 1H123.191V67H116.198C113.739 67 111.366 67.9058 109.533 69.5449L101.261 76.9443C99.7947 78.2555 97.8965 78.9805 95.9297 78.9805H77.0791C75.1663 78.9805 73.3168 78.2947 71.8662 77.0479L62.9893 69.416C61.1759 67.8571 58.863 67 56.4717 67H44.4043C42.413 67 40.5808 67.6942 39.1406 68.8525L39.123 68.8662L39.1064 68.8799C36.963 70.7637 36 73.7827 36 77V84H1V8.99707C1 4.71872 4.35986 1.22503 8.58496 1.01074L8.99707 1Z" stroke="#CF8B17" stroke-width="2"/>
<g clip-path="url(#clip1_1_5584)">
<path d="M232.003 0H124V68H232.003C236.972 68 241 63.972 241 59.0033V8.99668C241 4.02795 236.972 0 232.003 0Z" fill="#FFAB19"/>
<path d="M232.003 1C236.419 1 240 4.58062 240 8.99707V59.0029C240 63.4194 236.419 67 232.003 67H125V1H232.003Z" stroke="#CF8B17" stroke-width="2"/>
</g>
<rect x="122.191" y="2" width="4" height="64" fill="#FFAB19"/>
</g>
<g clip-path="url(#clip2_1_5584)">
<path d="M124.191 132L124.191 184H116.198C113.985 184 111.85 184.816 110.2 186.291L101.928 193.69C100.278 195.165 98.1428 195.98 95.9299 195.98H77.0791C74.9269 195.98 72.8461 195.209 71.2141 193.806L62.337 186.174C60.7051 184.771 58.6242 184 56.4721 184H44.4038C42.6486 184 41.036 184.611 39.7671 185.631C37.9144 187.26 37 189.953 37 193V201H0V115H37V123C37 127.971 39.4333 132 44.4038 132H56.4721C58.5677 132 60.5975 132.732 62.2113 134.068L71.2202 141.531C72.834 142.868 74.8638 143.599 76.9594 143.599H95.4901C97.5857 143.599 99.6155 142.868 101.229 141.531L110.238 134.068C111.852 132.732 113.882 132 115.977 132H124.191Z" fill="#FFAB19"/>
<path d="M36 116V123C36 125.633 36.6426 128.116 38.04 129.967C39.4635 131.852 41.6137 133 44.4043 133H56.4717C58.3343 133 60.1388 133.651 61.5732 134.839L70.582 142.301C72.3751 143.786 74.6306 144.6 76.959 144.6H95.4902C97.8187 144.6 100.074 143.786 101.867 142.301L110.876 134.839C112.31 133.651 114.115 133 115.978 133H123.191V183H116.198C113.739 183 111.366 183.906 109.533 185.545L101.261 192.944C99.7947 194.255 97.8965 194.98 95.9297 194.98H77.0791C75.1663 194.98 73.3168 194.295 71.8662 193.048L62.9893 185.416C61.1759 183.857 58.863 183 56.4717 183H44.4043C42.413 183 40.5808 183.694 39.1406 184.853L39.123 184.866L39.1064 184.88C36.963 186.764 36 189.783 36 193V200H1V116H36Z" stroke="#CF8B17" stroke-width="2"/>
<g clip-path="url(#clip3_1_5584)">
<path d="M232.003 132H124V184H232.003C236.972 184 241 179.972 241 175.003V140.997C241 136.028 236.972 132 232.003 132Z" fill="#FFAB19"/>
<path d="M232.003 133C236.419 133 240 136.581 240 140.997V175.003C240 179.419 236.419 183 232.003 183H125V133H232.003Z" stroke="#CF8B17" stroke-width="2"/>
</g>
<rect x="122.191" y="134" width="4" height="48" fill="#FFAB19"/>
</g>
<path d="M0 85H37V115H0V85Z" fill="#FFAB19"/>
<path d="M36 86V114H1V86H36Z" stroke="#CF8B17" stroke-width="2"/>
<path d="M2 83H35V117H2V83Z" fill="#FFAB19"/>
<g clip-path="url(#clip4_1_5584)">
<g clip-path="url(#clip5_1_5584)">
<path d="M77.0791 259H95.93C98.1428 259 100.278 258.184 101.928 256.709L110.2 249.31C111.85 247.835 113.985 247.02 116.198 247.02H124.191L124.191 299.02H81.1978C78.9849 299.02 76.8496 299.835 75.2002 301.31L66.9275 308.709C65.2781 310.184 63.1428 311 60.93 311H42.0791C39.9269 311 37.8461 310.228 36.2142 308.825L27.337 301.194C25.7051 299.791 23.6242 299.02 21.4721 299.02H16.4038L9.20437 299.186C4.15567 299.302 0 295.242 0 290.191V230.02H37.0017V238.02C37.0017 241.066 37.9153 243.76 39.7673 245.388C41.0361 246.409 42.6486 247.02 44.4038 247.02H56.4721C58.6242 247.02 60.7051 247.791 62.337 249.194L71.2142 256.825C72.8461 258.228 74.9269 259 77.0791 259Z" fill="#FFAB19"/>
<path d="M36.002 231.02V238.02C36.002 241.236 36.9647 244.255 39.1074 246.139L39.123 246.153L39.1406 246.167C40.5806 247.325 42.413 248.02 44.4043 248.02H56.4717C58.3846 248.02 60.235 248.705 61.6855 249.952L70.5625 257.584C72.3758 259.143 74.6879 260 77.0791 260H95.9297C98.3885 260 100.761 259.093 102.594 257.454L110.867 250.056C112.333 248.745 114.231 248.02 116.198 248.02H123.191V298.02H81.1982C78.7394 298.02 76.366 298.925 74.5332 300.564L66.2607 307.964C64.7947 309.275 62.8965 310 60.9297 310H42.0791C40.1663 310 38.3168 309.314 36.8662 308.067L27.9893 300.436C26.1759 298.877 23.863 298.02 21.4717 298.02H16.3809L9.18164 298.187C4.69412 298.29 1 294.68 1 290.191V231.02H36.002Z" stroke="#CF8B17" stroke-width="2"/>
</g>
<g clip-path="url(#clip6_1_5584)">
<path d="M232.003 247.02H124V299.02H232.003C236.972 299.02 241 294.992 241 290.023V256.016C241 251.047 236.972 247.02 232.003 247.02Z" fill="#FFAB19"/>
<path d="M232.003 248.02C236.419 248.02 240 251.6 240 256.017V290.022C240 294.439 236.419 298.02 232.003 298.02H125V248.02H232.003Z" stroke="#CF8B17" stroke-width="2"/>
</g>
<rect x="122.191" y="249.02" width="4" height="48" fill="#FFAB19"/>
<path d="M0 200.02H37V230.02H0V200.02Z" fill="#FFAB19"/>
<path d="M36 201.02V229.02H1V201.02H36Z" stroke="#CF8B17" stroke-width="2"/>
<path d="M2 198.02H35V232.02H2V198.02Z" fill="#FFAB19"/>
</g>
<path d="M19.9961 42H17.8281V29.3203H19.9961V42ZM17.6523 25.957C17.6523 25.6055 17.7578 25.3086 17.9688 25.0664C18.1875 24.8242 18.5078 24.7031 18.9297 24.7031C19.3516 24.7031 19.6719 24.8242 19.8906 25.0664C20.1094 25.3086 20.2188 25.6055 20.2188 25.957C20.2188 26.3086 20.1094 26.6016 19.8906 26.8359C19.6719 27.0703 19.3516 27.1875 18.9297 27.1875C18.5078 27.1875 18.1875 27.0703 17.9688 26.8359C17.7578 26.6016 17.6523 26.3086 17.6523 25.957ZM24.543 42V30.9961H22.5391V29.3203H24.543V28.0195C24.543 26.6602 24.9062 25.6094 25.6328 24.8672C26.3594 24.125 27.3867 23.7539 28.7148 23.7539C29.2148 23.7539 29.7109 23.8203 30.2031 23.9531L30.0859 25.7109C29.7188 25.6406 29.3281 25.6055 28.9141 25.6055C28.2109 25.6055 27.668 25.8125 27.2852 26.2266C26.9023 26.6328 26.7109 27.2188 26.7109 27.9844V29.3203H29.418V30.9961H26.7109V42H24.543Z" fill="white"/>
<path d="M74.6163 34L96.6163 10V58L74.6163 34Z" fill="#CF8B17"/>
<rect x="96.6163" y="10" width="24" height="48" fill="#CF8B17"/>
<path d="M142.616 34L120.616 10V58L142.616 34Z" fill="#CF8B17"/>
<path d="M155.198 26.25V29.3203H157.566V30.9961H155.198V38.8594C155.198 39.3672 155.304 39.75 155.515 40.0078C155.726 40.2578 156.085 40.3828 156.593 40.3828C156.843 40.3828 157.187 40.3359 157.624 40.2422V42C157.054 42.1562 156.499 42.2344 155.96 42.2344C154.991 42.2344 154.261 41.9414 153.769 41.3555C153.276 40.7695 153.03 39.9375 153.03 38.8594V30.9961H150.722V29.3203H153.03V26.25H155.198ZM162.276 30.8555C163.237 29.6758 164.487 29.0859 166.026 29.0859C168.706 29.0859 170.058 30.5977 170.081 33.6211V42H167.913V33.6094C167.905 32.6953 167.694 32.0195 167.28 31.582C166.874 31.1445 166.237 30.9258 165.37 30.9258C164.667 30.9258 164.05 31.1133 163.519 31.4883C162.987 31.8633 162.573 32.3555 162.276 32.9648V42H160.108V24H162.276V30.8555ZM178.589 42.2344C176.87 42.2344 175.472 41.6719 174.394 40.5469C173.316 39.4141 172.776 37.9023 172.776 36.0117V35.6133C172.776 34.3555 173.015 33.2344 173.491 32.25C173.976 31.2578 174.648 30.4844 175.507 29.9297C176.374 29.3672 177.312 29.0859 178.319 29.0859C179.968 29.0859 181.249 29.6289 182.163 30.7148C183.077 31.8008 183.534 33.3555 183.534 35.3789V36.2812H174.944C174.976 37.5312 175.339 38.543 176.034 39.3164C176.737 40.082 177.628 40.4648 178.706 40.4648C179.472 40.4648 180.12 40.3086 180.651 39.9961C181.183 39.6836 181.648 39.2695 182.046 38.7539L183.37 39.7852C182.308 41.418 180.714 42.2344 178.589 42.2344ZM178.319 30.8672C177.444 30.8672 176.71 31.1875 176.116 31.8281C175.523 32.4609 175.155 33.3516 175.015 34.5H181.366V34.3359C181.304 33.2344 181.007 32.3828 180.476 31.7812C179.944 31.1719 179.226 30.8672 178.319 30.8672ZM188.105 29.3203L188.175 30.9141C189.144 29.6953 190.409 29.0859 191.972 29.0859C194.651 29.0859 196.003 30.5977 196.026 33.6211V42H193.858V33.6094C193.851 32.6953 193.64 32.0195 193.226 31.582C192.819 31.1445 192.183 30.9258 191.316 30.9258C190.612 30.9258 189.995 31.1133 189.464 31.4883C188.933 31.8633 188.519 32.3555 188.222 32.9648V42H186.054V29.3203H188.105Z" fill="white"/>
<path d="M22.9023 166.234C21.1836 166.234 19.7852 165.672 18.707 164.547C17.6289 163.414 17.0898 161.902 17.0898 160.012V159.613C17.0898 158.355 17.3281 157.234 17.8047 156.25C18.2891 155.258 18.9609 154.484 19.8203 153.93C20.6875 153.367 21.625 153.086 22.6328 153.086C24.2812 153.086 25.5625 153.629 26.4766 154.715C27.3906 155.801 27.8477 157.355 27.8477 159.379V160.281H19.2578C19.2891 161.531 19.6523 162.543 20.3477 163.316C21.0508 164.082 21.9414 164.465 23.0195 164.465C23.7852 164.465 24.4336 164.309 24.9648 163.996C25.4961 163.684 25.9609 163.27 26.3594 162.754L27.6836 163.785C26.6211 165.418 25.0273 166.234 22.9023 166.234ZM22.6328 154.867C21.7578 154.867 21.0234 155.188 20.4297 155.828C19.8359 156.461 19.4688 157.352 19.3281 158.5H25.6797V158.336C25.6172 157.234 25.3203 156.383 24.7891 155.781C24.2578 155.172 23.5391 154.867 22.6328 154.867ZM32.7227 166H30.5547V148H32.7227V166ZM43.5859 162.637C43.5859 162.051 43.3633 161.598 42.918 161.277C42.4805 160.949 41.7109 160.668 40.6094 160.434C39.5156 160.199 38.6445 159.918 37.9961 159.59C37.3555 159.262 36.8789 158.871 36.5664 158.418C36.2617 157.965 36.1094 157.426 36.1094 156.801C36.1094 155.762 36.5469 154.883 37.4219 154.164C38.3047 153.445 39.4297 153.086 40.7969 153.086C42.2344 153.086 43.3984 153.457 44.2891 154.199C45.1875 154.941 45.6367 155.891 45.6367 157.047H43.457C43.457 156.453 43.2031 155.941 42.6953 155.512C42.1953 155.082 41.5625 154.867 40.7969 154.867C40.0078 154.867 39.3906 155.039 38.9453 155.383C38.5 155.727 38.2773 156.176 38.2773 156.73C38.2773 157.254 38.4844 157.648 38.8984 157.914C39.3125 158.18 40.0586 158.434 41.1367 158.676C42.2227 158.918 43.1016 159.207 43.7734 159.543C44.4453 159.879 44.9414 160.285 45.2617 160.762C45.5898 161.23 45.7539 161.805 45.7539 162.484C45.7539 163.617 45.3008 164.527 44.3945 165.215C43.4883 165.895 42.3125 166.234 40.8672 166.234C39.8516 166.234 38.9531 166.055 38.1719 165.695C37.3906 165.336 36.7773 164.836 36.332 164.195C35.8945 163.547 35.6758 162.848 35.6758 162.098H37.8438C37.8828 162.824 38.1719 163.402 38.7109 163.832C39.2578 164.254 39.9766 164.465 40.8672 164.465C41.6875 164.465 42.3438 164.301 42.8359 163.973C43.3359 163.637 43.5859 163.191 43.5859 162.637ZM53.8398 166.234C52.1211 166.234 50.7227 165.672 49.6445 164.547C48.5664 163.414 48.0273 161.902 48.0273 160.012V159.613C48.0273 158.355 48.2656 157.234 48.7422 156.25C49.2266 155.258 49.8984 154.484 50.7578 153.93C51.625 153.367 52.5625 153.086 53.5703 153.086C55.2188 153.086 56.5 153.629 57.4141 154.715C58.3281 155.801 58.7852 157.355 58.7852 159.379V160.281H50.1953C50.2266 161.531 50.5898 162.543 51.2852 163.316C51.9883 164.082 52.8789 164.465 53.957 164.465C54.7227 164.465 55.3711 164.309 55.9023 163.996C56.4336 163.684 56.8984 163.27 57.2969 162.754L58.6211 163.785C57.5586 165.418 55.9648 166.234 53.8398 166.234ZM53.5703 154.867C52.6953 154.867 51.9609 155.188 51.3672 155.828C50.7734 156.461 50.4062 157.352 50.2656 158.5H56.6172V158.336C56.5547 157.234 56.2578 156.383 55.7266 155.781C55.1953 155.172 54.4766 154.867 53.5703 154.867Z" fill="white"/>
<defs>
<clipPath id="clip0_1_5584">
<rect width="241" height="85" fill="white"/>
</clipPath>
<clipPath id="clip1_1_5584">
<rect width="117" height="68" fill="white" transform="translate(124)"/>
</clipPath>
<clipPath id="clip2_1_5584">
<rect width="241" height="102" fill="white" transform="translate(0 115)"/>
</clipPath>
<clipPath id="clip3_1_5584">
<rect width="117" height="52" fill="white" transform="translate(124 132)"/>
</clipPath>
<clipPath id="clip4_1_5584">
<rect width="241" height="114" fill="white" transform="translate(0 198)"/>
</clipPath>
<clipPath id="clip5_1_5584">
<rect width="125" height="81" fill="white" transform="translate(0 230.02)"/>
</clipPath>
<clipPath id="clip6_1_5584">
<rect width="117" height="52" fill="white" transform="translate(124 247.02)"/>
</clipPath>
</defs>
</svg>
