<svg width="199" height="68" viewBox="0 0 199 68" fill="none" xmlns="http://www.w3.org/2000/svg">
<path d="M21.4985 0H8.99668C4.02795 0 0 4.02795 0 8.99668V59.0033C0 63.972 4.02796 68 8.99669 68H77.7615H89.1911V0H81.0038C78.9082 0 76.8784 0.731538 75.2646 2.06837L66.2558 9.53103C64.642 10.8679 62.6121 11.5994 60.5166 11.5994H41.9858C39.8903 11.5994 37.8604 10.8679 36.2466 9.53102L27.2378 2.06836C25.624 0.731537 23.5941 0 21.4985 0Z" fill="#FFAB19"/>
<path d="M8.99707 1H21.499C23.3615 1.00011 25.1653 1.65073 26.5996 2.83887L35.6084 10.3008C37.4014 11.7861 39.657 12.5995 41.9854 12.5996H60.5166C62.8451 12.5996 65.1004 11.7862 66.8936 10.3008L75.9023 2.83887C77.3368 1.65063 79.1413 1 81.0039 1H88.1914V67H8.99707C4.58062 67 1 63.4194 1 59.0029V8.99707C1 4.71872 4.35986 1.22503 8.58496 1.01074L8.99707 1Z" stroke="#CF8B17" stroke-width="2"/>
<g clip-path="url(#clip0_1_5590)">
<path d="M190.003 0H87V68H190.003C194.972 68 199 63.972 199 59.0033V8.99668C199 4.02795 194.972 0 190.003 0Z" fill="#FFAB19"/>
<path d="M190.003 1C194.419 1 198 4.58062 198 8.99707V59.0029C198 63.4194 194.419 67 190.003 67H88V1H190.003Z" stroke="#CF8B17" stroke-width="2"/>
</g>
<rect x="86" y="2" width="4" height="64" fill="#FFAB19"/>
<path d="M17.1133 35.5547C17.1133 33.6094 17.5742 32.0469 18.4961 30.8672C19.418 29.6797 20.625 29.0859 22.1172 29.0859C23.6016 29.0859 24.7773 29.5938 25.6445 30.6094V24H27.8125V42H25.8203L25.7148 40.6406C24.8477 41.7031 23.6406 42.2344 22.0938 42.2344C20.625 42.2344 19.4258 41.6328 18.4961 40.4297C17.5742 39.2266 17.1133 37.6562 17.1133 35.7188V35.5547ZM19.2812 35.8008C19.2812 37.2383 19.5781 38.3633 20.1719 39.1758C20.7656 39.9883 21.5859 40.3945 22.6328 40.3945C24.0078 40.3945 25.0117 39.7773 25.6445 38.543V32.7188C24.9961 31.5234 24 30.9258 22.6562 30.9258C21.5938 30.9258 20.7656 31.3359 20.1719 32.1562C19.5781 32.9766 19.2812 34.1914 19.2812 35.8008ZM36.4492 42.2344C34.7305 42.2344 33.332 41.6719 32.2539 40.5469C31.1758 39.4141 30.6367 37.9023 30.6367 36.0117V35.6133C30.6367 34.3555 30.875 33.2344 31.3516 32.25C31.8359 31.2578 32.5078 30.4844 33.3672 29.9297C34.2344 29.3672 35.1719 29.0859 36.1797 29.0859C37.8281 29.0859 39.1094 29.6289 40.0234 30.7148C40.9375 31.8008 41.3945 33.3555 41.3945 35.3789V36.2812H32.8047C32.8359 37.5312 33.1992 38.543 33.8945 39.3164C34.5977 40.082 35.4883 40.4648 36.5664 40.4648C37.332 40.4648 37.9805 40.3086 38.5117 39.9961C39.043 39.6836 39.5078 39.2695 39.9062 38.7539L41.2305 39.7852C40.168 41.418 38.5742 42.2344 36.4492 42.2344ZM36.1797 30.8672C35.3047 30.8672 34.5703 31.1875 33.9766 31.8281C33.3828 32.4609 33.0156 33.3516 32.875 34.5H39.2266V34.3359C39.1641 33.2344 38.8672 32.3828 38.3359 31.7812C37.8047 31.1719 37.0859 30.8672 36.1797 30.8672ZM46.2695 42H44.1016V24H46.2695V42ZM55.0117 42.2344C53.293 42.2344 51.8945 41.6719 50.8164 40.5469C49.7383 39.4141 49.1992 37.9023 49.1992 36.0117V35.6133C49.1992 34.3555 49.4375 33.2344 49.9141 32.25C50.3984 31.2578 51.0703 30.4844 51.9297 29.9297C52.7969 29.3672 53.7344 29.0859 54.7422 29.0859C56.3906 29.0859 57.6719 29.6289 58.5859 30.7148C59.5 31.8008 59.957 33.3555 59.957 35.3789V36.2812H51.3672C51.3984 37.5312 51.7617 38.543 52.457 39.3164C53.1602 40.082 54.0508 40.4648 55.1289 40.4648C55.8945 40.4648 56.543 40.3086 57.0742 39.9961C57.6055 39.6836 58.0703 39.2695 58.4688 38.7539L59.793 39.7852C58.7305 41.418 57.1367 42.2344 55.0117 42.2344ZM54.7422 30.8672C53.8672 30.8672 53.1328 31.1875 52.5391 31.8281C51.9453 32.4609 51.5781 33.3516 51.4375 34.5H57.7891V34.3359C57.7266 33.2344 57.4297 32.3828 56.8984 31.7812C56.3672 31.1719 55.6484 30.8672 54.7422 30.8672ZM65.418 26.25V29.3203H67.7852V30.9961H65.418V38.8594C65.418 39.3672 65.5234 39.75 65.7344 40.0078C65.9453 40.2578 66.3047 40.3828 66.8125 40.3828C67.0625 40.3828 67.4062 40.3359 67.8438 40.2422V42C67.2734 42.1562 66.7188 42.2344 66.1797 42.2344C65.2109 42.2344 64.4805 41.9414 63.9883 41.3555C63.4961 40.7695 63.25 39.9375 63.25 38.8594V30.9961H60.9414V29.3203H63.25V26.25H65.418ZM75.5898 42.2344C73.8711 42.2344 72.4727 41.6719 71.3945 40.5469C70.3164 39.4141 69.7773 37.9023 69.7773 36.0117V35.6133C69.7773 34.3555 70.0156 33.2344 70.4922 32.25C70.9766 31.2578 71.6484 30.4844 72.5078 29.9297C73.375 29.3672 74.3125 29.0859 75.3203 29.0859C76.9688 29.0859 78.25 29.6289 79.1641 30.7148C80.0781 31.8008 80.5352 33.3555 80.5352 35.3789V36.2812H71.9453C71.9766 37.5312 72.3398 38.543 73.0352 39.3164C73.7383 40.082 74.6289 40.4648 75.707 40.4648C76.4727 40.4648 77.1211 40.3086 77.6523 39.9961C78.1836 39.6836 78.6484 39.2695 79.0469 38.7539L80.3711 39.7852C79.3086 41.418 77.7148 42.2344 75.5898 42.2344ZM75.3203 30.8672C74.4453 30.8672 73.7109 31.1875 73.1172 31.8281C72.5234 32.4609 72.1562 33.3516 72.0156 34.5H78.3672V34.3359C78.3047 33.2344 78.0078 32.3828 77.4766 31.7812C76.9453 31.1719 76.2266 30.8672 75.3203 30.8672ZM91.9492 26.25V29.3203H94.3164V30.9961H91.9492V38.8594C91.9492 39.3672 92.0547 39.75 92.2656 40.0078C92.4766 40.2578 92.8359 40.3828 93.3438 40.3828C93.5938 40.3828 93.9375 40.3359 94.375 40.2422V42C93.8047 42.1562 93.25 42.2344 92.7109 42.2344C91.7422 42.2344 91.0117 41.9414 90.5195 41.3555C90.0273 40.7695 89.7812 39.9375 89.7812 38.8594V30.9961H87.4727V29.3203H89.7812V26.25H91.9492ZM99.0273 30.8555C99.9883 29.6758 101.238 29.0859 102.777 29.0859C105.457 29.0859 106.809 30.5977 106.832 33.6211V42H104.664V33.6094C104.656 32.6953 104.445 32.0195 104.031 31.582C103.625 31.1445 102.988 30.9258 102.121 30.9258C101.418 30.9258 100.801 31.1133 100.27 31.4883C99.7383 31.8633 99.3242 32.3555 99.0273 32.9648V42H96.8594V24H99.0273V30.8555ZM112.434 42H110.266V29.3203H112.434V42ZM110.09 25.957C110.09 25.6055 110.195 25.3086 110.406 25.0664C110.625 24.8242 110.945 24.7031 111.367 24.7031C111.789 24.7031 112.109 24.8242 112.328 25.0664C112.547 25.3086 112.656 25.6055 112.656 25.957C112.656 26.3086 112.547 26.6016 112.328 26.8359C112.109 27.0703 111.789 27.1875 111.367 27.1875C110.945 27.1875 110.625 27.0703 110.406 26.8359C110.195 26.6016 110.09 26.3086 110.09 25.957ZM123.297 38.6367C123.297 38.0508 123.074 37.5977 122.629 37.2773C122.191 36.9492 121.422 36.668 120.32 36.4336C119.227 36.1992 118.355 35.918 117.707 35.5898C117.066 35.2617 116.59 34.8711 116.277 34.418C115.973 33.9648 115.82 33.4258 115.82 32.8008C115.82 31.7617 116.258 30.8828 117.133 30.1641C118.016 29.4453 119.141 29.0859 120.508 29.0859C121.945 29.0859 123.109 29.457 124 30.1992C124.898 30.9414 125.348 31.8906 125.348 33.0469H123.168C123.168 32.4531 122.914 31.9414 122.406 31.5117C121.906 31.082 121.273 30.8672 120.508 30.8672C119.719 30.8672 119.102 31.0391 118.656 31.3828C118.211 31.7266 117.988 32.1758 117.988 32.7305C117.988 33.2539 118.195 33.6484 118.609 33.9141C119.023 34.1797 119.77 34.4336 120.848 34.6758C121.934 34.918 122.812 35.207 123.484 35.543C124.156 35.8789 124.652 36.2852 124.973 36.7617C125.301 37.2305 125.465 37.8047 125.465 38.4844C125.465 39.6172 125.012 40.5273 124.105 41.2148C123.199 41.8945 122.023 42.2344 120.578 42.2344C119.562 42.2344 118.664 42.0547 117.883 41.6953C117.102 41.3359 116.488 40.8359 116.043 40.1953C115.605 39.5469 115.387 38.8477 115.387 38.0977H117.555C117.594 38.8242 117.883 39.4023 118.422 39.832C118.969 40.2539 119.688 40.4648 120.578 40.4648C121.398 40.4648 122.055 40.3008 122.547 39.9727C123.047 39.6367 123.297 39.1914 123.297 38.6367ZM139.328 40.4648C140.102 40.4648 140.777 40.2305 141.355 39.7617C141.934 39.293 142.254 38.707 142.316 38.0039H144.367C144.328 38.7305 144.078 39.4219 143.617 40.0781C143.156 40.7344 142.539 41.2578 141.766 41.6484C141 42.0391 140.188 42.2344 139.328 42.2344C137.602 42.2344 136.227 41.6602 135.203 40.5117C134.188 39.3555 133.68 37.7773 133.68 35.7773V35.4141C133.68 34.1797 133.906 33.082 134.359 32.1211C134.812 31.1602 135.461 30.4141 136.305 29.8828C137.156 29.3516 138.16 29.0859 139.316 29.0859C140.738 29.0859 141.918 29.5117 142.855 30.3633C143.801 31.2148 144.305 32.3203 144.367 33.6797H142.316C142.254 32.8594 141.941 32.1875 141.379 31.6641C140.824 31.1328 140.137 30.8672 139.316 30.8672C138.215 30.8672 137.359 31.2656 136.75 32.0625C136.148 32.8516 135.848 33.9961 135.848 35.4961V35.9062C135.848 37.3672 136.148 38.4922 136.75 39.2812C137.352 40.0703 138.211 40.4648 139.328 40.4648ZM149.16 42H146.992V24H149.16V42ZM152.066 35.543C152.066 34.3008 152.309 33.1836 152.793 32.1914C153.285 31.1992 153.965 30.4336 154.832 29.8945C155.707 29.3555 156.703 29.0859 157.82 29.0859C159.547 29.0859 160.941 29.6836 162.004 30.8789C163.074 32.0742 163.609 33.6641 163.609 35.6484V35.8008C163.609 37.0352 163.371 38.1445 162.895 39.1289C162.426 40.1055 161.75 40.8672 160.867 41.4141C159.992 41.9609 158.984 42.2344 157.844 42.2344C156.125 42.2344 154.73 41.6367 153.66 40.4414C152.598 39.2461 152.066 37.6641 152.066 35.6953V35.543ZM154.246 35.8008C154.246 37.207 154.57 38.3359 155.219 39.1875C155.875 40.0391 156.75 40.4648 157.844 40.4648C158.945 40.4648 159.82 40.0352 160.469 39.1758C161.117 38.3086 161.441 37.0977 161.441 35.543C161.441 34.1523 161.109 33.0273 160.445 32.168C159.789 31.3008 158.914 30.8672 157.82 30.8672C156.75 30.8672 155.887 31.293 155.23 32.1445C154.574 32.9961 154.246 34.2148 154.246 35.8008ZM168.379 29.3203L168.449 30.9141C169.418 29.6953 170.684 29.0859 172.246 29.0859C174.926 29.0859 176.277 30.5977 176.301 33.6211V42H174.133V33.6094C174.125 32.6953 173.914 32.0195 173.5 31.582C173.094 31.1445 172.457 30.9258 171.59 30.9258C170.887 30.9258 170.27 31.1133 169.738 31.4883C169.207 31.8633 168.793 32.3555 168.496 32.9648V42H166.328V29.3203H168.379ZM184.832 42.2344C183.113 42.2344 181.715 41.6719 180.637 40.5469C179.559 39.4141 179.02 37.9023 179.02 36.0117V35.6133C179.02 34.3555 179.258 33.2344 179.734 32.25C180.219 31.2578 180.891 30.4844 181.75 29.9297C182.617 29.3672 183.555 29.0859 184.562 29.0859C186.211 29.0859 187.492 29.6289 188.406 30.7148C189.32 31.8008 189.777 33.3555 189.777 35.3789V36.2812H181.188C181.219 37.5312 181.582 38.543 182.277 39.3164C182.98 40.082 183.871 40.4648 184.949 40.4648C185.715 40.4648 186.363 40.3086 186.895 39.9961C187.426 39.6836 187.891 39.2695 188.289 38.7539L189.613 39.7852C188.551 41.418 186.957 42.2344 184.832 42.2344ZM184.562 30.8672C183.688 30.8672 182.953 31.1875 182.359 31.8281C181.766 32.4609 181.398 33.3516 181.258 34.5H187.609V34.3359C187.547 33.2344 187.25 32.3828 186.719 31.7812C186.188 31.1719 185.469 30.8672 184.562 30.8672Z" fill="white"/>
<defs>
<clipPath id="clip0_1_5590">
<rect width="112" height="68" fill="white" transform="translate(87)"/>
</clipPath>
</defs>
</svg>
