<svg width="316" height="80" viewBox="0 0 316 80" fill="none" xmlns="http://www.w3.org/2000/svg">
<path d="M0 8.99668C0 4.02795 4.02795 0 8.99668 0H21.4985C23.5941 0 25.624 0.731537 27.2378 2.06836L36.2466 9.53102C37.8604 10.8679 39.8903 11.5994 41.9858 11.5994H60.5166C62.6121 11.5994 64.642 10.8679 66.2558 9.53103L75.2646 2.06837C76.8784 0.731538 78.9082 0 81.0038 0H89.1911V68H81.1978C78.9849 68 76.8496 68.8156 75.2002 70.2908L66.9275 77.6896C65.2781 79.1648 63.1428 79.9803 60.9299 79.9803H42.0791C39.9269 79.9803 37.8461 79.2089 36.2141 77.8059L27.337 70.1744C25.7051 68.7715 23.6242 68 21.4721 68H8.99667C4.02794 68 0 63.972 0 59.0033V8.99668Z" fill="#FFAB19"/>
<path d="M8.99707 1H21.499C23.3615 1.00011 25.1653 1.65073 26.5996 2.83887L35.6084 10.3008C37.4014 11.7861 39.657 12.5995 41.9854 12.5996H60.5166C62.8451 12.5996 65.1004 11.7862 66.8936 10.3008L75.9023 2.83887C77.3368 1.65063 79.1413 1 81.0039 1H88.1914V67H81.1982C78.7394 67 76.366 67.9058 74.5332 69.5449L66.2607 76.9443C64.7947 78.2555 62.8965 78.9805 60.9297 78.9805H42.0791C40.1663 78.9805 38.3167 78.2948 36.8662 77.0479L27.9893 69.416C26.1759 67.8571 23.863 67 21.4717 67H8.99707C4.58063 67 1 63.4194 1 59.0029V8.99707C1 4.71872 4.35986 1.22503 8.58496 1.01074L8.99707 1Z" stroke="#CF8B17" stroke-width="2"/>
<g clip-path="url(#clip0_1_5589)">
<path d="M307.003 0H87V68H307.003C311.972 68 316 63.972 316 59.0033V8.99668C316 4.02795 311.972 0 307.003 0Z" fill="#FFAB19"/>
<path d="M307.003 1C311.419 1 315 4.58062 315 8.99707V59.0029C315 63.4194 311.419 67 307.003 67H88V1H307.003Z" stroke="#CF8B17" stroke-width="2"/>
</g>
<rect x="86" y="2" width="4" height="64" fill="#FFAB19"/>
<path d="M22.7266 40.4648C23.5 40.4648 24.1758 40.2305 24.7539 39.7617C25.332 39.293 25.6523 38.707 25.7148 38.0039H27.7656C27.7266 38.7305 27.4766 39.4219 27.0156 40.0781C26.5547 40.7344 25.9375 41.2578 25.1641 41.6484C24.3984 42.0391 23.5859 42.2344 22.7266 42.2344C21 42.2344 19.625 41.6602 18.6016 40.5117C17.5859 39.3555 17.0781 37.7773 17.0781 35.7773V35.4141C17.0781 34.1797 17.3047 33.082 17.7578 32.1211C18.2109 31.1602 18.8594 30.4141 19.7031 29.8828C20.5547 29.3516 21.5586 29.0859 22.7148 29.0859C24.1367 29.0859 25.3164 29.5117 26.2539 30.3633C27.1992 31.2148 27.7031 32.3203 27.7656 33.6797H25.7148C25.6523 32.8594 25.3398 32.1875 24.7773 31.6641C24.2227 31.1328 23.5352 30.8672 22.7148 30.8672C21.6133 30.8672 20.7578 31.2656 20.1484 32.0625C19.5469 32.8516 19.2461 33.9961 19.2461 35.4961V35.9062C19.2461 37.3672 19.5469 38.4922 20.1484 39.2812C20.75 40.0703 21.6094 40.4648 22.7266 40.4648ZM36.332 31.2656C36.0039 31.2109 35.6484 31.1836 35.2656 31.1836C33.8438 31.1836 32.8789 31.7891 32.3711 33V42H30.2031V29.3203H32.3125L32.3477 30.7852C33.0586 29.6523 34.0664 29.0859 35.3711 29.0859C35.793 29.0859 36.1133 29.1406 36.332 29.25V31.2656ZM43.3633 42.2344C41.6445 42.2344 40.2461 41.6719 39.168 40.5469C38.0898 39.4141 37.5508 37.9023 37.5508 36.0117V35.6133C37.5508 34.3555 37.7891 33.2344 38.2656 32.25C38.75 31.2578 39.4219 30.4844 40.2812 29.9297C41.1484 29.3672 42.0859 29.0859 43.0938 29.0859C44.7422 29.0859 46.0234 29.6289 46.9375 30.7148C47.8516 31.8008 48.3086 33.3555 48.3086 35.3789V36.2812H39.7188C39.75 37.5312 40.1133 38.543 40.8086 39.3164C41.5117 40.082 42.4023 40.4648 43.4805 40.4648C44.2461 40.4648 44.8945 40.3086 45.4258 39.9961C45.957 39.6836 46.4219 39.2695 46.8203 38.7539L48.1445 39.7852C47.082 41.418 45.4883 42.2344 43.3633 42.2344ZM43.0938 30.8672C42.2188 30.8672 41.4844 31.1875 40.8906 31.8281C40.2969 32.4609 39.9297 33.3516 39.7891 34.5H46.1406V34.3359C46.0781 33.2344 45.7812 32.3828 45.25 31.7812C44.7188 31.1719 44 30.8672 43.0938 30.8672ZM58.6562 42C58.5312 41.75 58.4297 41.3047 58.3516 40.6641C57.3438 41.7109 56.1406 42.2344 54.7422 42.2344C53.4922 42.2344 52.4648 41.8828 51.6602 41.1797C50.8633 40.4688 50.4648 39.5703 50.4648 38.4844C50.4648 37.1641 50.9648 36.1406 51.9648 35.4141C52.9727 34.6797 54.3867 34.3125 56.207 34.3125H58.3164V33.3164C58.3164 32.5586 58.0898 31.957 57.6367 31.5117C57.1836 31.0586 56.5156 30.832 55.6328 30.832C54.8594 30.832 54.2109 31.0273 53.6875 31.418C53.1641 31.8086 52.9023 32.2812 52.9023 32.8359H50.7227C50.7227 32.2031 50.9453 31.5938 51.3906 31.0078C51.8438 30.4141 52.4531 29.9453 53.2188 29.6016C53.9922 29.2578 54.8398 29.0859 55.7617 29.0859C57.2227 29.0859 58.3672 29.4531 59.1953 30.1875C60.0234 30.9141 60.4531 31.918 60.4844 33.1992V39.0352C60.4844 40.1992 60.6328 41.125 60.9297 41.8125V42H58.6562ZM55.0586 40.3477C55.7383 40.3477 56.3828 40.1719 56.9922 39.8203C57.6016 39.4688 58.043 39.0117 58.3164 38.4492V35.8477H56.6172C53.9609 35.8477 52.6328 36.625 52.6328 38.1797C52.6328 38.8594 52.8594 39.3906 53.3125 39.7734C53.7656 40.1562 54.3477 40.3477 55.0586 40.3477ZM66.8242 26.25V29.3203H69.1914V30.9961H66.8242V38.8594C66.8242 39.3672 66.9297 39.75 67.1406 40.0078C67.3516 40.2578 67.7109 40.3828 68.2188 40.3828C68.4688 40.3828 68.8125 40.3359 69.25 40.2422V42C68.6797 42.1562 68.125 42.2344 67.5859 42.2344C66.6172 42.2344 65.8867 41.9414 65.3945 41.3555C64.9023 40.7695 64.6562 39.9375 64.6562 38.8594V30.9961H62.3477V29.3203H64.6562V26.25H66.8242ZM76.9961 42.2344C75.2773 42.2344 73.8789 41.6719 72.8008 40.5469C71.7227 39.4141 71.1836 37.9023 71.1836 36.0117V35.6133C71.1836 34.3555 71.4219 33.2344 71.8984 32.25C72.3828 31.2578 73.0547 30.4844 73.9141 29.9297C74.7812 29.3672 75.7188 29.0859 76.7266 29.0859C78.375 29.0859 79.6562 29.6289 80.5703 30.7148C81.4844 31.8008 81.9414 33.3555 81.9414 35.3789V36.2812H73.3516C73.3828 37.5312 73.7461 38.543 74.4414 39.3164C75.1445 40.082 76.0352 40.4648 77.1133 40.4648C77.8789 40.4648 78.5273 40.3086 79.0586 39.9961C79.5898 39.6836 80.0547 39.2695 80.4531 38.7539L81.7773 39.7852C80.7148 41.418 79.1211 42.2344 76.9961 42.2344ZM76.7266 30.8672C75.8516 30.8672 75.1172 31.1875 74.5234 31.8281C73.9297 32.4609 73.5625 33.3516 73.4219 34.5H79.7734V34.3359C79.7109 33.2344 79.4141 32.3828 78.8828 31.7812C78.3516 31.1719 77.6328 30.8672 76.7266 30.8672ZM95.5 40.4648C96.2734 40.4648 96.9492 40.2305 97.5273 39.7617C98.1055 39.293 98.4258 38.707 98.4883 38.0039H100.539C100.5 38.7305 100.25 39.4219 99.7891 40.0781C99.3281 40.7344 98.7109 41.2578 97.9375 41.6484C97.1719 42.0391 96.3594 42.2344 95.5 42.2344C93.7734 42.2344 92.3984 41.6602 91.375 40.5117C90.3594 39.3555 89.8516 37.7773 89.8516 35.7773V35.4141C89.8516 34.1797 90.0781 33.082 90.5312 32.1211C90.9844 31.1602 91.6328 30.4141 92.4766 29.8828C93.3281 29.3516 94.332 29.0859 95.4883 29.0859C96.9102 29.0859 98.0898 29.5117 99.0273 30.3633C99.9727 31.2148 100.477 32.3203 100.539 33.6797H98.4883C98.4258 32.8594 98.1133 32.1875 97.5508 31.6641C96.9961 31.1328 96.3086 30.8672 95.4883 30.8672C94.3867 30.8672 93.5312 31.2656 92.9219 32.0625C92.3203 32.8516 92.0195 33.9961 92.0195 35.4961V35.9062C92.0195 37.3672 92.3203 38.4922 92.9219 39.2812C93.5234 40.0703 94.3828 40.4648 95.5 40.4648ZM105.332 42H103.164V24H105.332V42ZM108.238 35.543C108.238 34.3008 108.48 33.1836 108.965 32.1914C109.457 31.1992 110.137 30.4336 111.004 29.8945C111.879 29.3555 112.875 29.0859 113.992 29.0859C115.719 29.0859 117.113 29.6836 118.176 30.8789C119.246 32.0742 119.781 33.6641 119.781 35.6484V35.8008C119.781 37.0352 119.543 38.1445 119.066 39.1289C118.598 40.1055 117.922 40.8672 117.039 41.4141C116.164 41.9609 115.156 42.2344 114.016 42.2344C112.297 42.2344 110.902 41.6367 109.832 40.4414C108.77 39.2461 108.238 37.6641 108.238 35.6953V35.543ZM110.418 35.8008C110.418 37.207 110.742 38.3359 111.391 39.1875C112.047 40.0391 112.922 40.4648 114.016 40.4648C115.117 40.4648 115.992 40.0352 116.641 39.1758C117.289 38.3086 117.613 37.0977 117.613 35.543C117.613 34.1523 117.281 33.0273 116.617 32.168C115.961 31.3008 115.086 30.8672 113.992 30.8672C112.922 30.8672 112.059 31.293 111.402 32.1445C110.746 32.9961 110.418 34.2148 110.418 35.8008ZM124.551 29.3203L124.621 30.9141C125.59 29.6953 126.855 29.0859 128.418 29.0859C131.098 29.0859 132.449 30.5977 132.473 33.6211V42H130.305V33.6094C130.297 32.6953 130.086 32.0195 129.672 31.582C129.266 31.1445 128.629 30.9258 127.762 30.9258C127.059 30.9258 126.441 31.1133 125.91 31.4883C125.379 31.8633 124.965 32.3555 124.668 32.9648V42H122.5V29.3203H124.551ZM141.004 42.2344C139.285 42.2344 137.887 41.6719 136.809 40.5469C135.73 39.4141 135.191 37.9023 135.191 36.0117V35.6133C135.191 34.3555 135.43 33.2344 135.906 32.25C136.391 31.2578 137.062 30.4844 137.922 29.9297C138.789 29.3672 139.727 29.0859 140.734 29.0859C142.383 29.0859 143.664 29.6289 144.578 30.7148C145.492 31.8008 145.949 33.3555 145.949 35.3789V36.2812H137.359C137.391 37.5312 137.754 38.543 138.449 39.3164C139.152 40.082 140.043 40.4648 141.121 40.4648C141.887 40.4648 142.535 40.3086 143.066 39.9961C143.598 39.6836 144.062 39.2695 144.461 38.7539L145.785 39.7852C144.723 41.418 143.129 42.2344 141.004 42.2344ZM140.734 30.8672C139.859 30.8672 139.125 31.1875 138.531 31.8281C137.938 32.4609 137.57 33.3516 137.43 34.5H143.781V34.3359C143.719 33.2344 143.422 32.3828 142.891 31.7812C142.359 31.1719 141.641 30.8672 140.734 30.8672ZM153.848 35.543C153.848 34.3008 154.09 33.1836 154.574 32.1914C155.066 31.1992 155.746 30.4336 156.613 29.8945C157.488 29.3555 158.484 29.0859 159.602 29.0859C161.328 29.0859 162.723 29.6836 163.785 30.8789C164.855 32.0742 165.391 33.6641 165.391 35.6484V35.8008C165.391 37.0352 165.152 38.1445 164.676 39.1289C164.207 40.1055 163.531 40.8672 162.648 41.4141C161.773 41.9609 160.766 42.2344 159.625 42.2344C157.906 42.2344 156.512 41.6367 155.441 40.4414C154.379 39.2461 153.848 37.6641 153.848 35.6953V35.543ZM156.027 35.8008C156.027 37.207 156.352 38.3359 157 39.1875C157.656 40.0391 158.531 40.4648 159.625 40.4648C160.727 40.4648 161.602 40.0352 162.25 39.1758C162.898 38.3086 163.223 37.0977 163.223 35.543C163.223 34.1523 162.891 33.0273 162.227 32.168C161.57 31.3008 160.695 30.8672 159.602 30.8672C158.531 30.8672 157.668 31.293 157.012 32.1445C156.355 32.9961 156.027 34.2148 156.027 35.8008ZM169.176 42V30.9961H167.172V29.3203H169.176V28.0195C169.176 26.6602 169.539 25.6094 170.266 24.8672C170.992 24.125 172.02 23.7539 173.348 23.7539C173.848 23.7539 174.344 23.8203 174.836 23.9531L174.719 25.7109C174.352 25.6406 173.961 25.6055 173.547 25.6055C172.844 25.6055 172.301 25.8125 171.918 26.2266C171.535 26.6328 171.344 27.2188 171.344 27.9844V29.3203H174.051V30.9961H171.344V42H169.176Z" fill="white"/>
<rect x="183.5" y="12.5" width="123.71" height="43" rx="19.5" fill="#CF8B17"/>
<rect x="183.5" y="12.5" width="123.71" height="43" rx="19.5" stroke="#CF8B17"/>
<path d="M202.832 29.3203L202.891 30.7266C203.82 29.6328 205.074 29.0859 206.652 29.0859C208.426 29.0859 209.633 29.7656 210.273 31.125C210.695 30.5156 211.242 30.0234 211.914 29.6484C212.594 29.2734 213.395 29.0859 214.316 29.0859C217.098 29.0859 218.512 30.5586 218.559 33.5039V42H216.391V33.6328C216.391 32.7266 216.184 32.0508 215.77 31.6055C215.355 31.1523 214.66 30.9258 213.684 30.9258C212.879 30.9258 212.211 31.168 211.68 31.6523C211.148 32.1289 210.84 32.7734 210.754 33.5859V42H208.574V33.6914C208.574 31.8477 207.672 30.9258 205.867 30.9258C204.445 30.9258 203.473 31.5312 202.949 32.7422V42H200.781V29.3203H202.832ZM225.988 38.8242L228.941 29.3203H231.262L226.164 43.957C225.375 46.0664 224.121 47.1211 222.402 47.1211L221.992 47.0859L221.184 46.9336V45.1758L221.77 45.2227C222.504 45.2227 223.074 45.0742 223.48 44.7773C223.895 44.4805 224.234 43.9375 224.5 43.1484L224.98 41.8594L220.457 29.3203H222.824L225.988 38.8242ZM240.59 38.6367C240.59 38.0508 240.367 37.5977 239.922 37.2773C239.484 36.9492 238.715 36.668 237.613 36.4336C236.52 36.1992 235.648 35.918 235 35.5898C234.359 35.2617 233.883 34.8711 233.57 34.418C233.266 33.9648 233.113 33.4258 233.113 32.8008C233.113 31.7617 233.551 30.8828 234.426 30.1641C235.309 29.4453 236.434 29.0859 237.801 29.0859C239.238 29.0859 240.402 29.457 241.293 30.1992C242.191 30.9414 242.641 31.8906 242.641 33.0469H240.461C240.461 32.4531 240.207 31.9414 239.699 31.5117C239.199 31.082 238.566 30.8672 237.801 30.8672C237.012 30.8672 236.395 31.0391 235.949 31.3828C235.504 31.7266 235.281 32.1758 235.281 32.7305C235.281 33.2539 235.488 33.6484 235.902 33.9141C236.316 34.1797 237.062 34.4336 238.141 34.6758C239.227 34.918 240.105 35.207 240.777 35.543C241.449 35.8789 241.945 36.2852 242.266 36.7617C242.594 37.2305 242.758 37.8047 242.758 38.4844C242.758 39.6172 242.305 40.5273 241.398 41.2148C240.492 41.8945 239.316 42.2344 237.871 42.2344C236.855 42.2344 235.957 42.0547 235.176 41.6953C234.395 41.3359 233.781 40.8359 233.336 40.1953C232.898 39.5469 232.68 38.8477 232.68 38.0977H234.848C234.887 38.8242 235.176 39.4023 235.715 39.832C236.262 40.2539 236.98 40.4648 237.871 40.4648C238.691 40.4648 239.348 40.3008 239.84 39.9727C240.34 39.6367 240.59 39.1914 240.59 38.6367ZM250.844 42.2344C249.125 42.2344 247.727 41.6719 246.648 40.5469C245.57 39.4141 245.031 37.9023 245.031 36.0117V35.6133C245.031 34.3555 245.27 33.2344 245.746 32.25C246.23 31.2578 246.902 30.4844 247.762 29.9297C248.629 29.3672 249.566 29.0859 250.574 29.0859C252.223 29.0859 253.504 29.6289 254.418 30.7148C255.332 31.8008 255.789 33.3555 255.789 35.3789V36.2812H247.199C247.23 37.5312 247.594 38.543 248.289 39.3164C248.992 40.082 249.883 40.4648 250.961 40.4648C251.727 40.4648 252.375 40.3086 252.906 39.9961C253.438 39.6836 253.902 39.2695 254.301 38.7539L255.625 39.7852C254.562 41.418 252.969 42.2344 250.844 42.2344ZM250.574 30.8672C249.699 30.8672 248.965 31.1875 248.371 31.8281C247.777 32.4609 247.41 33.3516 247.27 34.5H253.621V34.3359C253.559 33.2344 253.262 32.3828 252.73 31.7812C252.199 31.1719 251.48 30.8672 250.574 30.8672ZM260.664 42H258.496V24H260.664V42ZM265.211 42V30.9961H263.207V29.3203H265.211V28.0195C265.211 26.6602 265.574 25.6094 266.301 24.8672C267.027 24.125 268.055 23.7539 269.383 23.7539C269.883 23.7539 270.379 23.8203 270.871 23.9531L270.754 25.7109C270.387 25.6406 269.996 25.6055 269.582 25.6055C268.879 25.6055 268.336 25.8125 267.953 26.2266C267.57 26.6328 267.379 27.2188 267.379 27.9844V29.3203H270.086V30.9961H267.379V42H265.211Z" fill="white"/>
<g clip-path="url(#clip1_1_5589)">
<g opacity="0.1">
<path opacity="0.1" d="M291.71 32.045C291.712 32.3644 291.65 32.681 291.528 32.9763C291.406 33.2715 291.226 33.5396 291 33.765L287.08 37.685C286.621 38.1399 286.001 38.3952 285.355 38.3952C284.709 38.3952 284.089 38.1399 283.63 37.685L279.72 33.765C279.492 33.5401 279.311 33.2724 279.188 32.9771C279.064 32.6819 279 32.365 279 32.045C279.002 31.3978 279.257 30.7769 279.71 30.315C280 30.075 280.43 29.605 285.36 29.605C290.29 29.605 290.75 30.065 291 30.315C291.226 30.5425 291.405 30.8124 291.527 31.1093C291.649 31.4061 291.711 31.7241 291.71 32.045Z" fill="#231F20"/>
</g>
<path d="M285.36 37.3948C284.984 37.3915 284.625 37.2407 284.36 36.9748L280.42 33.0548C280.161 32.7863 280.016 32.4278 280.016 32.0548C280.016 31.6817 280.161 31.3232 280.42 31.0548C280.98 30.4948 289.73 30.4948 290.29 31.0548C290.549 31.3232 290.694 31.6817 290.694 32.0548C290.694 32.4278 290.549 32.7863 290.29 33.0548L286.37 36.9748C286.102 37.2431 285.739 37.3941 285.36 37.3948Z" fill="white"/>
</g>
<defs>
<clipPath id="clip0_1_5589">
<rect width="229" height="68" fill="white" transform="translate(87)"/>
</clipPath>
<clipPath id="clip1_1_5589">
<rect width="12.71" height="8.79" fill="white" transform="translate(279 29.605)"/>
</clipPath>
</defs>
</svg>
