<svg width="207" height="104" viewBox="0 0 207 104" fill="none" xmlns="http://www.w3.org/2000/svg">
<path d="M8.99667 91.9998H21.4721C23.6242 91.9998 25.7051 92.7713 27.337 94.1743L36.2141 101.806C37.8461 103.209 39.9269 103.98 42.0791 103.98H60.9299C63.1428 103.98 65.2781 103.165 66.9275 101.689L75.2002 94.2906C76.8496 92.8154 78.9849 91.9998 81.1978 91.9998H151.191V23.9999H142.449C142.449 23.9999 124.664 0.38623 73.741 0.38623C22.8184 0.38623 0 23.9999 0 23.9999V83.0032C0 87.9719 4.02794 91.9998 8.99667 91.9998Z" fill="#FFBF00"/>
<path d="M73.7412 1.38623C99.0407 1.38627 116.052 7.25042 126.712 13.0708C132.045 15.9826 135.796 18.8884 138.206 21.0542C139.411 22.137 140.281 23.0349 140.845 23.6567C141.127 23.9676 141.333 24.2094 141.466 24.3706C141.532 24.4512 141.581 24.5124 141.611 24.5513C141.627 24.5706 141.637 24.5848 141.644 24.5933L141.65 24.6011L141.95 24.9995H150.191V90.9995H81.1982C78.7394 90.9995 76.366 91.9062 74.5332 93.5454L66.2607 100.944C64.7947 102.255 62.8966 102.98 60.9297 102.98H42.0791C40.1662 102.98 38.3168 102.294 36.8662 101.047L27.9893 93.4155C26.1759 91.8566 23.863 90.9995 21.4717 90.9995H8.99707C4.58071 90.9995 1.00014 87.4197 1 83.0034V24.4194C1.17048 24.2561 1.41879 24.0231 1.74609 23.731C2.45004 23.1026 3.51894 22.1981 4.96289 21.1089C7.85155 18.93 12.2413 16.0125 18.2139 13.0913C30.1548 7.25101 48.4406 1.38623 73.7412 1.38623Z" stroke="#CC9900" stroke-width="2"/>
<g clip-path="url(#clip0_1_3986)">
<path d="M198.003 24H149V92H198.003C202.972 92 207 87.972 207 83.0033V32.9967C207 28.028 202.972 24 198.003 24Z" fill="#FFBF00"/>
<path d="M198.003 25C202.419 25 206 28.5806 206 32.9971V83.0029C206 87.4194 202.419 91 198.003 91H150V25H198.003Z" stroke="#CC9900" stroke-width="2"/>
</g>
<rect x="147" y="26" width="4" height="64" fill="#FFBF00"/>
<path d="M28.8672 63.0117L31.3047 53.3203H33.4727L29.7812 66H28.0234L24.9414 56.3906L21.9414 66H20.1836L16.5039 53.3203H18.6602L21.1562 62.8125L24.1094 53.3203H25.8555L28.8672 63.0117ZM37.8555 54.8555C38.8164 53.6758 40.0664 53.0859 41.6055 53.0859C44.2852 53.0859 45.6367 54.5977 45.6602 57.6211V66H43.4922V57.6094C43.4844 56.6953 43.2734 56.0195 42.8594 55.582C42.4531 55.1445 41.8164 54.9258 40.9492 54.9258C40.2461 54.9258 39.6289 55.1133 39.0977 55.4883C38.5664 55.8633 38.1523 56.3555 37.8555 56.9648V66H35.6875V48H37.8555V54.8555ZM54.168 66.2344C52.4492 66.2344 51.0508 65.6719 49.9727 64.5469C48.8945 63.4141 48.3555 61.9023 48.3555 60.0117V59.6133C48.3555 58.3555 48.5938 57.2344 49.0703 56.25C49.5547 55.2578 50.2266 54.4844 51.0859 53.9297C51.9531 53.3672 52.8906 53.0859 53.8984 53.0859C55.5469 53.0859 56.8281 53.6289 57.7422 54.7148C58.6562 55.8008 59.1133 57.3555 59.1133 59.3789V60.2812H50.5234C50.5547 61.5312 50.918 62.543 51.6133 63.3164C52.3164 64.082 53.207 64.4648 54.2852 64.4648C55.0508 64.4648 55.6992 64.3086 56.2305 63.9961C56.7617 63.6836 57.2266 63.2695 57.625 62.7539L58.9492 63.7852C57.8867 65.418 56.293 66.2344 54.168 66.2344ZM53.8984 54.8672C53.0234 54.8672 52.2891 55.1875 51.6953 55.8281C51.1016 56.4609 50.7344 57.3516 50.5938 58.5H56.9453V58.3359C56.8828 57.2344 56.5859 56.3828 56.0547 55.7812C55.5234 55.1719 54.8047 54.8672 53.8984 54.8672ZM63.6836 53.3203L63.7539 54.9141C64.7227 53.6953 65.9883 53.0859 67.5508 53.0859C70.2305 53.0859 71.582 54.5977 71.6055 57.6211V66H69.4375V57.6094C69.4297 56.6953 69.2188 56.0195 68.8047 55.582C68.3984 55.1445 67.7617 54.9258 66.8945 54.9258C66.1914 54.9258 65.5742 55.1133 65.043 55.4883C64.5117 55.8633 64.0977 56.3555 63.8008 56.9648V66H61.6328V53.3203H63.6836Z" fill="white"/>
<path d="M102.8 49.7C102.4 49.5 101.9 49.6 101.6 49.9C99.6 51.5 96.8 51.5 94.8 49.9C92.5 48 89.2 47.6 86.5 48.9V48.5C86.5 47.9 86 47.5 85.5 47.5C85 47.5 84.5 47.9 84.5 48.5V67.3C84.5 67.8 85 68.3 85.5 68.3H85.6C86.1 68.3 86.6 67.8 86.6 67.3V60.9C87.6 60.2 88.7 59.7 90 59.6C91.2 59.6 92.4 60 93.4 60.8C96.3 63.1 100.4 63.1 103.2 60.8C103.5 60.6 103.6 60.3 103.6 59.9V50.7C103.6 50.2 103.3 49.8 102.8 49.7ZM102.5 59.9C100 62 96.4 62 93.9 60C92.8 59.1 91.4 58.6 89.9 58.6C88.7 58.7 87.6 59.1 86.5 59.7V50C89 48.6 92 48.9 94.2 50.6C96.6 52.5 99.9 52.5 102.3 50.6C102.4 50.6 102.4 50.6 102.5 50.6L102.6 50.7L102.5 59.9Z" fill="#45993D"/>
<path d="M102.6 50.8002L102.5 59.9002V60.0002C100 62.0002 96.4 62.0002 93.9 60.0002C92.8 59.1002 91.4 58.6002 89.9 58.6002C88.7 58.7002 87.6 59.1002 86.5 59.7002V50.0002C89 48.6002 92 48.9002 94.2 50.6002C96.6 52.5002 99.9 52.5002 102.3 50.6002C102.4 50.6002 102.4 50.6002 102.5 50.6002C102.5 50.7002 102.6 50.7002 102.6 50.8002Z" fill="#4CBF56"/>
<path d="M120.727 64.4648C121.5 64.4648 122.176 64.2305 122.754 63.7617C123.332 63.293 123.652 62.707 123.715 62.0039H125.766C125.727 62.7305 125.477 63.4219 125.016 64.0781C124.555 64.7344 123.938 65.2578 123.164 65.6484C122.398 66.0391 121.586 66.2344 120.727 66.2344C119 66.2344 117.625 65.6602 116.602 64.5117C115.586 63.3555 115.078 61.7773 115.078 59.7773V59.4141C115.078 58.1797 115.305 57.082 115.758 56.1211C116.211 55.1602 116.859 54.4141 117.703 53.8828C118.555 53.3516 119.559 53.0859 120.715 53.0859C122.137 53.0859 123.316 53.5117 124.254 54.3633C125.199 55.2148 125.703 56.3203 125.766 57.6797H123.715C123.652 56.8594 123.34 56.1875 122.777 55.6641C122.223 55.1328 121.535 54.8672 120.715 54.8672C119.613 54.8672 118.758 55.2656 118.148 56.0625C117.547 56.8516 117.246 57.9961 117.246 59.4961V59.9062C117.246 61.3672 117.547 62.4922 118.148 63.2812C118.75 64.0703 119.609 64.4648 120.727 64.4648ZM130.559 66H128.391V48H130.559V66ZM136.395 66H134.227V53.3203H136.395V66ZM134.051 49.957C134.051 49.6055 134.156 49.3086 134.367 49.0664C134.586 48.8242 134.906 48.7031 135.328 48.7031C135.75 48.7031 136.07 48.8242 136.289 49.0664C136.508 49.3086 136.617 49.6055 136.617 49.957C136.617 50.3086 136.508 50.6016 136.289 50.8359C136.07 51.0703 135.75 51.1875 135.328 51.1875C134.906 51.1875 134.586 51.0703 134.367 50.8359C134.156 50.6016 134.051 50.3086 134.051 49.957ZM144.961 64.4648C145.734 64.4648 146.41 64.2305 146.988 63.7617C147.566 63.293 147.887 62.707 147.949 62.0039H150C149.961 62.7305 149.711 63.4219 149.25 64.0781C148.789 64.7344 148.172 65.2578 147.398 65.6484C146.633 66.0391 145.82 66.2344 144.961 66.2344C143.234 66.2344 141.859 65.6602 140.836 64.5117C139.82 63.3555 139.312 61.7773 139.312 59.7773V59.4141C139.312 58.1797 139.539 57.082 139.992 56.1211C140.445 55.1602 141.094 54.4141 141.938 53.8828C142.789 53.3516 143.793 53.0859 144.949 53.0859C146.371 53.0859 147.551 53.5117 148.488 54.3633C149.434 55.2148 149.938 56.3203 150 57.6797H147.949C147.887 56.8594 147.574 56.1875 147.012 55.6641C146.457 55.1328 145.77 54.8672 144.949 54.8672C143.848 54.8672 142.992 55.2656 142.383 56.0625C141.781 56.8516 141.48 57.9961 141.48 59.4961V59.9062C141.48 61.3672 141.781 62.4922 142.383 63.2812C142.984 64.0703 143.844 64.4648 144.961 64.4648ZM155.977 60.1289L154.617 61.5469V66H152.449V48H154.617V58.8867L155.777 57.4922L159.727 53.3203H162.363L157.43 58.6172L162.938 66H160.395L155.977 60.1289ZM169.629 66.2344C167.91 66.2344 166.512 65.6719 165.434 64.5469C164.355 63.4141 163.816 61.9023 163.816 60.0117V59.6133C163.816 58.3555 164.055 57.2344 164.531 56.25C165.016 55.2578 165.688 54.4844 166.547 53.9297C167.414 53.3672 168.352 53.0859 169.359 53.0859C171.008 53.0859 172.289 53.6289 173.203 54.7148C174.117 55.8008 174.574 57.3555 174.574 59.3789V60.2812H165.984C166.016 61.5312 166.379 62.543 167.074 63.3164C167.777 64.082 168.668 64.4648 169.746 64.4648C170.512 64.4648 171.16 64.3086 171.691 63.9961C172.223 63.6836 172.688 63.2695 173.086 62.7539L174.41 63.7852C173.348 65.418 171.754 66.2344 169.629 66.2344ZM169.359 54.8672C168.484 54.8672 167.75 55.1875 167.156 55.8281C166.562 56.4609 166.195 57.3516 166.055 58.5H172.406V58.3359C172.344 57.2344 172.047 56.3828 171.516 55.7812C170.984 55.1719 170.266 54.8672 169.359 54.8672ZM176.566 59.5547C176.566 57.6094 177.027 56.0469 177.949 54.8672C178.871 53.6797 180.078 53.0859 181.57 53.0859C183.055 53.0859 184.23 53.5938 185.098 54.6094V48H187.266V66H185.273L185.168 64.6406C184.301 65.7031 183.094 66.2344 181.547 66.2344C180.078 66.2344 178.879 65.6328 177.949 64.4297C177.027 63.2266 176.566 61.6562 176.566 59.7188V59.5547ZM178.734 59.8008C178.734 61.2383 179.031 62.3633 179.625 63.1758C180.219 63.9883 181.039 64.3945 182.086 64.3945C183.461 64.3945 184.465 63.7773 185.098 62.543V56.7188C184.449 55.5234 183.453 54.9258 182.109 54.9258C181.047 54.9258 180.219 55.3359 179.625 56.1562C179.031 56.9766 178.734 58.1914 178.734 59.8008Z" fill="white"/>
<defs>
<clipPath id="clip0_1_3986">
<rect width="58" height="68" fill="white" transform="translate(149 24)"/>
</clipPath>
</defs>
</svg>
