<svg width="255" height="80" viewBox="0 0 255 80" fill="none" xmlns="http://www.w3.org/2000/svg">
<path d="M0 8.99668C0 4.02795 4.02795 0 8.99668 0H21.4985C23.5941 0 25.624 0.731537 27.2378 2.06836L36.2466 9.53102C37.8604 10.8679 39.8903 11.5994 41.9858 11.5994H60.5166C62.6121 11.5994 64.642 10.8679 66.2558 9.53103L75.2646 2.06837C76.8784 0.731538 78.9082 0 81.0038 0H89.1911V68H81.1978C78.9849 68 76.8496 68.8156 75.2002 70.2908L66.9275 77.6896C65.2781 79.1648 63.1428 79.9803 60.9299 79.9803H42.0791C39.9269 79.9803 37.8461 79.2089 36.2141 77.8059L27.337 70.1744C25.7051 68.7715 23.6242 68 21.4721 68H8.99667C4.02794 68 0 63.972 0 59.0033V8.99668Z" fill="#4C97FF"/>
<path d="M8.99707 1H21.499C23.3615 1.00011 25.1653 1.65073 26.5996 2.83887L35.6084 10.3008C37.4014 11.7861 39.657 12.5995 41.9854 12.5996H60.5166C62.8451 12.5996 65.1004 11.7862 66.8936 10.3008L75.9023 2.83887C77.3368 1.65063 79.1413 1 81.0039 1H88.1914V67H81.1982C78.7394 67 76.366 67.9058 74.5332 69.5449L66.2607 76.9443C64.7947 78.2555 62.8965 78.9805 60.9297 78.9805H42.0791C40.1663 78.9805 38.3167 78.2948 36.8662 77.0479L27.9893 69.416C26.1759 67.8571 23.863 67 21.4717 67H8.99707C4.58063 67 1 63.4194 1 59.0029V8.99707C1 4.71872 4.35986 1.22503 8.58496 1.01074L8.99707 1Z" stroke="#3373CC" stroke-width="2"/>
<g clip-path="url(#clip0_1_1710)">
<path d="M246.003 0H87V68H246.003C250.972 68 255 63.972 255 59.0033V8.99668C255 4.02795 250.972 0 246.003 0Z" fill="#4C97FF"/>
<path d="M246.003 1C250.419 1 254 4.58062 254 8.99707V59.0029C254 63.4194 250.419 67 246.003 67H88V1H246.003Z" stroke="#3373CC" stroke-width="2"/>
</g>
<rect x="86" y="2" width="4" height="64" fill="#4C97FF"/>
<path d="M20.582 26.25V29.3203H22.9492V30.9961H20.582V38.8594C20.582 39.3672 20.6875 39.75 20.8984 40.0078C21.1094 40.2578 21.4688 40.3828 21.9766 40.3828C22.2266 40.3828 22.5703 40.3359 23.0078 40.2422V42C22.4375 42.1562 21.8828 42.2344 21.3438 42.2344C20.375 42.2344 19.6445 41.9414 19.1523 41.3555C18.6602 40.7695 18.4141 39.9375 18.4141 38.8594V30.9961H16.1055V29.3203H18.4141V26.25H20.582ZM33.3203 40.7461C32.4766 41.7383 31.2383 42.2344 29.6055 42.2344C28.2539 42.2344 27.2227 41.8438 26.5117 41.0625C25.8086 40.2734 25.4531 39.1094 25.4453 37.5703V29.3203H27.6133V37.5117C27.6133 39.4336 28.3945 40.3945 29.957 40.3945C31.6133 40.3945 32.7148 39.7773 33.2617 38.543V29.3203H35.4297V42H33.3672L33.3203 40.7461ZM44.8633 31.2656C44.5352 31.2109 44.1797 31.1836 43.7969 31.1836C42.375 31.1836 41.4102 31.7891 40.9023 33V42H38.7344V29.3203H40.8438L40.8789 30.7852C41.5898 29.6523 42.5977 29.0859 43.9023 29.0859C44.3242 29.0859 44.6445 29.1406 44.8633 29.25V31.2656ZM48.918 29.3203L48.9883 30.9141C49.957 29.6953 51.2227 29.0859 52.7852 29.0859C55.4648 29.0859 56.8164 30.5977 56.8398 33.6211V42H54.6719V33.6094C54.6641 32.6953 54.4531 32.0195 54.0391 31.582C53.6328 31.1445 52.9961 30.9258 52.1289 30.9258C51.4258 30.9258 50.8086 31.1133 50.2773 31.4883C49.7461 31.8633 49.332 32.3555 49.0352 32.9648V42H46.8672V29.3203H48.918Z" fill="white"/>
<path d="M89.6801 34.2C89.531 34.3955 89.3389 34.5541 89.1186 34.6633C88.8984 34.7726 88.6559 34.8296 88.4101 34.83H80.7201C80.4281 34.8148 80.1459 34.7194 79.9047 34.5543C79.6634 34.3892 79.4723 34.1608 79.3524 33.8941C79.2325 33.6275 79.1884 33.3329 79.2251 33.0429C79.2617 32.7528 79.3776 32.4785 79.5601 32.25L80.6801 30.84C79.7533 30.2295 78.6442 29.9575 77.5401 30.07C76.8164 30.1631 76.1283 30.4383 75.5401 30.87C74.9501 31.3198 74.4881 31.9162 74.2001 32.6C73.914 33.3571 73.8138 34.1718 73.9077 34.9757C74.0017 35.7796 74.2871 36.5492 74.7401 37.22C75.2084 37.9394 75.8365 38.5411 76.5754 38.9782C77.3142 39.4152 78.144 39.6759 79.0001 39.74C79.2969 39.7505 79.5887 39.8194 79.8588 39.9426C80.129 40.0659 80.3723 40.2412 80.5747 40.4585C80.7771 40.6758 80.9348 40.9308 81.0386 41.209C81.1425 41.4873 81.1906 41.7832 81.1801 42.08C81.1696 42.3768 81.1007 42.6686 80.9774 42.9388C80.8541 43.2089 80.6788 43.4522 80.4616 43.6546C80.2443 43.8571 79.9892 44.0147 79.711 44.1186C79.4328 44.2224 79.1369 44.2705 78.8401 44.26C77.2522 44.226 75.6939 43.8235 74.2882 43.0842C72.8825 42.3449 71.6679 41.2891 70.7401 40C69.7709 38.6951 69.1297 37.1764 68.8704 35.5718C68.611 33.9671 68.7413 32.3237 69.2501 30.78C69.8142 29.1758 70.7901 27.7481 72.0801 26.64C73.3963 25.5431 74.9742 24.8058 76.6601 24.5C79.3536 24.0505 82.1169 24.6518 84.3801 26.18L85.4601 24.83C85.6075 24.6423 85.7959 24.4907 86.0107 24.3867C86.2256 24.2828 86.4614 24.2292 86.7001 24.23C87.0545 24.2326 87.3981 24.3528 87.6768 24.5718C87.9556 24.7908 88.1537 25.0962 88.2401 25.44L89.9401 32.81C90.0085 33.0459 90.0206 33.2945 89.9754 33.5359C89.9303 33.7773 89.8291 34.0048 89.6801 34.2Z" fill="#3D79CC"/>
<path d="M88.3801 33.8301H80.7701C80.6537 33.8313 80.5397 33.798 80.4422 33.7345C80.3448 33.671 80.2682 33.5801 80.2223 33.4732C80.1763 33.3664 80.163 33.2483 80.184 33.1339C80.2049 33.0194 80.2592 32.9138 80.3401 32.8301L82.0901 30.6401C81.4682 30.0515 80.7257 29.6053 79.9141 29.3324C79.1025 29.0596 78.2412 28.9667 77.3901 29.0601C76.4829 29.1691 75.6221 29.5213 74.8986 30.0793C74.1752 30.6373 73.6159 31.3804 73.2801 32.2301C72.9417 33.1427 72.8305 34.1239 72.9559 35.089C73.0814 36.0542 73.4397 36.9743 74.0001 37.7701C74.5517 38.6096 75.2901 39.31 76.1576 39.8166C77.025 40.3232 77.9979 40.6222 79.0001 40.6901C79.3475 40.7007 79.6765 40.8489 79.9147 41.1021C80.1528 41.3553 80.2807 41.6927 80.2701 42.0401C80.2595 42.3876 80.1113 42.7165 79.8581 42.9547C79.6049 43.1929 79.2675 43.3207 78.9201 43.3101C77.4831 43.2846 76.0715 42.9264 74.7963 42.2636C73.521 41.6008 72.4167 40.6515 71.5701 39.4901C70.6789 38.3114 70.0861 36.9345 69.8423 35.477C69.5985 34.0195 69.711 32.5247 70.1701 31.1201C70.6672 29.6745 71.5446 28.3895 72.7101 27.4001C73.8877 26.4103 75.3052 25.7481 76.8201 25.4801C78.1848 25.2531 79.5822 25.3204 80.9188 25.6774C82.2554 26.0344 83.5003 26.6729 84.5701 27.5501L86.2401 25.4501C86.3092 25.373 86.3974 25.3154 86.4958 25.2832C86.5942 25.251 86.6993 25.2452 86.8007 25.2665C86.902 25.2878 86.996 25.3354 87.0731 25.4045C87.1502 25.4735 87.2078 25.5617 87.2401 25.6601L89.0001 33.0801C89.0264 33.1722 89.03 33.2694 89.0104 33.3632C88.9908 33.457 88.9486 33.5446 88.8876 33.6184C88.8265 33.6922 88.7484 33.7501 88.66 33.787C88.5716 33.8239 88.4755 33.8387 88.3801 33.8301Z" fill="white"/>
<rect x="99.5" y="12.5" width="53" height="43" rx="19.5" fill="white"/>
<rect x="99.5" y="12.5" width="53" height="43" rx="19.5" stroke="#3373CC"/>
<path d="M162.113 35.5547C162.113 33.6094 162.574 32.0469 163.496 30.8672C164.418 29.6797 165.625 29.0859 167.117 29.0859C168.602 29.0859 169.777 29.5938 170.645 30.6094V24H172.812V42H170.82L170.715 40.6406C169.848 41.7031 168.641 42.2344 167.094 42.2344C165.625 42.2344 164.426 41.6328 163.496 40.4297C162.574 39.2266 162.113 37.6562 162.113 35.7188V35.5547ZM164.281 35.8008C164.281 37.2383 164.578 38.3633 165.172 39.1758C165.766 39.9883 166.586 40.3945 167.633 40.3945C169.008 40.3945 170.012 39.7773 170.645 38.543V32.7188C169.996 31.5234 169 30.9258 167.656 30.9258C166.594 30.9258 165.766 31.3359 165.172 32.1562C164.578 32.9766 164.281 34.1914 164.281 35.8008ZM181.449 42.2344C179.73 42.2344 178.332 41.6719 177.254 40.5469C176.176 39.4141 175.637 37.9023 175.637 36.0117V35.6133C175.637 34.3555 175.875 33.2344 176.352 32.25C176.836 31.2578 177.508 30.4844 178.367 29.9297C179.234 29.3672 180.172 29.0859 181.18 29.0859C182.828 29.0859 184.109 29.6289 185.023 30.7148C185.938 31.8008 186.395 33.3555 186.395 35.3789V36.2812H177.805C177.836 37.5312 178.199 38.543 178.895 39.3164C179.598 40.082 180.488 40.4648 181.566 40.4648C182.332 40.4648 182.98 40.3086 183.512 39.9961C184.043 39.6836 184.508 39.2695 184.906 38.7539L186.23 39.7852C185.168 41.418 183.574 42.2344 181.449 42.2344ZM181.18 30.8672C180.305 30.8672 179.57 31.1875 178.977 31.8281C178.383 32.4609 178.016 33.3516 177.875 34.5H184.227V34.3359C184.164 33.2344 183.867 32.3828 183.336 31.7812C182.805 31.1719 182.086 30.8672 181.18 30.8672ZM188.398 35.5547C188.398 33.5781 188.855 32.0078 189.77 30.8438C190.684 29.6719 191.895 29.0859 193.402 29.0859C194.949 29.0859 196.156 29.6328 197.023 30.7266L197.129 29.3203H199.109V41.6953C199.109 43.3359 198.621 44.6289 197.645 45.5742C196.676 46.5195 195.371 46.9922 193.73 46.9922C192.816 46.9922 191.922 46.7969 191.047 46.4062C190.172 46.0156 189.504 45.4805 189.043 44.8008L190.168 43.5C191.098 44.6484 192.234 45.2227 193.578 45.2227C194.633 45.2227 195.453 44.9258 196.039 44.332C196.633 43.7383 196.93 42.9023 196.93 41.8242V40.7344C196.062 41.7344 194.879 42.2344 193.379 42.2344C191.895 42.2344 190.691 41.6367 189.77 40.4414C188.855 39.2461 188.398 37.6172 188.398 35.5547ZM190.578 35.8008C190.578 37.2305 190.871 38.3555 191.457 39.1758C192.043 39.9883 192.863 40.3945 193.918 40.3945C195.285 40.3945 196.289 39.7734 196.93 38.5312V32.7422C196.266 31.5312 195.27 30.9258 193.941 30.9258C192.887 30.9258 192.062 31.3359 191.469 32.1562C190.875 32.9766 190.578 34.1914 190.578 35.8008ZM208.52 31.2656C208.191 31.2109 207.836 31.1836 207.453 31.1836C206.031 31.1836 205.066 31.7891 204.559 33V42H202.391V29.3203H204.5L204.535 30.7852C205.246 29.6523 206.254 29.0859 207.559 29.0859C207.98 29.0859 208.301 29.1406 208.52 29.25V31.2656ZM215.551 42.2344C213.832 42.2344 212.434 41.6719 211.355 40.5469C210.277 39.4141 209.738 37.9023 209.738 36.0117V35.6133C209.738 34.3555 209.977 33.2344 210.453 32.25C210.938 31.2578 211.609 30.4844 212.469 29.9297C213.336 29.3672 214.273 29.0859 215.281 29.0859C216.93 29.0859 218.211 29.6289 219.125 30.7148C220.039 31.8008 220.496 33.3555 220.496 35.3789V36.2812H211.906C211.938 37.5312 212.301 38.543 212.996 39.3164C213.699 40.082 214.59 40.4648 215.668 40.4648C216.434 40.4648 217.082 40.3086 217.613 39.9961C218.145 39.6836 218.609 39.2695 219.008 38.7539L220.332 39.7852C219.27 41.418 217.676 42.2344 215.551 42.2344ZM215.281 30.8672C214.406 30.8672 213.672 31.1875 213.078 31.8281C212.484 32.4609 212.117 33.3516 211.977 34.5H218.328V34.3359C218.266 33.2344 217.969 32.3828 217.438 31.7812C216.906 31.1719 216.188 30.8672 215.281 30.8672ZM228.277 42.2344C226.559 42.2344 225.16 41.6719 224.082 40.5469C223.004 39.4141 222.465 37.9023 222.465 36.0117V35.6133C222.465 34.3555 222.703 33.2344 223.18 32.25C223.664 31.2578 224.336 30.4844 225.195 29.9297C226.062 29.3672 227 29.0859 228.008 29.0859C229.656 29.0859 230.938 29.6289 231.852 30.7148C232.766 31.8008 233.223 33.3555 233.223 35.3789V36.2812H224.633C224.664 37.5312 225.027 38.543 225.723 39.3164C226.426 40.082 227.316 40.4648 228.395 40.4648C229.16 40.4648 229.809 40.3086 230.34 39.9961C230.871 39.6836 231.336 39.2695 231.734 38.7539L233.059 39.7852C231.996 41.418 230.402 42.2344 228.277 42.2344ZM228.008 30.8672C227.133 30.8672 226.398 31.1875 225.805 31.8281C225.211 32.4609 224.844 33.3516 224.703 34.5H231.055V34.3359C230.992 33.2344 230.695 32.3828 230.164 31.7812C229.633 31.1719 228.914 30.8672 228.008 30.8672ZM243.125 38.6367C243.125 38.0508 242.902 37.5977 242.457 37.2773C242.02 36.9492 241.25 36.668 240.148 36.4336C239.055 36.1992 238.184 35.918 237.535 35.5898C236.895 35.2617 236.418 34.8711 236.105 34.418C235.801 33.9648 235.648 33.4258 235.648 32.8008C235.648 31.7617 236.086 30.8828 236.961 30.1641C237.844 29.4453 238.969 29.0859 240.336 29.0859C241.773 29.0859 242.938 29.457 243.828 30.1992C244.727 30.9414 245.176 31.8906 245.176 33.0469H242.996C242.996 32.4531 242.742 31.9414 242.234 31.5117C241.734 31.082 241.102 30.8672 240.336 30.8672C239.547 30.8672 238.93 31.0391 238.484 31.3828C238.039 31.7266 237.816 32.1758 237.816 32.7305C237.816 33.2539 238.023 33.6484 238.438 33.9141C238.852 34.1797 239.598 34.4336 240.676 34.6758C241.762 34.918 242.641 35.207 243.312 35.543C243.984 35.8789 244.48 36.2852 244.801 36.7617C245.129 37.2305 245.293 37.8047 245.293 38.4844C245.293 39.6172 244.84 40.5273 243.934 41.2148C243.027 41.8945 241.852 42.2344 240.406 42.2344C239.391 42.2344 238.492 42.0547 237.711 41.6953C236.93 41.3359 236.316 40.8359 235.871 40.1953C235.434 39.5469 235.215 38.8477 235.215 38.0977H237.383C237.422 38.8242 237.711 39.4023 238.25 39.832C238.797 40.2539 239.516 40.4648 240.406 40.4648C241.227 40.4648 241.883 40.3008 242.375 39.9727C242.875 39.6367 243.125 39.1914 243.125 38.6367Z" fill="white"/>
<defs>
<clipPath id="clip0_1_1710">
<rect width="168" height="68" fill="white" transform="translate(87)"/>
</clipPath>
</defs>
</svg>
