<svg width="226" height="80" viewBox="0 0 226 80" fill="none" xmlns="http://www.w3.org/2000/svg">
<path d="M0 8.99668C0 4.02795 4.02795 0 8.99668 0H21.4985C23.5941 0 25.624 0.731537 27.2378 2.06836L36.2466 9.53102C37.8604 10.8679 39.8903 11.5994 41.9858 11.5994H60.5166C62.6121 11.5994 64.642 10.8679 66.2558 9.53103L75.2646 2.06837C76.8784 0.731538 78.9082 0 81.0038 0H89.1911V68H81.1978C78.9849 68 76.8496 68.8156 75.2002 70.2908L66.9275 77.6896C65.2781 79.1648 63.1428 79.9803 60.9299 79.9803H42.0791C39.9269 79.9803 37.8461 79.2089 36.2141 77.8059L27.337 70.1744C25.7051 68.7715 23.6242 68 21.4721 68H8.99667C4.02794 68 0 63.972 0 59.0033V8.99668Z" fill="#4C97FF"/>
<path d="M8.99707 1H21.499C23.3615 1.00011 25.1653 1.65073 26.5996 2.83887L35.6084 10.3008C37.4014 11.7861 39.657 12.5995 41.9854 12.5996H60.5166C62.8451 12.5996 65.1004 11.7862 66.8936 10.3008L75.9023 2.83887C77.3368 1.65063 79.1413 1 81.0039 1H88.1914V67H81.1982C78.7394 67 76.366 67.9058 74.5332 69.5449L66.2607 76.9443C64.7947 78.2555 62.8965 78.9805 60.9297 78.9805H42.0791C40.1663 78.9805 38.3167 78.2948 36.8662 77.0479L27.9893 69.416C26.1759 67.8571 23.863 67 21.4717 67H8.99707C4.58063 67 1 63.4194 1 59.0029V8.99707C1 4.71872 4.35986 1.22503 8.58496 1.01074L8.99707 1Z" stroke="#3373CC" stroke-width="2"/>
<g clip-path="url(#clip0_1_2524)">
<path d="M217.003 0H87V68H217.003C221.972 68 226 63.972 226 59.0033V8.99668C226 4.02795 221.972 0 217.003 0Z" fill="#4C97FF"/>
<path d="M217.003 1C221.419 1 225 4.58062 225 8.99707V59.0029C225 63.4194 221.419 67 217.003 67H88V1H217.003Z" stroke="#3373CC" stroke-width="2"/>
</g>
<rect x="86" y="2" width="4" height="64" fill="#4C97FF"/>
<path d="M22.7266 40.4648C23.5 40.4648 24.1758 40.2305 24.7539 39.7617C25.332 39.293 25.6523 38.707 25.7148 38.0039H27.7656C27.7266 38.7305 27.4766 39.4219 27.0156 40.0781C26.5547 40.7344 25.9375 41.2578 25.1641 41.6484C24.3984 42.0391 23.5859 42.2344 22.7266 42.2344C21 42.2344 19.625 41.6602 18.6016 40.5117C17.5859 39.3555 17.0781 37.7773 17.0781 35.7773V35.4141C17.0781 34.1797 17.3047 33.082 17.7578 32.1211C18.2109 31.1602 18.8594 30.4141 19.7031 29.8828C20.5547 29.3516 21.5586 29.0859 22.7148 29.0859C24.1367 29.0859 25.3164 29.5117 26.2539 30.3633C27.1992 31.2148 27.7031 32.3203 27.7656 33.6797H25.7148C25.6523 32.8594 25.3398 32.1875 24.7773 31.6641C24.2227 31.1328 23.5352 30.8672 22.7148 30.8672C21.6133 30.8672 20.7578 31.2656 20.1484 32.0625C19.5469 32.8516 19.2461 33.9961 19.2461 35.4961V35.9062C19.2461 37.3672 19.5469 38.4922 20.1484 39.2812C20.75 40.0703 21.6094 40.4648 22.7266 40.4648ZM32.3711 30.8555C33.332 29.6758 34.582 29.0859 36.1211 29.0859C38.8008 29.0859 40.1523 30.5977 40.1758 33.6211V42H38.0078V33.6094C38 32.6953 37.7891 32.0195 37.375 31.582C36.9688 31.1445 36.332 30.9258 35.4648 30.9258C34.7617 30.9258 34.1445 31.1133 33.6133 31.4883C33.082 31.8633 32.668 32.3555 32.3711 32.9648V42H30.2031V24H32.3711V30.8555ZM51.25 42C51.125 41.75 51.0234 41.3047 50.9453 40.6641C49.9375 41.7109 48.7344 42.2344 47.3359 42.2344C46.0859 42.2344 45.0586 41.8828 44.2539 41.1797C43.457 40.4688 43.0586 39.5703 43.0586 38.4844C43.0586 37.1641 43.5586 36.1406 44.5586 35.4141C45.5664 34.6797 46.9805 34.3125 48.8008 34.3125H50.9102V33.3164C50.9102 32.5586 50.6836 31.957 50.2305 31.5117C49.7773 31.0586 49.1094 30.832 48.2266 30.832C47.4531 30.832 46.8047 31.0273 46.2812 31.418C45.7578 31.8086 45.4961 32.2812 45.4961 32.8359H43.3164C43.3164 32.2031 43.5391 31.5938 43.9844 31.0078C44.4375 30.4141 45.0469 29.9453 45.8125 29.6016C46.5859 29.2578 47.4336 29.0859 48.3555 29.0859C49.8164 29.0859 50.9609 29.4531 51.7891 30.1875C52.6172 30.9141 53.0469 31.918 53.0781 33.1992V39.0352C53.0781 40.1992 53.2266 41.125 53.5234 41.8125V42H51.25ZM47.6523 40.3477C48.332 40.3477 48.9766 40.1719 49.5859 39.8203C50.1953 39.4688 50.6367 39.0117 50.9102 38.4492V35.8477H49.2109C46.5547 35.8477 45.2266 36.625 45.2266 38.1797C45.2266 38.8594 45.4531 39.3906 45.9062 39.7734C46.3594 40.1562 46.9414 40.3477 47.6523 40.3477ZM58.5273 29.3203L58.5977 30.9141C59.5664 29.6953 60.832 29.0859 62.3945 29.0859C65.0742 29.0859 66.4258 30.5977 66.4492 33.6211V42H64.2812V33.6094C64.2734 32.6953 64.0625 32.0195 63.6484 31.582C63.2422 31.1445 62.6055 30.9258 61.7383 30.9258C61.0352 30.9258 60.418 31.1133 59.8867 31.4883C59.3555 31.8633 58.9414 32.3555 58.6445 32.9648V42H56.4766V29.3203H58.5273ZM69.2031 35.5547C69.2031 33.5781 69.6602 32.0078 70.5742 30.8438C71.4883 29.6719 72.6992 29.0859 74.207 29.0859C75.7539 29.0859 76.9609 29.6328 77.8281 30.7266L77.9336 29.3203H79.9141V41.6953C79.9141 43.3359 79.4258 44.6289 78.4492 45.5742C77.4805 46.5195 76.1758 46.9922 74.5352 46.9922C73.6211 46.9922 72.7266 46.7969 71.8516 46.4062C70.9766 46.0156 70.3086 45.4805 69.8477 44.8008L70.9727 43.5C71.9023 44.6484 73.0391 45.2227 74.3828 45.2227C75.4375 45.2227 76.2578 44.9258 76.8438 44.332C77.4375 43.7383 77.7344 42.9023 77.7344 41.8242V40.7344C76.8672 41.7344 75.6836 42.2344 74.1836 42.2344C72.6992 42.2344 71.4961 41.6367 70.5742 40.4414C69.6602 39.2461 69.2031 37.6172 69.2031 35.5547ZM71.3828 35.8008C71.3828 37.2305 71.6758 38.3555 72.2617 39.1758C72.8477 39.9883 73.668 40.3945 74.7227 40.3945C76.0898 40.3945 77.0938 39.7734 77.7344 38.5312V32.7422C77.0703 31.5312 76.0742 30.9258 74.7461 30.9258C73.6914 30.9258 72.8672 31.3359 72.2734 32.1562C71.6797 32.9766 71.3828 34.1914 71.3828 35.8008ZM88.457 42.2344C86.7383 42.2344 85.3398 41.6719 84.2617 40.5469C83.1836 39.4141 82.6445 37.9023 82.6445 36.0117V35.6133C82.6445 34.3555 82.8828 33.2344 83.3594 32.25C83.8438 31.2578 84.5156 30.4844 85.375 29.9297C86.2422 29.3672 87.1797 29.0859 88.1875 29.0859C89.8359 29.0859 91.1172 29.6289 92.0312 30.7148C92.9453 31.8008 93.4023 33.3555 93.4023 35.3789V36.2812H84.8125C84.8438 37.5312 85.207 38.543 85.9023 39.3164C86.6055 40.082 87.4961 40.4648 88.5742 40.4648C89.3398 40.4648 89.9883 40.3086 90.5195 39.9961C91.0508 39.6836 91.5156 39.2695 91.9141 38.7539L93.2383 39.7852C92.1758 41.418 90.582 42.2344 88.457 42.2344ZM88.1875 30.8672C87.3125 30.8672 86.5781 31.1875 85.9844 31.8281C85.3906 32.4609 85.0234 33.3516 84.8828 34.5H91.2344V34.3359C91.1719 33.2344 90.875 32.3828 90.3438 31.7812C89.8125 31.1719 89.0938 30.8672 88.1875 30.8672ZM106.023 38.8242L108.977 29.3203H111.297L106.199 43.957C105.41 46.0664 104.156 47.1211 102.438 47.1211L102.027 47.0859L101.219 46.9336V45.1758L101.805 45.2227C102.539 45.2227 103.109 45.0742 103.516 44.7773C103.93 44.4805 104.27 43.9375 104.535 43.1484L105.016 41.8594L100.492 29.3203H102.859L106.023 38.8242ZM129.93 35.8008C129.93 37.7383 129.484 39.2969 128.594 40.4766C127.703 41.6484 126.508 42.2344 125.008 42.2344C123.406 42.2344 122.168 41.668 121.293 40.5352L121.188 42H119.195V24H121.363V30.7148C122.238 29.6289 123.445 29.0859 124.984 29.0859C126.523 29.0859 127.73 29.668 128.605 30.832C129.488 31.9961 129.93 33.5898 129.93 35.6133V35.8008ZM127.762 35.5547C127.762 34.0781 127.477 32.9375 126.906 32.1328C126.336 31.3281 125.516 30.9258 124.445 30.9258C123.016 30.9258 121.988 31.5898 121.363 32.918V38.4023C122.027 39.7305 123.062 40.3945 124.469 40.3945C125.508 40.3945 126.316 39.9922 126.895 39.1875C127.473 38.3828 127.762 37.1719 127.762 35.5547ZM136.68 38.8242L139.633 29.3203H141.953L136.855 43.957C136.066 46.0664 134.812 47.1211 133.094 47.1211L132.684 47.0859L131.875 46.9336V45.1758L132.461 45.2227C133.195 45.2227 133.766 45.0742 134.172 44.7773C134.586 44.4805 134.926 43.9375 135.191 43.1484L135.672 41.8594L131.148 29.3203H133.516L136.68 38.8242Z" fill="white"/>
<rect x="151.5" y="12.5" width="66" height="43" rx="19.5" fill="white"/>
<rect x="151.5" y="12.5" width="66" height="43" rx="19.5" stroke="#3373CC"/>
<defs>
<clipPath id="clip0_1_2524">
<rect width="139" height="68" fill="white" transform="translate(87)"/>
</clipPath>
</defs>
</svg>
