<svg width="256" height="80" viewBox="0 0 256 80" fill="none" xmlns="http://www.w3.org/2000/svg">
<path d="M0 8.99668C0 4.02795 4.02795 0 8.99668 0H21.4985C23.5941 0 25.624 0.731537 27.2378 2.06836L36.2466 9.53102C37.8604 10.8679 39.8903 11.5994 41.9858 11.5994H60.5166C62.6121 11.5994 64.642 10.8679 66.2558 9.53103L75.2646 2.06837C76.8784 0.731538 78.9082 0 81.0038 0H89.1911V68H81.1978C78.9849 68 76.8496 68.8156 75.2002 70.2908L66.9275 77.6896C65.2781 79.1648 63.1428 79.9803 60.9299 79.9803H42.0791C39.9269 79.9803 37.8461 79.2089 36.2141 77.8059L27.337 70.1744C25.7051 68.7715 23.6242 68 21.4721 68H8.99667C4.02794 68 0 63.972 0 59.0033V8.99668Z" fill="#4C97FF"/>
<path d="M8.99707 1H21.499C23.3615 1.00011 25.1653 1.65073 26.5996 2.83887L35.6084 10.3008C37.4014 11.7861 39.657 12.5995 41.9854 12.5996H60.5166C62.8451 12.5996 65.1004 11.7862 66.8936 10.3008L75.9023 2.83887C77.3368 1.65063 79.1413 1 81.0039 1H88.1914V67H81.1982C78.7394 67 76.366 67.9058 74.5332 69.5449L66.2607 76.9443C64.7947 78.2555 62.8965 78.9805 60.9297 78.9805H42.0791C40.1663 78.9805 38.3167 78.2948 36.8662 77.0479L27.9893 69.416C26.1759 67.8571 23.863 67 21.4717 67H8.99707C4.58063 67 1 63.4194 1 59.0029V8.99707C1 4.71872 4.35986 1.22503 8.58496 1.01074L8.99707 1Z" stroke="#3373CC" stroke-width="2"/>
<g clip-path="url(#clip0_1_1915)">
<path d="M247.003 0H87V68H247.003C251.972 68 256 63.972 256 59.0033V8.99668C256 4.02795 251.972 0 247.003 0Z" fill="#4C97FF"/>
<path d="M247.003 1C251.419 1 255 4.58062 255 8.99707V59.0029C255 63.4194 251.419 67 247.003 67H88V1H247.003Z" stroke="#3373CC" stroke-width="2"/>
</g>
<rect x="86" y="2" width="4" height="64" fill="#4C97FF"/>
<path d="M17.125 35.5547C17.125 33.5781 17.582 32.0078 18.4961 30.8438C19.4102 29.6719 20.6211 29.0859 22.1289 29.0859C23.6758 29.0859 24.8828 29.6328 25.75 30.7266L25.8555 29.3203H27.8359V41.6953C27.8359 43.3359 27.3477 44.6289 26.3711 45.5742C25.4023 46.5195 24.0977 46.9922 22.457 46.9922C21.543 46.9922 20.6484 46.7969 19.7734 46.4062C18.8984 46.0156 18.2305 45.4805 17.7695 44.8008L18.8945 43.5C19.8242 44.6484 20.9609 45.2227 22.3047 45.2227C23.3594 45.2227 24.1797 44.9258 24.7656 44.332C25.3594 43.7383 25.6562 42.9023 25.6562 41.8242V40.7344C24.7891 41.7344 23.6055 42.2344 22.1055 42.2344C20.6211 42.2344 19.418 41.6367 18.4961 40.4414C17.582 39.2461 17.125 37.6172 17.125 35.5547ZM19.3047 35.8008C19.3047 37.2305 19.5977 38.3555 20.1836 39.1758C20.7695 39.9883 21.5898 40.3945 22.6445 40.3945C24.0117 40.3945 25.0156 39.7734 25.6562 38.5312V32.7422C24.9922 31.5312 23.9961 30.9258 22.668 30.9258C21.6133 30.9258 20.7891 31.3359 20.1953 32.1562C19.6016 32.9766 19.3047 34.1914 19.3047 35.8008ZM30.543 35.543C30.543 34.3008 30.7852 33.1836 31.2695 32.1914C31.7617 31.1992 32.4414 30.4336 33.3086 29.8945C34.1836 29.3555 35.1797 29.0859 36.2969 29.0859C38.0234 29.0859 39.418 29.6836 40.4805 30.8789C41.5508 32.0742 42.0859 33.6641 42.0859 35.6484V35.8008C42.0859 37.0352 41.8477 38.1445 41.3711 39.1289C40.9023 40.1055 40.2266 40.8672 39.3438 41.4141C38.4688 41.9609 37.4609 42.2344 36.3203 42.2344C34.6016 42.2344 33.207 41.6367 32.1367 40.4414C31.0742 39.2461 30.543 37.6641 30.543 35.6953V35.543ZM32.7227 35.8008C32.7227 37.207 33.0469 38.3359 33.6953 39.1875C34.3516 40.0391 35.2266 40.4648 36.3203 40.4648C37.4219 40.4648 38.2969 40.0352 38.9453 39.1758C39.5938 38.3086 39.918 37.0977 39.918 35.543C39.918 34.1523 39.5859 33.0273 38.9219 32.168C38.2656 31.3008 37.3906 30.8672 36.2969 30.8672C35.2266 30.8672 34.3633 31.293 33.707 32.1445C33.0508 32.9961 32.7227 34.2148 32.7227 35.8008ZM53.6992 26.25V29.3203H56.0664V30.9961H53.6992V38.8594C53.6992 39.3672 53.8047 39.75 54.0156 40.0078C54.2266 40.2578 54.5859 40.3828 55.0938 40.3828C55.3438 40.3828 55.6875 40.3359 56.125 40.2422V42C55.5547 42.1562 55 42.2344 54.4609 42.2344C53.4922 42.2344 52.7617 41.9414 52.2695 41.3555C51.7773 40.7695 51.5312 39.9375 51.5312 38.8594V30.9961H49.2227V29.3203H51.5312V26.25H53.6992ZM57.8008 35.543C57.8008 34.3008 58.043 33.1836 58.5273 32.1914C59.0195 31.1992 59.6992 30.4336 60.5664 29.8945C61.4414 29.3555 62.4375 29.0859 63.5547 29.0859C65.2812 29.0859 66.6758 29.6836 67.7383 30.8789C68.8086 32.0742 69.3438 33.6641 69.3438 35.6484V35.8008C69.3438 37.0352 69.1055 38.1445 68.6289 39.1289C68.1602 40.1055 67.4844 40.8672 66.6016 41.4141C65.7266 41.9609 64.7188 42.2344 63.5781 42.2344C61.8594 42.2344 60.4648 41.6367 59.3945 40.4414C58.332 39.2461 57.8008 37.6641 57.8008 35.6953V35.543ZM59.9805 35.8008C59.9805 37.207 60.3047 38.3359 60.9531 39.1875C61.6094 40.0391 62.4844 40.4648 63.5781 40.4648C64.6797 40.4648 65.5547 40.0352 66.2031 39.1758C66.8516 38.3086 67.1758 37.0977 67.1758 35.543C67.1758 34.1523 66.8438 33.0273 66.1797 32.168C65.5234 31.3008 64.6484 30.8672 63.5547 30.8672C62.4844 30.8672 61.6211 31.293 60.9648 32.1445C60.3086 32.9961 59.9805 34.2148 59.9805 35.8008ZM82.2695 33.9492L85.082 29.3203H87.6133L83.4648 35.5898L87.7422 42H85.2344L82.3047 37.2539L79.375 42H76.8555L81.1328 35.5898L76.9844 29.3203H79.4922L82.2695 33.9492ZM89.8516 40.8633C89.8516 40.4883 89.9609 40.1758 90.1797 39.9258C90.4062 39.6758 90.7422 39.5508 91.1875 39.5508C91.6328 39.5508 91.9688 39.6758 92.1953 39.9258C92.4297 40.1758 92.5469 40.4883 92.5469 40.8633C92.5469 41.2227 92.4297 41.5234 92.1953 41.7656C91.9688 42.0078 91.6328 42.1289 91.1875 42.1289C90.7422 42.1289 90.4062 42.0078 90.1797 41.7656C89.9609 41.5234 89.8516 41.2227 89.8516 40.8633ZM89.8633 30.5156C89.8633 30.1406 89.9727 29.8281 90.1914 29.5781C90.418 29.3281 90.7539 29.2031 91.1992 29.2031C91.6445 29.2031 91.9805 29.3281 92.207 29.5781C92.4414 29.8281 92.5586 30.1406 92.5586 30.5156C92.5586 30.875 92.4414 31.1758 92.207 31.418C91.9805 31.6602 91.6445 31.7812 91.1992 31.7812C90.7539 31.7812 90.418 31.6602 90.1914 31.418C89.9727 31.1758 89.8633 30.875 89.8633 30.5156Z" fill="white"/>
<rect x="103.5" y="12.5" width="53" height="43" rx="19.5" fill="white"/>
<rect x="103.5" y="12.5" width="53" height="43" rx="19.5" stroke="#3373CC"/>
<path d="M170.789 38.8242L173.742 29.3203H176.062L170.965 43.957C170.176 46.0664 168.922 47.1211 167.203 47.1211L166.793 47.0859L165.984 46.9336V45.1758L166.57 45.2227C167.305 45.2227 167.875 45.0742 168.281 44.7773C168.695 44.4805 169.035 43.9375 169.301 43.1484L169.781 41.8594L165.258 29.3203H167.625L170.789 38.8242ZM177.938 40.8633C177.938 40.4883 178.047 40.1758 178.266 39.9258C178.492 39.6758 178.828 39.5508 179.273 39.5508C179.719 39.5508 180.055 39.6758 180.281 39.9258C180.516 40.1758 180.633 40.4883 180.633 40.8633C180.633 41.2227 180.516 41.5234 180.281 41.7656C180.055 42.0078 179.719 42.1289 179.273 42.1289C178.828 42.1289 178.492 42.0078 178.266 41.7656C178.047 41.5234 177.938 41.2227 177.938 40.8633ZM177.949 30.5156C177.949 30.1406 178.059 29.8281 178.277 29.5781C178.504 29.3281 178.84 29.2031 179.285 29.2031C179.73 29.2031 180.066 29.3281 180.293 29.5781C180.527 29.8281 180.645 30.1406 180.645 30.5156C180.645 30.875 180.527 31.1758 180.293 31.418C180.066 31.6602 179.73 31.7812 179.285 31.7812C178.84 31.7812 178.504 31.6602 178.277 31.418C178.059 31.1758 177.949 30.875 177.949 30.5156Z" fill="white"/>
<rect x="191.5" y="12.5" width="53" height="43" rx="19.5" fill="white"/>
<rect x="191.5" y="12.5" width="53" height="43" rx="19.5" stroke="#3373CC"/>
<defs>
<clipPath id="clip0_1_1915">
<rect width="169" height="68" fill="white" transform="translate(87)"/>
</clipPath>
</defs>
</svg>
