<svg width="212" height="80" viewBox="0 0 212 80" fill="none" xmlns="http://www.w3.org/2000/svg">
<path d="M0 8.99668C0 4.02795 4.02795 0 8.99668 0H21.4985C23.5941 0 25.624 0.731537 27.2378 2.06836L36.2466 9.53102C37.8604 10.8679 39.8903 11.5994 41.9858 11.5994H60.5166C62.6121 11.5994 64.642 10.8679 66.2558 9.53103L75.2646 2.06837C76.8784 0.731538 78.9082 0 81.0038 0H89.1911V68H81.1978C78.9849 68 76.8496 68.8156 75.2002 70.2908L66.9275 77.6896C65.2781 79.1648 63.1428 79.9803 60.9299 79.9803H42.0791C39.9269 79.9803 37.8461 79.2089 36.2141 77.8059L27.337 70.1744C25.7051 68.7715 23.6242 68 21.4721 68H8.99667C4.02794 68 0 63.972 0 59.0033V8.99668Z" fill="#4C97FF"/>
<path d="M8.99707 1H21.499C23.3615 1.00011 25.1653 1.65073 26.5996 2.83887L35.6084 10.3008C37.4014 11.7861 39.657 12.5995 41.9854 12.5996H60.5166C62.8451 12.5996 65.1004 11.7862 66.8936 10.3008L75.9023 2.83887C77.3368 1.65063 79.1413 1 81.0039 1H88.1914V67H81.1982C78.7394 67 76.366 67.9058 74.5332 69.5449L66.2607 76.9443C64.7947 78.2555 62.8965 78.9805 60.9297 78.9805H42.0791C40.1663 78.9805 38.3167 78.2948 36.8662 77.0479L27.9893 69.416C26.1759 67.8571 23.863 67 21.4717 67H8.99707C4.58063 67 1 63.4194 1 59.0029V8.99707C1 4.71872 4.35986 1.22503 8.58496 1.01074L8.99707 1Z" stroke="#3373CC" stroke-width="2"/>
<g clip-path="url(#clip0_1_1709)">
<path d="M203.003 0H87V68H203.003C207.972 68 212 63.972 212 59.0033V8.99668C212 4.02795 207.972 0 203.003 0Z" fill="#4C97FF"/>
<path d="M203.003 1C207.419 1 211 4.58063 211 8.99707V59.0029C211 63.4194 207.419 67 203.003 67H88V1H203.003Z" stroke="#3373CC" stroke-width="2"/>
</g>
<rect x="86" y="2" width="4" height="64" fill="#4C97FF"/>
<path d="M19.6797 29.3203L19.7383 30.7266C20.668 29.6328 21.9219 29.0859 23.5 29.0859C25.2734 29.0859 26.4805 29.7656 27.1211 31.125C27.543 30.5156 28.0898 30.0234 28.7617 29.6484C29.4414 29.2734 30.2422 29.0859 31.1641 29.0859C33.9453 29.0859 35.3594 30.5586 35.4062 33.5039V42H33.2383V33.6328C33.2383 32.7266 33.0312 32.0508 32.6172 31.6055C32.2031 31.1523 31.5078 30.9258 30.5312 30.9258C29.7266 30.9258 29.0586 31.168 28.5273 31.6523C27.9961 32.1289 27.6875 32.7734 27.6016 33.5859V42H25.4219V33.6914C25.4219 31.8477 24.5195 30.9258 22.7148 30.9258C21.293 30.9258 20.3203 31.5312 19.7969 32.7422V42H17.6289V29.3203H19.6797ZM38.1133 35.543C38.1133 34.3008 38.3555 33.1836 38.8398 32.1914C39.332 31.1992 40.0117 30.4336 40.8789 29.8945C41.7539 29.3555 42.75 29.0859 43.8672 29.0859C45.5938 29.0859 46.9883 29.6836 48.0508 30.8789C49.1211 32.0742 49.6562 33.6641 49.6562 35.6484V35.8008C49.6562 37.0352 49.418 38.1445 48.9414 39.1289C48.4727 40.1055 47.7969 40.8672 46.9141 41.4141C46.0391 41.9609 45.0312 42.2344 43.8906 42.2344C42.1719 42.2344 40.7773 41.6367 39.707 40.4414C38.6445 39.2461 38.1133 37.6641 38.1133 35.6953V35.543ZM40.293 35.8008C40.293 37.207 40.6172 38.3359 41.2656 39.1875C41.9219 40.0391 42.7969 40.4648 43.8906 40.4648C44.9922 40.4648 45.8672 40.0352 46.5156 39.1758C47.1641 38.3086 47.4883 37.0977 47.4883 35.543C47.4883 34.1523 47.1562 33.0273 46.4922 32.168C45.8359 31.3008 44.9609 30.8672 43.8672 30.8672C42.7969 30.8672 41.9336 31.293 41.2773 32.1445C40.6211 32.9961 40.293 34.2148 40.293 35.8008ZM56.3711 39.0586L59.5117 29.3203H61.7266L57.1797 42H55.5273L50.9336 29.3203H53.1484L56.3711 39.0586ZM68.9102 42.2344C67.1914 42.2344 65.793 41.6719 64.7148 40.5469C63.6367 39.4141 63.0977 37.9023 63.0977 36.0117V35.6133C63.0977 34.3555 63.3359 33.2344 63.8125 32.25C64.2969 31.2578 64.9688 30.4844 65.8281 29.9297C66.6953 29.3672 67.6328 29.0859 68.6406 29.0859C70.2891 29.0859 71.5703 29.6289 72.4844 30.7148C73.3984 31.8008 73.8555 33.3555 73.8555 35.3789V36.2812H65.2656C65.2969 37.5312 65.6602 38.543 66.3555 39.3164C67.0586 40.082 67.9492 40.4648 69.0273 40.4648C69.793 40.4648 70.4414 40.3086 70.9727 39.9961C71.5039 39.6836 71.9688 39.2695 72.3672 38.7539L73.6914 39.7852C72.6289 41.418 71.0352 42.2344 68.9102 42.2344ZM68.6406 30.8672C67.7656 30.8672 67.0312 31.1875 66.4375 31.8281C65.8438 32.4609 65.4766 33.3516 65.3359 34.5H71.6875V34.3359C71.625 33.2344 71.3281 32.3828 70.7969 31.7812C70.2656 31.1719 69.5469 30.8672 68.6406 30.8672Z" fill="white"/>
<rect x="83.5" y="12.5" width="53" height="43" rx="19.5" fill="white"/>
<rect x="83.5" y="12.5" width="53" height="43" rx="19.5" stroke="#3373CC"/>
<path d="M154.023 38.6367C154.023 38.0508 153.801 37.5977 153.355 37.2773C152.918 36.9492 152.148 36.668 151.047 36.4336C149.953 36.1992 149.082 35.918 148.434 35.5898C147.793 35.2617 147.316 34.8711 147.004 34.418C146.699 33.9648 146.547 33.4258 146.547 32.8008C146.547 31.7617 146.984 30.8828 147.859 30.1641C148.742 29.4453 149.867 29.0859 151.234 29.0859C152.672 29.0859 153.836 29.457 154.727 30.1992C155.625 30.9414 156.074 31.8906 156.074 33.0469H153.895C153.895 32.4531 153.641 31.9414 153.133 31.5117C152.633 31.082 152 30.8672 151.234 30.8672C150.445 30.8672 149.828 31.0391 149.383 31.3828C148.938 31.7266 148.715 32.1758 148.715 32.7305C148.715 33.2539 148.922 33.6484 149.336 33.9141C149.75 34.1797 150.496 34.4336 151.574 34.6758C152.66 34.918 153.539 35.207 154.211 35.543C154.883 35.8789 155.379 36.2852 155.699 36.7617C156.027 37.2305 156.191 37.8047 156.191 38.4844C156.191 39.6172 155.738 40.5273 154.832 41.2148C153.926 41.8945 152.75 42.2344 151.305 42.2344C150.289 42.2344 149.391 42.0547 148.609 41.6953C147.828 41.3359 147.215 40.8359 146.77 40.1953C146.332 39.5469 146.113 38.8477 146.113 38.0977H148.281C148.32 38.8242 148.609 39.4023 149.148 39.832C149.695 40.2539 150.414 40.4648 151.305 40.4648C152.125 40.4648 152.781 40.3008 153.273 39.9727C153.773 39.6367 154.023 39.1914 154.023 38.6367ZM161.957 26.25V29.3203H164.324V30.9961H161.957V38.8594C161.957 39.3672 162.062 39.75 162.273 40.0078C162.484 40.2578 162.844 40.3828 163.352 40.3828C163.602 40.3828 163.945 40.3359 164.383 40.2422V42C163.812 42.1562 163.258 42.2344 162.719 42.2344C161.75 42.2344 161.02 41.9414 160.527 41.3555C160.035 40.7695 159.789 39.9375 159.789 38.8594V30.9961H157.48V29.3203H159.789V26.25H161.957ZM172.129 42.2344C170.41 42.2344 169.012 41.6719 167.934 40.5469C166.855 39.4141 166.316 37.9023 166.316 36.0117V35.6133C166.316 34.3555 166.555 33.2344 167.031 32.25C167.516 31.2578 168.188 30.4844 169.047 29.9297C169.914 29.3672 170.852 29.0859 171.859 29.0859C173.508 29.0859 174.789 29.6289 175.703 30.7148C176.617 31.8008 177.074 33.3555 177.074 35.3789V36.2812H168.484C168.516 37.5312 168.879 38.543 169.574 39.3164C170.277 40.082 171.168 40.4648 172.246 40.4648C173.012 40.4648 173.66 40.3086 174.191 39.9961C174.723 39.6836 175.188 39.2695 175.586 38.7539L176.91 39.7852C175.848 41.418 174.254 42.2344 172.129 42.2344ZM171.859 30.8672C170.984 30.8672 170.25 31.1875 169.656 31.8281C169.062 32.4609 168.695 33.3516 168.555 34.5H174.906V34.3359C174.844 33.2344 174.547 32.3828 174.016 31.7812C173.484 31.1719 172.766 30.8672 171.859 30.8672ZM190.305 35.8008C190.305 37.7305 189.863 39.2852 188.98 40.4648C188.098 41.6445 186.902 42.2344 185.395 42.2344C183.855 42.2344 182.645 41.7461 181.762 40.7695V46.875H179.594V29.3203H181.574L181.68 30.7266C182.562 29.6328 183.789 29.0859 185.359 29.0859C186.883 29.0859 188.086 29.6602 188.969 30.8086C189.859 31.957 190.305 33.5547 190.305 35.6016V35.8008ZM188.137 35.5547C188.137 34.125 187.832 32.9961 187.223 32.168C186.613 31.3398 185.777 30.9258 184.715 30.9258C183.402 30.9258 182.418 31.5078 181.762 32.6719V38.7305C182.41 39.8867 183.402 40.4648 184.738 40.4648C185.777 40.4648 186.602 40.0547 187.211 39.2344C187.828 38.4062 188.137 37.1797 188.137 35.5547ZM200.453 38.6367C200.453 38.0508 200.23 37.5977 199.785 37.2773C199.348 36.9492 198.578 36.668 197.477 36.4336C196.383 36.1992 195.512 35.918 194.863 35.5898C194.223 35.2617 193.746 34.8711 193.434 34.418C193.129 33.9648 192.977 33.4258 192.977 32.8008C192.977 31.7617 193.414 30.8828 194.289 30.1641C195.172 29.4453 196.297 29.0859 197.664 29.0859C199.102 29.0859 200.266 29.457 201.156 30.1992C202.055 30.9414 202.504 31.8906 202.504 33.0469H200.324C200.324 32.4531 200.07 31.9414 199.562 31.5117C199.062 31.082 198.43 30.8672 197.664 30.8672C196.875 30.8672 196.258 31.0391 195.812 31.3828C195.367 31.7266 195.145 32.1758 195.145 32.7305C195.145 33.2539 195.352 33.6484 195.766 33.9141C196.18 34.1797 196.926 34.4336 198.004 34.6758C199.09 34.918 199.969 35.207 200.641 35.543C201.312 35.8789 201.809 36.2852 202.129 36.7617C202.457 37.2305 202.621 37.8047 202.621 38.4844C202.621 39.6172 202.168 40.5273 201.262 41.2148C200.355 41.8945 199.18 42.2344 197.734 42.2344C196.719 42.2344 195.82 42.0547 195.039 41.6953C194.258 41.3359 193.645 40.8359 193.199 40.1953C192.762 39.5469 192.543 38.8477 192.543 38.0977H194.711C194.75 38.8242 195.039 39.4023 195.578 39.832C196.125 40.2539 196.844 40.4648 197.734 40.4648C198.555 40.4648 199.211 40.3008 199.703 39.9727C200.203 39.6367 200.453 39.1914 200.453 38.6367Z" fill="white"/>
<defs>
<clipPath id="clip0_1_1709">
<rect width="125" height="68" fill="white" transform="translate(87)"/>
</clipPath>
</defs>
</svg>
