<svg width="135" height="48" viewBox="0 0 135 48" fill="none" xmlns="http://www.w3.org/2000/svg">
<rect x="0.5" y="0.5" width="134" height="47" rx="19.5" fill="#59C059"/>
<rect x="0.5" y="0.5" width="134" height="47" rx="19.5" stroke="#389438"/>
<rect x="2.5" y="2.5" width="53" height="43" rx="19.5" fill="white"/>
<rect x="2.5" y="2.5" width="53" height="43" rx="19.5" stroke="#389438"/>
<path d="M34.3789 24.7227C34.3789 27.2617 33.9453 29.1484 33.0781 30.3828C32.2109 31.6172 30.8555 32.2344 29.0117 32.2344C27.1914 32.2344 25.8438 31.6328 24.9688 30.4297C24.0938 29.2188 23.6406 27.4141 23.6094 25.0156V22.1211C23.6094 19.6133 24.043 17.75 24.9102 16.5312C25.7773 15.3125 27.1367 14.7031 28.9883 14.7031C30.8242 14.7031 32.1758 15.293 33.043 16.4727C33.9102 17.6445 34.3555 19.457 34.3789 21.9102V24.7227ZM32.2109 21.7578C32.2109 19.9219 31.9531 18.5859 31.4375 17.75C30.9219 16.9062 30.1055 16.4844 28.9883 16.4844C27.8789 16.4844 27.0703 16.9023 26.5625 17.7383C26.0547 18.5742 25.793 19.8594 25.7773 21.5938V25.0625C25.7773 26.9062 26.043 28.2695 26.5742 29.1523C27.1133 30.0273 27.9258 30.4648 29.0117 30.4648C30.082 30.4648 30.875 30.0508 31.3906 29.2227C31.9141 28.3945 32.1875 27.0898 32.2109 25.3086V21.7578Z" fill="white"/>
<path d="M70.1523 25.6367H64.4336V23.8672H70.1523V25.6367Z" fill="white"/>
<rect x="79.5" y="2.5" width="53" height="43" rx="19.5" fill="white"/>
<rect x="79.5" y="2.5" width="53" height="43" rx="19.5" stroke="#389438"/>
<path d="M111.379 24.7227C111.379 27.2617 110.945 29.1484 110.078 30.3828C109.211 31.6172 107.855 32.2344 106.012 32.2344C104.191 32.2344 102.844 31.6328 101.969 30.4297C101.094 29.2188 100.641 27.4141 100.609 25.0156V22.1211C100.609 19.6133 101.043 17.75 101.91 16.5312C102.777 15.3125 104.137 14.7031 105.988 14.7031C107.824 14.7031 109.176 15.293 110.043 16.4727C110.91 17.6445 111.355 19.457 111.379 21.9102V24.7227ZM109.211 21.7578C109.211 19.9219 108.953 18.5859 108.438 17.75C107.922 16.9062 107.105 16.4844 105.988 16.4844C104.879 16.4844 104.07 16.9023 103.562 17.7383C103.055 18.5742 102.793 19.8594 102.777 21.5938V25.0625C102.777 26.9062 103.043 28.2695 103.574 29.1523C104.113 30.0273 104.926 30.4648 106.012 30.4648C107.082 30.4648 107.875 30.0508 108.391 29.2227C108.914 28.3945 109.188 27.0898 109.211 25.3086V21.7578Z" fill="white"/>
</svg>
