<svg width="185" height="48" viewBox="0 0 185 48" fill="none" xmlns="http://www.w3.org/2000/svg">
<path d="M0 24L22 0V48L0 24Z" fill="#389438"/>
<rect x="22" width="141" height="48" fill="#389438"/>
<path d="M185 24L163 0V48L185 24Z" fill="#389438"/>
<path d="M1 24L22.5 0.75V47.25L1 24Z" fill="#59C059"/>
<path d="M184 24L162.5 0.75V47.25L184 24Z" fill="#59C059"/>
<rect x="22.5" y="0.75" width="140" height="46.5" fill="#59C059"/>
<rect x="24.5" y="2.5" width="53" height="43" rx="19.5" fill="white"/>
<rect x="24.5" y="2.5" width="53" height="43" rx="19.5" stroke="#389438"/>
<path d="M56.3789 24.7227C56.3789 27.2617 55.9453 29.1484 55.0781 30.3828C54.2109 31.6172 52.8555 32.2344 51.0117 32.2344C49.1914 32.2344 47.8438 31.6328 46.9688 30.4297C46.0938 29.2188 45.6406 27.4141 45.6094 25.0156V22.1211C45.6094 19.6133 46.043 17.75 46.9102 16.5312C47.7773 15.3125 49.1367 14.7031 50.9883 14.7031C52.8242 14.7031 54.1758 15.293 55.043 16.4727C55.9102 17.6445 56.3555 19.457 56.3789 21.9102V24.7227ZM54.2109 21.7578C54.2109 19.9219 53.9531 18.5859 53.4375 17.75C52.9219 16.9062 52.1055 16.4844 50.9883 16.4844C49.8789 16.4844 49.0703 16.9023 48.5625 17.7383C48.0547 18.5742 47.793 19.8594 47.7773 21.5938V25.0625C47.7773 26.9062 48.043 28.2695 48.5742 29.1523C49.1133 30.0273 49.9258 30.4648 51.0117 30.4648C52.082 30.4648 52.875 30.0508 53.3906 29.2227C53.9141 28.3945 54.1875 27.0898 54.2109 25.3086V21.7578Z" fill="white"/>
<path d="M95.3164 24.3828L87.5703 21.3477V19.1211L97.5781 23.5508V25.2617L87.5703 29.7031V27.4531L95.3164 24.3828Z" fill="white"/>
<rect x="107.5" y="2.5" width="53" height="43" rx="19.5" fill="white"/>
<rect x="107.5" y="2.5" width="53" height="43" rx="19.5" stroke="#389438"/>
<path d="M139.379 24.7227C139.379 27.2617 138.945 29.1484 138.078 30.3828C137.211 31.6172 135.855 32.2344 134.012 32.2344C132.191 32.2344 130.844 31.6328 129.969 30.4297C129.094 29.2188 128.641 27.4141 128.609 25.0156V22.1211C128.609 19.6133 129.043 17.75 129.91 16.5312C130.777 15.3125 132.137 14.7031 133.988 14.7031C135.824 14.7031 137.176 15.293 138.043 16.4727C138.91 17.6445 139.355 19.457 139.379 21.9102V24.7227ZM137.211 21.7578C137.211 19.9219 136.953 18.5859 136.438 17.75C135.922 16.9062 135.105 16.4844 133.988 16.4844C132.879 16.4844 132.07 16.9023 131.562 17.7383C131.055 18.5742 130.793 19.8594 130.777 21.5938V25.0625C130.777 26.9062 131.043 28.2695 131.574 29.1523C132.113 30.0273 132.926 30.4648 134.012 30.4648C135.082 30.4648 135.875 30.0508 136.391 29.2227C136.914 28.3945 137.188 27.0898 137.211 25.3086V21.7578Z" fill="white"/>
</svg>
