<svg width="142" height="48" viewBox="0 0 142 48" fill="none" xmlns="http://www.w3.org/2000/svg">
<rect x="0.5" y="0.5" width="141" height="47" rx="19.5" fill="#59C059"/>
<rect x="0.5" y="0.5" width="141" height="47" rx="19.5" stroke="#389438"/>
<rect x="2.5" y="2.5" width="53" height="43" rx="19.5" fill="white"/>
<rect x="2.5" y="2.5" width="53" height="43" rx="19.5" stroke="#389438"/>
<path d="M34.3789 24.7227C34.3789 27.2617 33.9453 29.1484 33.0781 30.3828C32.2109 31.6172 30.8555 32.2344 29.0117 32.2344C27.1914 32.2344 25.8438 31.6328 24.9688 30.4297C24.0938 29.2188 23.6406 27.4141 23.6094 25.0156V22.1211C23.6094 19.6133 24.043 17.75 24.9102 16.5312C25.7773 15.3125 27.1367 14.7031 28.9883 14.7031C30.8242 14.7031 32.1758 15.293 33.043 16.4727C33.9102 17.6445 34.3555 19.457 34.3789 21.9102V24.7227ZM32.2109 21.7578C32.2109 19.9219 31.9531 18.5859 31.4375 17.75C30.9219 16.9062 30.1055 16.4844 28.9883 16.4844C27.8789 16.4844 27.0703 16.9023 26.5625 17.7383C26.0547 18.5742 25.793 19.8594 25.7773 21.5938V25.0625C25.7773 26.9062 26.043 28.2695 26.5742 29.1523C27.1133 30.0273 27.9258 30.4648 29.0117 30.4648C30.082 30.4648 30.875 30.0508 31.3906 29.2227C31.9141 28.3945 32.1875 27.0898 32.2109 25.3086V21.7578Z" fill="white"/>
<path d="M71.8516 22.8477H76.6094V24.8984H71.8516V30.2891H69.6719V24.8984H64.9141V22.8477H69.6719V17.8672H71.8516V22.8477Z" fill="white"/>
<rect x="86.5" y="2.5" width="53" height="43" rx="19.5" fill="white"/>
<rect x="86.5" y="2.5" width="53" height="43" rx="19.5" stroke="#389438"/>
<path d="M118.379 24.7227C118.379 27.2617 117.945 29.1484 117.078 30.3828C116.211 31.6172 114.855 32.2344 113.012 32.2344C111.191 32.2344 109.844 31.6328 108.969 30.4297C108.094 29.2188 107.641 27.4141 107.609 25.0156V22.1211C107.609 19.6133 108.043 17.75 108.91 16.5312C109.777 15.3125 111.137 14.7031 112.988 14.7031C114.824 14.7031 116.176 15.293 117.043 16.4727C117.91 17.6445 118.355 19.457 118.379 21.9102V24.7227ZM116.211 21.7578C116.211 19.9219 115.953 18.5859 115.438 17.75C114.922 16.9062 114.105 16.4844 112.988 16.4844C111.879 16.4844 111.07 16.9023 110.562 17.7383C110.055 18.5742 109.793 19.8594 109.777 21.5938V25.0625C109.777 26.9062 110.043 28.2695 110.574 29.1523C111.113 30.0273 111.926 30.4648 113.012 30.4648C114.082 30.4648 114.875 30.0508 115.391 29.2227C115.914 28.3945 116.188 27.0898 116.211 25.3086V21.7578Z" fill="white"/>
</svg>
