<svg width="186" height="48" viewBox="0 0 186 48" fill="none" xmlns="http://www.w3.org/2000/svg">
<path d="M0 24L22 0V48L0 24Z" fill="#389438"/>
<rect x="22" width="141" height="48" fill="#389438"/>
<path d="M185 24L163 0V48L185 24Z" fill="#389438"/>
<path d="M1 24L22.5 0.75V47.25L1 24Z" fill="#59C059"/>
<path d="M184 24L162.5 0.75V47.25L184 24Z" fill="#59C059"/>
<rect x="22.5" y="0.75" width="140" height="46.5" fill="#59C059"/>
<rect x="24.5" y="2.5" width="53" height="43" rx="19.5" fill="white"/>
<rect x="24.5" y="2.5" width="53" height="43" rx="19.5" stroke="#389438"/>
<path d="M56.3789 24.7227C56.3789 27.2617 55.9453 29.1484 55.0781 30.3828C54.2109 31.6172 52.8555 32.2344 51.0117 32.2344C49.1914 32.2344 47.8438 31.6328 46.9688 30.4297C46.0938 29.2188 45.6406 27.4141 45.6094 25.0156V22.1211C45.6094 19.6133 46.043 17.75 46.9102 16.5312C47.7773 15.3125 49.1367 14.7031 50.9883 14.7031C52.8242 14.7031 54.1758 15.293 55.043 16.4727C55.9102 17.6445 56.3555 19.457 56.3789 21.9102V24.7227ZM54.2109 21.7578C54.2109 19.9219 53.9531 18.5859 53.4375 17.75C52.9219 16.9062 52.1055 16.4844 50.9883 16.4844C49.8789 16.4844 49.0703 16.9023 48.5625 17.7383C48.0547 18.5742 47.793 19.8594 47.7773 21.5938V25.0625C47.7773 26.9062 48.043 28.2695 48.5742 29.1523C49.1133 30.0273 49.9258 30.4648 51.0117 30.4648C52.082 30.4648 52.875 30.0508 53.3906 29.2227C53.9141 28.3945 54.1875 27.0898 54.2109 25.3086V21.7578Z" fill="white"/>
<path d="M97.5547 22.4609H87.7812V20.5742H97.5547V22.4609ZM97.5547 27.3242H87.7812V25.4492H97.5547V27.3242Z" fill="white"/>
<rect x="108.5" y="2.5" width="53" height="43" rx="19.5" fill="white"/>
<rect x="108.5" y="2.5" width="53" height="43" rx="19.5" stroke="#389438"/>
<path d="M140.379 24.7227C140.379 27.2617 139.945 29.1484 139.078 30.3828C138.211 31.6172 136.855 32.2344 135.012 32.2344C133.191 32.2344 131.844 31.6328 130.969 30.4297C130.094 29.2188 129.641 27.4141 129.609 25.0156V22.1211C129.609 19.6133 130.043 17.75 130.91 16.5312C131.777 15.3125 133.137 14.7031 134.988 14.7031C136.824 14.7031 138.176 15.293 139.043 16.4727C139.91 17.6445 140.355 19.457 140.379 21.9102V24.7227ZM138.211 21.7578C138.211 19.9219 137.953 18.5859 137.438 17.75C136.922 16.9062 136.105 16.4844 134.988 16.4844C133.879 16.4844 133.07 16.9023 132.562 17.7383C132.055 18.5742 131.793 19.8594 131.777 21.5938V25.0625C131.777 26.9062 132.043 28.2695 132.574 29.1523C133.113 30.0273 133.926 30.4648 135.012 30.4648C136.082 30.4648 136.875 30.0508 137.391 29.2227C137.914 28.3945 138.188 27.0898 138.211 25.3086V21.7578Z" fill="white"/>
</svg>
