<svg width="139" height="48" viewBox="0 0 139 48" fill="none" xmlns="http://www.w3.org/2000/svg">
<rect x="0.5" y="0.5" width="138" height="47" rx="19.5" fill="#59C059"/>
<rect x="0.5" y="0.5" width="138" height="47" rx="19.5" stroke="#389438"/>
<rect x="2.5" y="2.5" width="53" height="43" rx="19.5" fill="white"/>
<rect x="2.5" y="2.5" width="53" height="43" rx="19.5" stroke="#389438"/>
<path d="M34.3789 24.7227C34.3789 27.2617 33.9453 29.1484 33.0781 30.3828C32.2109 31.6172 30.8555 32.2344 29.0117 32.2344C27.1914 32.2344 25.8438 31.6328 24.9688 30.4297C24.0938 29.2188 23.6406 27.4141 23.6094 25.0156V22.1211C23.6094 19.6133 24.043 17.75 24.9102 16.5312C25.7773 15.3125 27.1367 14.7031 28.9883 14.7031C30.8242 14.7031 32.1758 15.293 33.043 16.4727C33.9102 17.6445 34.3555 19.457 34.3789 21.9102V24.7227ZM32.2109 21.7578C32.2109 19.9219 31.9531 18.5859 31.4375 17.75C30.9219 16.9062 30.1055 16.4844 28.9883 16.4844C27.8789 16.4844 27.0703 16.9023 26.5625 17.7383C26.0547 18.5742 25.793 19.8594 25.7773 21.5938V25.0625C25.7773 26.9062 26.043 28.2695 26.5742 29.1523C27.1133 30.0273 27.9258 30.4648 29.0117 30.4648C30.082 30.4648 30.875 30.0508 31.3906 29.2227C31.9141 28.3945 32.1875 27.0898 32.2109 25.3086V21.7578Z" fill="white"/>
<path d="M67.8672 20.4805L64.3281 19.4258L64.8672 17.6562L68.4062 18.9688L68.3008 14.9375H70.0938L69.9766 19.0273L73.457 17.7383L73.9961 19.5195L70.3984 20.5859L72.7188 23.7617L71.2656 24.8633L69.0859 21.4883L66.9766 24.7812L65.5117 23.7148L67.8672 20.4805Z" fill="white"/>
<rect x="83.5" y="2.5" width="53" height="43" rx="19.5" fill="white"/>
<rect x="83.5" y="2.5" width="53" height="43" rx="19.5" stroke="#389438"/>
<path d="M115.379 24.7227C115.379 27.2617 114.945 29.1484 114.078 30.3828C113.211 31.6172 111.855 32.2344 110.012 32.2344C108.191 32.2344 106.844 31.6328 105.969 30.4297C105.094 29.2188 104.641 27.4141 104.609 25.0156V22.1211C104.609 19.6133 105.043 17.75 105.91 16.5312C106.777 15.3125 108.137 14.7031 109.988 14.7031C111.824 14.7031 113.176 15.293 114.043 16.4727C114.91 17.6445 115.355 19.457 115.379 21.9102V24.7227ZM113.211 21.7578C113.211 19.9219 112.953 18.5859 112.438 17.75C111.922 16.9062 111.105 16.4844 109.988 16.4844C108.879 16.4844 108.07 16.9023 107.562 17.7383C107.055 18.5742 106.793 19.8594 106.777 21.5938V25.0625C106.777 26.9062 107.043 28.2695 107.574 29.1523C108.113 30.0273 108.926 30.4648 110.012 30.4648C111.082 30.4648 111.875 30.0508 112.391 29.2227C112.914 28.3945 113.188 27.0898 113.211 25.3086V21.7578Z" fill="white"/>
</svg>
