<svg width="356" height="80" viewBox="0 0 356 80" fill="none" xmlns="http://www.w3.org/2000/svg">
<path d="M0 8.99668C0 4.02795 4.02795 0 8.99668 0H21.4985C23.5941 0 25.624 0.731537 27.2378 2.06836L36.2466 9.53102C37.8604 10.8679 39.8903 11.5994 41.9858 11.5994H60.5166C62.6121 11.5994 64.642 10.8679 66.2558 9.53103L75.2646 2.06837C76.8784 0.731538 78.9082 0 81.0038 0H89.1911V68H81.1978C78.9849 68 76.8496 68.8156 75.2002 70.2908L66.9275 77.6896C65.2781 79.1648 63.1428 79.9803 60.9299 79.9803H42.0791C39.9269 79.9803 37.8461 79.2089 36.2141 77.8059L27.337 70.1744C25.7051 68.7715 23.6242 68 21.4721 68H8.99667C4.02794 68 0 63.972 0 59.0033V8.99668Z" fill="#FF8C1A"/>
<path d="M8.99707 1H21.499C23.3615 1.00011 25.1653 1.65073 26.5996 2.83887L35.6084 10.3008C37.4014 11.7861 39.657 12.5995 41.9854 12.5996H60.5166C62.8451 12.5996 65.1004 11.7862 66.8936 10.3008L75.9023 2.83887C77.3368 1.65063 79.1413 1 81.0039 1H88.1914V67H81.1982C78.7394 67 76.366 67.9058 74.5332 69.5449L66.2607 76.9443C64.7947 78.2555 62.8965 78.9805 60.9297 78.9805H42.0791C40.1663 78.9805 38.3167 78.2948 36.8662 77.0479L27.9893 69.416C26.1759 67.8571 23.863 67 21.4717 67H8.99707C4.58063 67 1 63.4194 1 59.0029V8.99707C1 4.71872 4.35986 1.22503 8.58496 1.01074L8.99707 1Z" stroke="#DB6E00" stroke-width="2"/>
<g clip-path="url(#clip0_1_6541)">
<path d="M347.003 0H87V68H347.003C351.972 68 356 63.972 356 59.0033V8.99668C356 4.02795 351.972 0 347.003 0Z" fill="#FF8C1A"/>
<path d="M347.003 1C351.419 1 355 4.58062 355 8.99707V59.0029C355 63.4194 351.419 67 347.003 67H88V1H347.003Z" stroke="#DB6E00" stroke-width="2"/>
</g>
<rect x="86" y="2" width="4" height="64" fill="#FF8C1A"/>
<path d="M25.0234 38.6367C25.0234 38.0508 24.8008 37.5977 24.3555 37.2773C23.918 36.9492 23.1484 36.668 22.0469 36.4336C20.9531 36.1992 20.082 35.918 19.4336 35.5898C18.793 35.2617 18.3164 34.8711 18.0039 34.418C17.6992 33.9648 17.5469 33.4258 17.5469 32.8008C17.5469 31.7617 17.9844 30.8828 18.8594 30.1641C19.7422 29.4453 20.8672 29.0859 22.2344 29.0859C23.6719 29.0859 24.8359 29.457 25.7266 30.1992C26.625 30.9414 27.0742 31.8906 27.0742 33.0469H24.8945C24.8945 32.4531 24.6406 31.9414 24.1328 31.5117C23.6328 31.082 23 30.8672 22.2344 30.8672C21.4453 30.8672 20.8281 31.0391 20.3828 31.3828C19.9375 31.7266 19.7148 32.1758 19.7148 32.7305C19.7148 33.2539 19.9219 33.6484 20.3359 33.9141C20.75 34.1797 21.4961 34.4336 22.5742 34.6758C23.6602 34.918 24.5391 35.207 25.2109 35.543C25.8828 35.8789 26.3789 36.2852 26.6992 36.7617C27.0273 37.2305 27.1914 37.8047 27.1914 38.4844C27.1914 39.6172 26.7383 40.5273 25.832 41.2148C24.9258 41.8945 23.75 42.2344 22.3047 42.2344C21.2891 42.2344 20.3906 42.0547 19.6094 41.6953C18.8281 41.3359 18.2148 40.8359 17.7695 40.1953C17.332 39.5469 17.1133 38.8477 17.1133 38.0977H19.2812C19.3203 38.8242 19.6094 39.4023 20.1484 39.832C20.6953 40.2539 21.4141 40.4648 22.3047 40.4648C23.125 40.4648 23.7812 40.3008 24.2734 39.9727C24.7734 39.6367 25.0234 39.1914 25.0234 38.6367ZM35.2773 42.2344C33.5586 42.2344 32.1602 41.6719 31.082 40.5469C30.0039 39.4141 29.4648 37.9023 29.4648 36.0117V35.6133C29.4648 34.3555 29.7031 33.2344 30.1797 32.25C30.6641 31.2578 31.3359 30.4844 32.1953 29.9297C33.0625 29.3672 34 29.0859 35.0078 29.0859C36.6562 29.0859 37.9375 29.6289 38.8516 30.7148C39.7656 31.8008 40.2227 33.3555 40.2227 35.3789V36.2812H31.6328C31.6641 37.5312 32.0273 38.543 32.7227 39.3164C33.4258 40.082 34.3164 40.4648 35.3945 40.4648C36.1602 40.4648 36.8086 40.3086 37.3398 39.9961C37.8711 39.6836 38.3359 39.2695 38.7344 38.7539L40.0586 39.7852C38.9961 41.418 37.4023 42.2344 35.2773 42.2344ZM35.0078 30.8672C34.1328 30.8672 33.3984 31.1875 32.8047 31.8281C32.2109 32.4609 31.8438 33.3516 31.7031 34.5H38.0547V34.3359C37.9922 33.2344 37.6953 32.3828 37.1641 31.7812C36.6328 31.1719 35.9141 30.8672 35.0078 30.8672ZM45.6836 26.25V29.3203H48.0508V30.9961H45.6836V38.8594C45.6836 39.3672 45.7891 39.75 46 40.0078C46.2109 40.2578 46.5703 40.3828 47.0781 40.3828C47.3281 40.3828 47.6719 40.3359 48.1094 40.2422V42C47.5391 42.1562 46.9844 42.2344 46.4453 42.2344C45.4766 42.2344 44.7461 41.9414 44.2539 41.3555C43.7617 40.7695 43.5156 39.9375 43.5156 38.8594V30.9961H41.207V29.3203H43.5156V26.25H45.6836Z" fill="white"/>
<rect x="81.5" y="12.5" width="153" height="43" rx="3.5" fill="#FF8C1A"/>
<rect x="81.5" y="12.5" width="153" height="43" rx="3.5" stroke="#DB6E00"/>
<path d="M247.582 26.25V29.3203H249.949V30.9961H247.582V38.8594C247.582 39.3672 247.688 39.75 247.898 40.0078C248.109 40.2578 248.469 40.3828 248.977 40.3828C249.227 40.3828 249.57 40.3359 250.008 40.2422V42C249.438 42.1562 248.883 42.2344 248.344 42.2344C247.375 42.2344 246.645 41.9414 246.152 41.3555C245.66 40.7695 245.414 39.9375 245.414 38.8594V30.9961H243.105V29.3203H245.414V26.25H247.582ZM251.684 35.543C251.684 34.3008 251.926 33.1836 252.41 32.1914C252.902 31.1992 253.582 30.4336 254.449 29.8945C255.324 29.3555 256.32 29.0859 257.438 29.0859C259.164 29.0859 260.559 29.6836 261.621 30.8789C262.691 32.0742 263.227 33.6641 263.227 35.6484V35.8008C263.227 37.0352 262.988 38.1445 262.512 39.1289C262.043 40.1055 261.367 40.8672 260.484 41.4141C259.609 41.9609 258.602 42.2344 257.461 42.2344C255.742 42.2344 254.348 41.6367 253.277 40.4414C252.215 39.2461 251.684 37.6641 251.684 35.6953V35.543ZM253.863 35.8008C253.863 37.207 254.188 38.3359 254.836 39.1875C255.492 40.0391 256.367 40.4648 257.461 40.4648C258.562 40.4648 259.438 40.0352 260.086 39.1758C260.734 38.3086 261.059 37.0977 261.059 35.543C261.059 34.1523 260.727 33.0273 260.062 32.168C259.406 31.3008 258.531 30.8672 257.438 30.8672C256.367 30.8672 255.504 31.293 254.848 32.1445C254.191 32.9961 253.863 34.2148 253.863 35.8008Z" fill="white"/>
<rect x="273.5" y="12.5" width="53" height="43" rx="19.5" fill="white"/>
<rect x="273.5" y="12.5" width="53" height="43" rx="19.5" stroke="#DB6E00"/>
<defs>
<clipPath id="clip0_1_6541">
<rect width="269" height="68" fill="white" transform="translate(87)"/>
</clipPath>
</defs>
</svg>
