<svg width="354" height="80" viewBox="0 0 354 80" fill="none" xmlns="http://www.w3.org/2000/svg">
<path d="M0 8.99668C0 4.02795 4.02795 0 8.99668 0H21.4985C23.5941 0 25.624 0.731537 27.2378 2.06836L36.2466 9.53102C37.8604 10.8679 39.8903 11.5994 41.9858 11.5994H60.5166C62.6121 11.5994 64.642 10.8679 66.2558 9.53103L75.2646 2.06837C76.8784 0.731538 78.9082 0 81.0038 0H89.1911V68H81.1978C78.9849 68 76.8496 68.8156 75.2002 70.2908L66.9275 77.6896C65.2781 79.1648 63.1428 79.9803 60.9299 79.9803H42.0791C39.9269 79.9803 37.8461 79.2089 36.2141 77.8059L27.337 70.1744C25.7051 68.7715 23.6242 68 21.4721 68H8.99667C4.02794 68 0 63.972 0 59.0033V8.99668Z" fill="#FF8C1A"/>
<path d="M8.99707 1H21.499C23.3615 1.00011 25.1653 1.65073 26.5996 2.83887L35.6084 10.3008C37.4014 11.7861 39.657 12.5995 41.9854 12.5996H60.5166C62.8451 12.5996 65.1004 11.7862 66.8936 10.3008L75.9023 2.83887C77.3368 1.65063 79.1413 1 81.0039 1H88.1914V67H81.1982C78.7394 67 76.366 67.9058 74.5332 69.5449L66.2607 76.9443C64.7947 78.2555 62.8965 78.9805 60.9297 78.9805H42.0791C40.1663 78.9805 38.3167 78.2948 36.8662 77.0479L27.9893 69.416C26.1759 67.8571 23.863 67 21.4717 67H8.99707C4.58063 67 1 63.4194 1 59.0029V8.99707C1 4.71872 4.35986 1.22503 8.58496 1.01074L8.99707 1Z" stroke="#DB6E00" stroke-width="2"/>
<g clip-path="url(#clip0_1_6539)">
<path d="M345.003 0H87V68H345.003C349.972 68 354 63.972 354 59.0033V8.99668C354 4.02795 349.972 0 345.003 0Z" fill="#FF8C1A"/>
<path d="M345.003 1C349.419 1 353 4.58062 353 8.99707V59.0029C353 63.4194 349.419 67 345.003 67H88V1H345.003Z" stroke="#DB6E00" stroke-width="2"/>
</g>
<rect x="86" y="2" width="4" height="64" fill="#FF8C1A"/>
<path d="M25.0234 38.6367C25.0234 38.0508 24.8008 37.5977 24.3555 37.2773C23.918 36.9492 23.1484 36.668 22.0469 36.4336C20.9531 36.1992 20.082 35.918 19.4336 35.5898C18.793 35.2617 18.3164 34.8711 18.0039 34.418C17.6992 33.9648 17.5469 33.4258 17.5469 32.8008C17.5469 31.7617 17.9844 30.8828 18.8594 30.1641C19.7422 29.4453 20.8672 29.0859 22.2344 29.0859C23.6719 29.0859 24.8359 29.457 25.7266 30.1992C26.625 30.9414 27.0742 31.8906 27.0742 33.0469H24.8945C24.8945 32.4531 24.6406 31.9414 24.1328 31.5117C23.6328 31.082 23 30.8672 22.2344 30.8672C21.4453 30.8672 20.8281 31.0391 20.3828 31.3828C19.9375 31.7266 19.7148 32.1758 19.7148 32.7305C19.7148 33.2539 19.9219 33.6484 20.3359 33.9141C20.75 34.1797 21.4961 34.4336 22.5742 34.6758C23.6602 34.918 24.5391 35.207 25.2109 35.543C25.8828 35.8789 26.3789 36.2852 26.6992 36.7617C27.0273 37.2305 27.1914 37.8047 27.1914 38.4844C27.1914 39.6172 26.7383 40.5273 25.832 41.2148C24.9258 41.8945 23.75 42.2344 22.3047 42.2344C21.2891 42.2344 20.3906 42.0547 19.6094 41.6953C18.8281 41.3359 18.2148 40.8359 17.7695 40.1953C17.332 39.5469 17.1133 38.8477 17.1133 38.0977H19.2812C19.3203 38.8242 19.6094 39.4023 20.1484 39.832C20.6953 40.2539 21.4141 40.4648 22.3047 40.4648C23.125 40.4648 23.7812 40.3008 24.2734 39.9727C24.7734 39.6367 25.0234 39.1914 25.0234 38.6367ZM32.1836 30.8555C33.1445 29.6758 34.3945 29.0859 35.9336 29.0859C38.6133 29.0859 39.9648 30.5977 39.9883 33.6211V42H37.8203V33.6094C37.8125 32.6953 37.6016 32.0195 37.1875 31.582C36.7812 31.1445 36.1445 30.9258 35.2773 30.9258C34.5742 30.9258 33.957 31.1133 33.4258 31.4883C32.8945 31.8633 32.4805 32.3555 32.1836 32.9648V42H30.0156V24H32.1836V30.8555ZM42.6602 35.543C42.6602 34.3008 42.9023 33.1836 43.3867 32.1914C43.8789 31.1992 44.5586 30.4336 45.4258 29.8945C46.3008 29.3555 47.2969 29.0859 48.4141 29.0859C50.1406 29.0859 51.5352 29.6836 52.5977 30.8789C53.668 32.0742 54.2031 33.6641 54.2031 35.6484V35.8008C54.2031 37.0352 53.9648 38.1445 53.4883 39.1289C53.0195 40.1055 52.3438 40.8672 51.4609 41.4141C50.5859 41.9609 49.5781 42.2344 48.4375 42.2344C46.7188 42.2344 45.3242 41.6367 44.2539 40.4414C43.1914 39.2461 42.6602 37.6641 42.6602 35.6953V35.543ZM44.8398 35.8008C44.8398 37.207 45.1641 38.3359 45.8125 39.1875C46.4688 40.0391 47.3438 40.4648 48.4375 40.4648C49.5391 40.4648 50.4141 40.0352 51.0625 39.1758C51.7109 38.3086 52.0352 37.0977 52.0352 35.543C52.0352 34.1523 51.7031 33.0273 51.0391 32.168C50.3828 31.3008 49.5078 30.8672 48.4141 30.8672C47.3438 30.8672 46.4805 31.293 45.8242 32.1445C45.168 32.9961 44.8398 34.2148 44.8398 35.8008ZM68.1484 39.0117L70.5859 29.3203H72.7539L69.0625 42H67.3047L64.2227 32.3906L61.2227 42H59.4648L55.7852 29.3203H57.9414L60.4375 38.8125L63.3906 29.3203H65.1367L68.1484 39.0117ZM85.1055 39.0586L88.2461 29.3203H90.4609L85.9141 42H84.2617L79.668 29.3203H81.8828L85.1055 39.0586ZM100.188 42C100.062 41.75 99.9609 41.3047 99.8828 40.6641C98.875 41.7109 97.6719 42.2344 96.2734 42.2344C95.0234 42.2344 93.9961 41.8828 93.1914 41.1797C92.3945 40.4688 91.9961 39.5703 91.9961 38.4844C91.9961 37.1641 92.4961 36.1406 93.4961 35.4141C94.5039 34.6797 95.918 34.3125 97.7383 34.3125H99.8477V33.3164C99.8477 32.5586 99.6211 31.957 99.168 31.5117C98.7148 31.0586 98.0469 30.832 97.1641 30.832C96.3906 30.832 95.7422 31.0273 95.2188 31.418C94.6953 31.8086 94.4336 32.2812 94.4336 32.8359H92.2539C92.2539 32.2031 92.4766 31.5938 92.9219 31.0078C93.375 30.4141 93.9844 29.9453 94.75 29.6016C95.5234 29.2578 96.3711 29.0859 97.293 29.0859C98.7539 29.0859 99.8984 29.4531 100.727 30.1875C101.555 30.9141 101.984 31.918 102.016 33.1992V39.0352C102.016 40.1992 102.164 41.125 102.461 41.8125V42H100.188ZM96.5898 40.3477C97.2695 40.3477 97.9141 40.1719 98.5234 39.8203C99.1328 39.4688 99.5742 39.0117 99.8477 38.4492V35.8477H98.1484C95.4922 35.8477 94.1641 36.625 94.1641 38.1797C94.1641 38.8594 94.3906 39.3906 94.8438 39.7734C95.2969 40.1562 95.8789 40.3477 96.5898 40.3477ZM111.543 31.2656C111.215 31.2109 110.859 31.1836 110.477 31.1836C109.055 31.1836 108.09 31.7891 107.582 33V42H105.414V29.3203H107.523L107.559 30.7852C108.27 29.6523 109.277 29.0859 110.582 29.0859C111.004 29.0859 111.324 29.1406 111.543 29.25V31.2656ZM115.902 42H113.734V29.3203H115.902V42ZM113.559 25.957C113.559 25.6055 113.664 25.3086 113.875 25.0664C114.094 24.8242 114.414 24.7031 114.836 24.7031C115.258 24.7031 115.578 24.8242 115.797 25.0664C116.016 25.3086 116.125 25.6055 116.125 25.957C116.125 26.3086 116.016 26.6016 115.797 26.8359C115.578 27.0703 115.258 27.1875 114.836 27.1875C114.414 27.1875 114.094 27.0703 113.875 26.8359C113.664 26.6016 113.559 26.3086 113.559 25.957ZM127.211 42C127.086 41.75 126.984 41.3047 126.906 40.6641C125.898 41.7109 124.695 42.2344 123.297 42.2344C122.047 42.2344 121.02 41.8828 120.215 41.1797C119.418 40.4688 119.02 39.5703 119.02 38.4844C119.02 37.1641 119.52 36.1406 120.52 35.4141C121.527 34.6797 122.941 34.3125 124.762 34.3125H126.871V33.3164C126.871 32.5586 126.645 31.957 126.191 31.5117C125.738 31.0586 125.07 30.832 124.188 30.832C123.414 30.832 122.766 31.0273 122.242 31.418C121.719 31.8086 121.457 32.2812 121.457 32.8359H119.277C119.277 32.2031 119.5 31.5938 119.945 31.0078C120.398 30.4141 121.008 29.9453 121.773 29.6016C122.547 29.2578 123.395 29.0859 124.316 29.0859C125.777 29.0859 126.922 29.4531 127.75 30.1875C128.578 30.9141 129.008 31.918 129.039 33.1992V39.0352C129.039 40.1992 129.188 41.125 129.484 41.8125V42H127.211ZM123.613 40.3477C124.293 40.3477 124.938 40.1719 125.547 39.8203C126.156 39.4688 126.598 39.0117 126.871 38.4492V35.8477H125.172C122.516 35.8477 121.188 36.625 121.188 38.1797C121.188 38.8594 121.414 39.3906 121.867 39.7734C122.32 40.1562 122.902 40.3477 123.613 40.3477ZM143.172 35.8008C143.172 37.7383 142.727 39.2969 141.836 40.4766C140.945 41.6484 139.75 42.2344 138.25 42.2344C136.648 42.2344 135.41 41.668 134.535 40.5352L134.43 42H132.438V24H134.605V30.7148C135.48 29.6289 136.688 29.0859 138.227 29.0859C139.766 29.0859 140.973 29.668 141.848 30.832C142.73 31.9961 143.172 33.5898 143.172 35.6133V35.8008ZM141.004 35.5547C141.004 34.0781 140.719 32.9375 140.148 32.1328C139.578 31.3281 138.758 30.9258 137.688 30.9258C136.258 30.9258 135.23 31.5898 134.605 32.918V38.4023C135.27 39.7305 136.305 40.3945 137.711 40.3945C138.75 40.3945 139.559 39.9922 140.137 39.1875C140.715 38.3828 141.004 37.1719 141.004 35.5547ZM148.27 42H146.102V24H148.27V42ZM157.012 42.2344C155.293 42.2344 153.895 41.6719 152.816 40.5469C151.738 39.4141 151.199 37.9023 151.199 36.0117V35.6133C151.199 34.3555 151.438 33.2344 151.914 32.25C152.398 31.2578 153.07 30.4844 153.93 29.9297C154.797 29.3672 155.734 29.0859 156.742 29.0859C158.391 29.0859 159.672 29.6289 160.586 30.7148C161.5 31.8008 161.957 33.3555 161.957 35.3789V36.2812H153.367C153.398 37.5312 153.762 38.543 154.457 39.3164C155.16 40.082 156.051 40.4648 157.129 40.4648C157.895 40.4648 158.543 40.3086 159.074 39.9961C159.605 39.6836 160.07 39.2695 160.469 38.7539L161.793 39.7852C160.73 41.418 159.137 42.2344 157.012 42.2344ZM156.742 30.8672C155.867 30.8672 155.133 31.1875 154.539 31.8281C153.945 32.4609 153.578 33.3516 153.438 34.5H159.789V34.3359C159.727 33.2344 159.43 32.3828 158.898 31.7812C158.367 31.1719 157.648 30.8672 156.742 30.8672Z" fill="white"/>
<rect x="171.5" y="12.5" width="153" height="43" rx="3.5" fill="#FF8C1A"/>
<rect x="171.5" y="12.5" width="153" height="43" rx="3.5" stroke="#DB6E00"/>
<g clip-path="url(#clip1_1_6539)">
<g opacity="0.1">
<path opacity="0.1" d="M199.71 22.44C199.712 22.7594 199.65 23.076 199.528 23.3713C199.406 23.6666 199.226 23.9347 199 24.16L195.08 28.08C194.621 28.5349 194.001 28.7902 193.355 28.7902C192.709 28.7902 192.089 28.5349 191.63 28.08L187.72 24.16C187.492 23.9352 187.311 23.6674 187.188 23.3721C187.064 23.0769 187 22.7601 187 22.44C187.002 21.7928 187.257 21.1719 187.71 20.71C188 20.47 188.43 20 193.36 20C198.29 20 198.75 20.46 199 20.71C199.226 20.9375 199.405 21.2074 199.527 21.5043C199.649 21.8011 199.711 22.1191 199.71 22.44Z" fill="#FF0040"/>
</g>
</g>
<defs>
<clipPath id="clip0_1_6539">
<rect width="267" height="68" fill="white" transform="translate(87)"/>
</clipPath>
<clipPath id="clip1_1_6539">
<rect width="12.71" height="8.79" fill="white" transform="translate(187 20)"/>
</clipPath>
</defs>
</svg>
