<svg width="342" height="80" viewBox="0 0 342 80" fill="none" xmlns="http://www.w3.org/2000/svg">
<path d="M0 8.99668C0 4.02795 4.02795 0 8.99668 0H21.4985C23.5941 0 25.624 0.731537 27.2378 2.06836L36.2466 9.53102C37.8604 10.8679 39.8903 11.5994 41.9858 11.5994H60.5166C62.6121 11.5994 64.642 10.8679 66.2558 9.53103L75.2646 2.06837C76.8784 0.731538 78.9082 0 81.0038 0H89.1911V68H81.1978C78.9849 68 76.8496 68.8156 75.2002 70.2908L66.9275 77.6896C65.2781 79.1648 63.1428 79.9803 60.9299 79.9803H42.0791C39.9269 79.9803 37.8461 79.2089 36.2141 77.8059L27.337 70.1744C25.7051 68.7715 23.6242 68 21.4721 68H8.99667C4.02794 68 0 63.972 0 59.0033V8.99668Z" fill="#FF8C1A"/>
<path d="M8.99707 1H21.499C23.3615 1.00011 25.1653 1.65073 26.5996 2.83887L35.6084 10.3008C37.4014 11.7861 39.657 12.5995 41.9854 12.5996H60.5166C62.8451 12.5996 65.1004 11.7862 66.8936 10.3008L75.9023 2.83887C77.3368 1.65063 79.1413 1 81.0039 1H88.1914V67H81.1982C78.7394 67 76.366 67.9058 74.5332 69.5449L66.2607 76.9443C64.7947 78.2555 62.8965 78.9805 60.9297 78.9805H42.0791C40.1663 78.9805 38.3167 78.2948 36.8662 77.0479L27.9893 69.416C26.1759 67.8571 23.863 67 21.4717 67H8.99707C4.58063 67 1 63.4194 1 59.0029V8.99707C1 4.71872 4.35986 1.22503 8.58496 1.01074L8.99707 1Z" stroke="#DB6E00" stroke-width="2"/>
<g clip-path="url(#clip0_1_6538)">
<path d="M333.003 0H87V68H333.003C337.972 68 342 63.972 342 59.0033V8.99668C342 4.02795 337.972 0 333.003 0Z" fill="#FF8C1A"/>
<path d="M333.003 1C337.419 1 341 4.58062 341 8.99707V59.0029C341 63.4194 337.419 67 333.003 67H88V1H333.003Z" stroke="#DB6E00" stroke-width="2"/>
</g>
<rect x="86" y="2" width="4" height="64" fill="#FF8C1A"/>
<path d="M19.8086 30.8555C20.7695 29.6758 22.0195 29.0859 23.5586 29.0859C26.2383 29.0859 27.5898 30.5977 27.6133 33.6211V42H25.4453V33.6094C25.4375 32.6953 25.2266 32.0195 24.8125 31.582C24.4062 31.1445 23.7695 30.9258 22.9023 30.9258C22.1992 30.9258 21.582 31.1133 21.0508 31.4883C20.5195 31.8633 20.1055 32.3555 19.8086 32.9648V42H17.6406V24H19.8086V30.8555ZM33.2148 42H31.0469V29.3203H33.2148V42ZM30.8711 25.957C30.8711 25.6055 30.9766 25.3086 31.1875 25.0664C31.4062 24.8242 31.7266 24.7031 32.1484 24.7031C32.5703 24.7031 32.8906 24.8242 33.1094 25.0664C33.3281 25.3086 33.4375 25.6055 33.4375 25.957C33.4375 26.3086 33.3281 26.6016 33.1094 26.8359C32.8906 27.0703 32.5703 27.1875 32.1484 27.1875C31.7266 27.1875 31.4062 27.0703 31.1875 26.8359C30.9766 26.6016 30.8711 26.3086 30.8711 25.957ZM36.168 35.5547C36.168 33.6094 36.6289 32.0469 37.5508 30.8672C38.4727 29.6797 39.6797 29.0859 41.1719 29.0859C42.6562 29.0859 43.832 29.5938 44.6992 30.6094V24H46.8672V42H44.875L44.7695 40.6406C43.9023 41.7031 42.6953 42.2344 41.1484 42.2344C39.6797 42.2344 38.4805 41.6328 37.5508 40.4297C36.6289 39.2266 36.168 37.6562 36.168 35.7188V35.5547ZM38.3359 35.8008C38.3359 37.2383 38.6328 38.3633 39.2266 39.1758C39.8203 39.9883 40.6406 40.3945 41.6875 40.3945C43.0625 40.3945 44.0664 39.7773 44.6992 38.543V32.7188C44.0508 31.5234 43.0547 30.9258 41.7109 30.9258C40.6484 30.9258 39.8203 31.3359 39.2266 32.1562C38.6328 32.9766 38.3359 34.1914 38.3359 35.8008ZM55.5039 42.2344C53.7852 42.2344 52.3867 41.6719 51.3086 40.5469C50.2305 39.4141 49.6914 37.9023 49.6914 36.0117V35.6133C49.6914 34.3555 49.9297 33.2344 50.4062 32.25C50.8906 31.2578 51.5625 30.4844 52.4219 29.9297C53.2891 29.3672 54.2266 29.0859 55.2344 29.0859C56.8828 29.0859 58.1641 29.6289 59.0781 30.7148C59.9922 31.8008 60.4492 33.3555 60.4492 35.3789V36.2812H51.8594C51.8906 37.5312 52.2539 38.543 52.9492 39.3164C53.6523 40.082 54.543 40.4648 55.6211 40.4648C56.3867 40.4648 57.0352 40.3086 57.5664 39.9961C58.0977 39.6836 58.5625 39.2695 58.9609 38.7539L60.2852 39.7852C59.2227 41.418 57.6289 42.2344 55.5039 42.2344ZM55.2344 30.8672C54.3594 30.8672 53.625 31.1875 53.0312 31.8281C52.4375 32.4609 52.0703 33.3516 51.9297 34.5H58.2812V34.3359C58.2188 33.2344 57.9219 32.3828 57.3906 31.7812C56.8594 31.1719 56.1406 30.8672 55.2344 30.8672ZM73.1055 39.0586L76.2461 29.3203H78.4609L73.9141 42H72.2617L67.668 29.3203H69.8828L73.1055 39.0586ZM88.1875 42C88.0625 41.75 87.9609 41.3047 87.8828 40.6641C86.875 41.7109 85.6719 42.2344 84.2734 42.2344C83.0234 42.2344 81.9961 41.8828 81.1914 41.1797C80.3945 40.4688 79.9961 39.5703 79.9961 38.4844C79.9961 37.1641 80.4961 36.1406 81.4961 35.4141C82.5039 34.6797 83.918 34.3125 85.7383 34.3125H87.8477V33.3164C87.8477 32.5586 87.6211 31.957 87.168 31.5117C86.7148 31.0586 86.0469 30.832 85.1641 30.832C84.3906 30.832 83.7422 31.0273 83.2188 31.418C82.6953 31.8086 82.4336 32.2812 82.4336 32.8359H80.2539C80.2539 32.2031 80.4766 31.5938 80.9219 31.0078C81.375 30.4141 81.9844 29.9453 82.75 29.6016C83.5234 29.2578 84.3711 29.0859 85.293 29.0859C86.7539 29.0859 87.8984 29.4531 88.7266 30.1875C89.5547 30.9141 89.9844 31.918 90.0156 33.1992V39.0352C90.0156 40.1992 90.1641 41.125 90.4609 41.8125V42H88.1875ZM84.5898 40.3477C85.2695 40.3477 85.9141 40.1719 86.5234 39.8203C87.1328 39.4688 87.5742 39.0117 87.8477 38.4492V35.8477H86.1484C83.4922 35.8477 82.1641 36.625 82.1641 38.1797C82.1641 38.8594 82.3906 39.3906 82.8438 39.7734C83.2969 40.1562 83.8789 40.3477 84.5898 40.3477ZM99.543 31.2656C99.2148 31.2109 98.8594 31.1836 98.4766 31.1836C97.0547 31.1836 96.0898 31.7891 95.582 33V42H93.4141V29.3203H95.5234L95.5586 30.7852C96.2695 29.6523 97.2773 29.0859 98.582 29.0859C99.0039 29.0859 99.3242 29.1406 99.543 29.25V31.2656ZM103.902 42H101.734V29.3203H103.902V42ZM101.559 25.957C101.559 25.6055 101.664 25.3086 101.875 25.0664C102.094 24.8242 102.414 24.7031 102.836 24.7031C103.258 24.7031 103.578 24.8242 103.797 25.0664C104.016 25.3086 104.125 25.6055 104.125 25.957C104.125 26.3086 104.016 26.6016 103.797 26.8359C103.578 27.0703 103.258 27.1875 102.836 27.1875C102.414 27.1875 102.094 27.0703 101.875 26.8359C101.664 26.6016 101.559 26.3086 101.559 25.957ZM115.211 42C115.086 41.75 114.984 41.3047 114.906 40.6641C113.898 41.7109 112.695 42.2344 111.297 42.2344C110.047 42.2344 109.02 41.8828 108.215 41.1797C107.418 40.4688 107.02 39.5703 107.02 38.4844C107.02 37.1641 107.52 36.1406 108.52 35.4141C109.527 34.6797 110.941 34.3125 112.762 34.3125H114.871V33.3164C114.871 32.5586 114.645 31.957 114.191 31.5117C113.738 31.0586 113.07 30.832 112.188 30.832C111.414 30.832 110.766 31.0273 110.242 31.418C109.719 31.8086 109.457 32.2812 109.457 32.8359H107.277C107.277 32.2031 107.5 31.5938 107.945 31.0078C108.398 30.4141 109.008 29.9453 109.773 29.6016C110.547 29.2578 111.395 29.0859 112.316 29.0859C113.777 29.0859 114.922 29.4531 115.75 30.1875C116.578 30.9141 117.008 31.918 117.039 33.1992V39.0352C117.039 40.1992 117.188 41.125 117.484 41.8125V42H115.211ZM111.613 40.3477C112.293 40.3477 112.938 40.1719 113.547 39.8203C114.156 39.4688 114.598 39.0117 114.871 38.4492V35.8477H113.172C110.516 35.8477 109.188 36.625 109.188 38.1797C109.188 38.8594 109.414 39.3906 109.867 39.7734C110.32 40.1562 110.902 40.3477 111.613 40.3477ZM131.172 35.8008C131.172 37.7383 130.727 39.2969 129.836 40.4766C128.945 41.6484 127.75 42.2344 126.25 42.2344C124.648 42.2344 123.41 41.668 122.535 40.5352L122.43 42H120.438V24H122.605V30.7148C123.48 29.6289 124.688 29.0859 126.227 29.0859C127.766 29.0859 128.973 29.668 129.848 30.832C130.73 31.9961 131.172 33.5898 131.172 35.6133V35.8008ZM129.004 35.5547C129.004 34.0781 128.719 32.9375 128.148 32.1328C127.578 31.3281 126.758 30.9258 125.688 30.9258C124.258 30.9258 123.23 31.5898 122.605 32.918V38.4023C123.27 39.7305 124.305 40.3945 125.711 40.3945C126.75 40.3945 127.559 39.9922 128.137 39.1875C128.715 38.3828 129.004 37.1719 129.004 35.5547ZM136.27 42H134.102V24H136.27V42ZM145.012 42.2344C143.293 42.2344 141.895 41.6719 140.816 40.5469C139.738 39.4141 139.199 37.9023 139.199 36.0117V35.6133C139.199 34.3555 139.438 33.2344 139.914 32.25C140.398 31.2578 141.07 30.4844 141.93 29.9297C142.797 29.3672 143.734 29.0859 144.742 29.0859C146.391 29.0859 147.672 29.6289 148.586 30.7148C149.5 31.8008 149.957 33.3555 149.957 35.3789V36.2812H141.367C141.398 37.5312 141.762 38.543 142.457 39.3164C143.16 40.082 144.051 40.4648 145.129 40.4648C145.895 40.4648 146.543 40.3086 147.074 39.9961C147.605 39.6836 148.07 39.2695 148.469 38.7539L149.793 39.7852C148.73 41.418 147.137 42.2344 145.012 42.2344ZM144.742 30.8672C143.867 30.8672 143.133 31.1875 142.539 31.8281C141.945 32.4609 141.578 33.3516 141.438 34.5H147.789V34.3359C147.727 33.2344 147.43 32.3828 146.898 31.7812C146.367 31.1719 145.648 30.8672 144.742 30.8672Z" fill="white"/>
<rect x="159.5" y="12.5" width="153" height="43" rx="3.5" fill="#FF8C1A"/>
<rect x="159.5" y="12.5" width="153" height="43" rx="3.5" stroke="#DB6E00"/>
<defs>
<clipPath id="clip0_1_6538">
<rect width="255" height="68" fill="white" transform="translate(87)"/>
</clipPath>
</defs>
</svg>
